<?xml version="1.0" encoding="utf-8" standalone="no"?>
<!DOCTYPE svg PUBLIC "-//W3C//DTD SVG 1.1//EN"
  "http://www.w3.org/Graphics/SVG/1.1/DTD/svg11.dtd">
<svg xmlns:xlink="http://www.w3.org/1999/xlink" width="432pt" height="288pt" viewBox="0 0 432 288" xmlns="http://www.w3.org/2000/svg" version="1.1">
 <metadata>
  <rdf:RDF xmlns:dc="http://purl.org/dc/elements/1.1/" xmlns:cc="http://creativecommons.org/ns#" xmlns:rdf="http://www.w3.org/1999/02/22-rdf-syntax-ns#">
   <cc:Work>
    <dc:type rdf:resource="http://purl.org/dc/dcmitype/StillImage"/>
    <dc:date>2023-01-19T13:45:43.612620</dc:date>
    <dc:format>image/svg+xml</dc:format>
    <dc:creator>
     <cc:Agent>
      <dc:title>Matplotlib v3.5.2, https://matplotlib.org/</dc:title>
     </cc:Agent>
    </dc:creator>
   </cc:Work>
  </rdf:RDF>
 </metadata>
 <defs>
  <style type="text/css">*{stroke-linejoin: round; stroke-linecap: butt}</style>
 </defs>
 <g id="figure_1">
  <g id="patch_1">
   <path d="M 0 288 
L 432 288 
L 432 0 
L 0 0 
z
" style="fill: #ffffff"/>
  </g>
  <g id="axes_1">
   <g id="patch_2">
    <path d="M 65.684 246.04 
L 421.2 246.04 
L 421.2 10.8 
L 65.684 10.8 
z
" style="fill: #ffffff"/>
   </g>
   <g id="matplotlib.axis_1">
    <g id="xtick_1">
     <g id="line2d_1">
      <defs>
       <path id="m0e99c28b48" d="M 0 0 
L 0 3.5 
" style="stroke: #000000; stroke-width: 0.8"/>
      </defs>
      <g>
       <use xlink:href="#m0e99c28b48" x="81.843818" y="246.04" style="stroke: #000000; stroke-width: 0.8"/>
      </g>
     </g>
     <g id="text_1">
      <!-- 0% -->
      <g transform="translate(73.911787 260.638438)scale(0.1 -0.1)">
       <defs>
        <path id="DejaVuSans-30" d="M 2034 4250 
Q 1547 4250 1301 3770 
Q 1056 3291 1056 2328 
Q 1056 1369 1301 889 
Q 1547 409 2034 409 
Q 2525 409 2770 889 
Q 3016 1369 3016 2328 
Q 3016 3291 2770 3770 
Q 2525 4250 2034 4250 
z
M 2034 4750 
Q 2819 4750 3233 4129 
Q 3647 3509 3647 2328 
Q 3647 1150 3233 529 
Q 2819 -91 2034 -91 
Q 1250 -91 836 529 
Q 422 1150 422 2328 
Q 422 3509 836 4129 
Q 1250 4750 2034 4750 
z
" transform="scale(0.015625)"/>
        <path id="DejaVuSans-25" d="M 4653 2053 
Q 4381 2053 4226 1822 
Q 4072 1591 4072 1178 
Q 4072 772 4226 539 
Q 4381 306 4653 306 
Q 4919 306 5073 539 
Q 5228 772 5228 1178 
Q 5228 1588 5073 1820 
Q 4919 2053 4653 2053 
z
M 4653 2450 
Q 5147 2450 5437 2106 
Q 5728 1763 5728 1178 
Q 5728 594 5436 251 
Q 5144 -91 4653 -91 
Q 4153 -91 3862 251 
Q 3572 594 3572 1178 
Q 3572 1766 3864 2108 
Q 4156 2450 4653 2450 
z
M 1428 4353 
Q 1159 4353 1004 4120 
Q 850 3888 850 3481 
Q 850 3069 1003 2837 
Q 1156 2606 1428 2606 
Q 1700 2606 1854 2837 
Q 2009 3069 2009 3481 
Q 2009 3884 1853 4118 
Q 1697 4353 1428 4353 
z
M 4250 4750 
L 4750 4750 
L 1831 -91 
L 1331 -91 
L 4250 4750 
z
M 1428 4750 
Q 1922 4750 2215 4408 
Q 2509 4066 2509 3481 
Q 2509 2891 2217 2550 
Q 1925 2209 1428 2209 
Q 931 2209 642 2551 
Q 353 2894 353 3481 
Q 353 4063 643 4406 
Q 934 4750 1428 4750 
z
" transform="scale(0.015625)"/>
       </defs>
       <use xlink:href="#DejaVuSans-30"/>
       <use xlink:href="#DejaVuSans-25" x="63.623047"/>
      </g>
     </g>
    </g>
    <g id="xtick_2">
     <g id="line2d_2">
      <g>
       <use xlink:href="#m0e99c28b48" x="146.483091" y="246.04" style="stroke: #000000; stroke-width: 0.8"/>
      </g>
     </g>
     <g id="text_2">
      <!-- 20% -->
      <g transform="translate(135.36981 260.638438)scale(0.1 -0.1)">
       <defs>
        <path id="DejaVuSans-32" d="M 1228 531 
L 3431 531 
L 3431 0 
L 469 0 
L 469 531 
Q 828 903 1448 1529 
Q 2069 2156 2228 2338 
Q 2531 2678 2651 2914 
Q 2772 3150 2772 3378 
Q 2772 3750 2511 3984 
Q 2250 4219 1831 4219 
Q 1534 4219 1204 4116 
Q 875 4013 500 3803 
L 500 4441 
Q 881 4594 1212 4672 
Q 1544 4750 1819 4750 
Q 2544 4750 2975 4387 
Q 3406 4025 3406 3419 
Q 3406 3131 3298 2873 
Q 3191 2616 2906 2266 
Q 2828 2175 2409 1742 
Q 1991 1309 1228 531 
z
" transform="scale(0.015625)"/>
       </defs>
       <use xlink:href="#DejaVuSans-32"/>
       <use xlink:href="#DejaVuSans-30" x="63.623047"/>
       <use xlink:href="#DejaVuSans-25" x="127.246094"/>
      </g>
     </g>
    </g>
    <g id="xtick_3">
     <g id="line2d_3">
      <g>
       <use xlink:href="#m0e99c28b48" x="211.122364" y="246.04" style="stroke: #000000; stroke-width: 0.8"/>
      </g>
     </g>
     <g id="text_3">
      <!-- 40% -->
      <g transform="translate(200.009082 260.638438)scale(0.1 -0.1)">
       <defs>
        <path id="DejaVuSans-34" d="M 2419 4116 
L 825 1625 
L 2419 1625 
L 2419 4116 
z
M 2253 4666 
L 3047 4666 
L 3047 1625 
L 3713 1625 
L 3713 1100 
L 3047 1100 
L 3047 0 
L 2419 0 
L 2419 1100 
L 313 1100 
L 313 1709 
L 2253 4666 
z
" transform="scale(0.015625)"/>
       </defs>
       <use xlink:href="#DejaVuSans-34"/>
       <use xlink:href="#DejaVuSans-30" x="63.623047"/>
       <use xlink:href="#DejaVuSans-25" x="127.246094"/>
      </g>
     </g>
    </g>
    <g id="xtick_4">
     <g id="line2d_4">
      <g>
       <use xlink:href="#m0e99c28b48" x="275.761636" y="246.04" style="stroke: #000000; stroke-width: 0.8"/>
      </g>
     </g>
     <g id="text_4">
      <!-- 60% -->
      <g transform="translate(264.648355 260.638438)scale(0.1 -0.1)">
       <defs>
        <path id="DejaVuSans-36" d="M 2113 2584 
Q 1688 2584 1439 2293 
Q 1191 2003 1191 1497 
Q 1191 994 1439 701 
Q 1688 409 2113 409 
Q 2538 409 2786 701 
Q 3034 994 3034 1497 
Q 3034 2003 2786 2293 
Q 2538 2584 2113 2584 
z
M 3366 4563 
L 3366 3988 
Q 3128 4100 2886 4159 
Q 2644 4219 2406 4219 
Q 1781 4219 1451 3797 
Q 1122 3375 1075 2522 
Q 1259 2794 1537 2939 
Q 1816 3084 2150 3084 
Q 2853 3084 3261 2657 
Q 3669 2231 3669 1497 
Q 3669 778 3244 343 
Q 2819 -91 2113 -91 
Q 1303 -91 875 529 
Q 447 1150 447 2328 
Q 447 3434 972 4092 
Q 1497 4750 2381 4750 
Q 2619 4750 2861 4703 
Q 3103 4656 3366 4563 
z
" transform="scale(0.015625)"/>
       </defs>
       <use xlink:href="#DejaVuSans-36"/>
       <use xlink:href="#DejaVuSans-30" x="63.623047"/>
       <use xlink:href="#DejaVuSans-25" x="127.246094"/>
      </g>
     </g>
    </g>
    <g id="xtick_5">
     <g id="line2d_5">
      <g>
       <use xlink:href="#m0e99c28b48" x="340.400909" y="246.04" style="stroke: #000000; stroke-width: 0.8"/>
      </g>
     </g>
     <g id="text_5">
      <!-- 80% -->
      <g transform="translate(329.287628 260.638438)scale(0.1 -0.1)">
       <defs>
        <path id="DejaVuSans-38" d="M 2034 2216 
Q 1584 2216 1326 1975 
Q 1069 1734 1069 1313 
Q 1069 891 1326 650 
Q 1584 409 2034 409 
Q 2484 409 2743 651 
Q 3003 894 3003 1313 
Q 3003 1734 2745 1975 
Q 2488 2216 2034 2216 
z
M 1403 2484 
Q 997 2584 770 2862 
Q 544 3141 544 3541 
Q 544 4100 942 4425 
Q 1341 4750 2034 4750 
Q 2731 4750 3128 4425 
Q 3525 4100 3525 3541 
Q 3525 3141 3298 2862 
Q 3072 2584 2669 2484 
Q 3125 2378 3379 2068 
Q 3634 1759 3634 1313 
Q 3634 634 3220 271 
Q 2806 -91 2034 -91 
Q 1263 -91 848 271 
Q 434 634 434 1313 
Q 434 1759 690 2068 
Q 947 2378 1403 2484 
z
M 1172 3481 
Q 1172 3119 1398 2916 
Q 1625 2713 2034 2713 
Q 2441 2713 2670 2916 
Q 2900 3119 2900 3481 
Q 2900 3844 2670 4047 
Q 2441 4250 2034 4250 
Q 1625 4250 1398 4047 
Q 1172 3844 1172 3481 
z
" transform="scale(0.015625)"/>
       </defs>
       <use xlink:href="#DejaVuSans-38"/>
       <use xlink:href="#DejaVuSans-30" x="63.623047"/>
       <use xlink:href="#DejaVuSans-25" x="127.246094"/>
      </g>
     </g>
    </g>
    <g id="xtick_6">
     <g id="line2d_6">
      <g>
       <use xlink:href="#m0e99c28b48" x="405.040182" y="246.04" style="stroke: #000000; stroke-width: 0.8"/>
      </g>
     </g>
     <g id="text_6">
      <!-- 100% -->
      <g transform="translate(390.745651 260.638438)scale(0.1 -0.1)">
       <defs>
        <path id="DejaVuSans-31" d="M 794 531 
L 1825 531 
L 1825 4091 
L 703 3866 
L 703 4441 
L 1819 4666 
L 2450 4666 
L 2450 531 
L 3481 531 
L 3481 0 
L 794 0 
L 794 531 
z
" transform="scale(0.015625)"/>
       </defs>
       <use xlink:href="#DejaVuSans-31"/>
       <use xlink:href="#DejaVuSans-30" x="63.623047"/>
       <use xlink:href="#DejaVuSans-30" x="127.246094"/>
       <use xlink:href="#DejaVuSans-25" x="190.869141"/>
      </g>
     </g>
    </g>
    <g id="text_7">
     <!-- Percentage of Samples predicted by Remote Model (=cost) -->
     <g transform="translate(95.402156 274.316562)scale(0.1 -0.1)">
      <defs>
       <path id="DejaVuSans-50" d="M 1259 4147 
L 1259 2394 
L 2053 2394 
Q 2494 2394 2734 2622 
Q 2975 2850 2975 3272 
Q 2975 3691 2734 3919 
Q 2494 4147 2053 4147 
L 1259 4147 
z
M 628 4666 
L 2053 4666 
Q 2838 4666 3239 4311 
Q 3641 3956 3641 3272 
Q 3641 2581 3239 2228 
Q 2838 1875 2053 1875 
L 1259 1875 
L 1259 0 
L 628 0 
L 628 4666 
z
" transform="scale(0.015625)"/>
       <path id="DejaVuSans-65" d="M 3597 1894 
L 3597 1613 
L 953 1613 
Q 991 1019 1311 708 
Q 1631 397 2203 397 
Q 2534 397 2845 478 
Q 3156 559 3463 722 
L 3463 178 
Q 3153 47 2828 -22 
Q 2503 -91 2169 -91 
Q 1331 -91 842 396 
Q 353 884 353 1716 
Q 353 2575 817 3079 
Q 1281 3584 2069 3584 
Q 2775 3584 3186 3129 
Q 3597 2675 3597 1894 
z
M 3022 2063 
Q 3016 2534 2758 2815 
Q 2500 3097 2075 3097 
Q 1594 3097 1305 2825 
Q 1016 2553 972 2059 
L 3022 2063 
z
" transform="scale(0.015625)"/>
       <path id="DejaVuSans-72" d="M 2631 2963 
Q 2534 3019 2420 3045 
Q 2306 3072 2169 3072 
Q 1681 3072 1420 2755 
Q 1159 2438 1159 1844 
L 1159 0 
L 581 0 
L 581 3500 
L 1159 3500 
L 1159 2956 
Q 1341 3275 1631 3429 
Q 1922 3584 2338 3584 
Q 2397 3584 2469 3576 
Q 2541 3569 2628 3553 
L 2631 2963 
z
" transform="scale(0.015625)"/>
       <path id="DejaVuSans-63" d="M 3122 3366 
L 3122 2828 
Q 2878 2963 2633 3030 
Q 2388 3097 2138 3097 
Q 1578 3097 1268 2742 
Q 959 2388 959 1747 
Q 959 1106 1268 751 
Q 1578 397 2138 397 
Q 2388 397 2633 464 
Q 2878 531 3122 666 
L 3122 134 
Q 2881 22 2623 -34 
Q 2366 -91 2075 -91 
Q 1284 -91 818 406 
Q 353 903 353 1747 
Q 353 2603 823 3093 
Q 1294 3584 2113 3584 
Q 2378 3584 2631 3529 
Q 2884 3475 3122 3366 
z
" transform="scale(0.015625)"/>
       <path id="DejaVuSans-6e" d="M 3513 2113 
L 3513 0 
L 2938 0 
L 2938 2094 
Q 2938 2591 2744 2837 
Q 2550 3084 2163 3084 
Q 1697 3084 1428 2787 
Q 1159 2491 1159 1978 
L 1159 0 
L 581 0 
L 581 3500 
L 1159 3500 
L 1159 2956 
Q 1366 3272 1645 3428 
Q 1925 3584 2291 3584 
Q 2894 3584 3203 3211 
Q 3513 2838 3513 2113 
z
" transform="scale(0.015625)"/>
       <path id="DejaVuSans-74" d="M 1172 4494 
L 1172 3500 
L 2356 3500 
L 2356 3053 
L 1172 3053 
L 1172 1153 
Q 1172 725 1289 603 
Q 1406 481 1766 481 
L 2356 481 
L 2356 0 
L 1766 0 
Q 1100 0 847 248 
Q 594 497 594 1153 
L 594 3053 
L 172 3053 
L 172 3500 
L 594 3500 
L 594 4494 
L 1172 4494 
z
" transform="scale(0.015625)"/>
       <path id="DejaVuSans-61" d="M 2194 1759 
Q 1497 1759 1228 1600 
Q 959 1441 959 1056 
Q 959 750 1161 570 
Q 1363 391 1709 391 
Q 2188 391 2477 730 
Q 2766 1069 2766 1631 
L 2766 1759 
L 2194 1759 
z
M 3341 1997 
L 3341 0 
L 2766 0 
L 2766 531 
Q 2569 213 2275 61 
Q 1981 -91 1556 -91 
Q 1019 -91 701 211 
Q 384 513 384 1019 
Q 384 1609 779 1909 
Q 1175 2209 1959 2209 
L 2766 2209 
L 2766 2266 
Q 2766 2663 2505 2880 
Q 2244 3097 1772 3097 
Q 1472 3097 1187 3025 
Q 903 2953 641 2809 
L 641 3341 
Q 956 3463 1253 3523 
Q 1550 3584 1831 3584 
Q 2591 3584 2966 3190 
Q 3341 2797 3341 1997 
z
" transform="scale(0.015625)"/>
       <path id="DejaVuSans-67" d="M 2906 1791 
Q 2906 2416 2648 2759 
Q 2391 3103 1925 3103 
Q 1463 3103 1205 2759 
Q 947 2416 947 1791 
Q 947 1169 1205 825 
Q 1463 481 1925 481 
Q 2391 481 2648 825 
Q 2906 1169 2906 1791 
z
M 3481 434 
Q 3481 -459 3084 -895 
Q 2688 -1331 1869 -1331 
Q 1566 -1331 1297 -1286 
Q 1028 -1241 775 -1147 
L 775 -588 
Q 1028 -725 1275 -790 
Q 1522 -856 1778 -856 
Q 2344 -856 2625 -561 
Q 2906 -266 2906 331 
L 2906 616 
Q 2728 306 2450 153 
Q 2172 0 1784 0 
Q 1141 0 747 490 
Q 353 981 353 1791 
Q 353 2603 747 3093 
Q 1141 3584 1784 3584 
Q 2172 3584 2450 3431 
Q 2728 3278 2906 2969 
L 2906 3500 
L 3481 3500 
L 3481 434 
z
" transform="scale(0.015625)"/>
       <path id="DejaVuSans-20" transform="scale(0.015625)"/>
       <path id="DejaVuSans-6f" d="M 1959 3097 
Q 1497 3097 1228 2736 
Q 959 2375 959 1747 
Q 959 1119 1226 758 
Q 1494 397 1959 397 
Q 2419 397 2687 759 
Q 2956 1122 2956 1747 
Q 2956 2369 2687 2733 
Q 2419 3097 1959 3097 
z
M 1959 3584 
Q 2709 3584 3137 3096 
Q 3566 2609 3566 1747 
Q 3566 888 3137 398 
Q 2709 -91 1959 -91 
Q 1206 -91 779 398 
Q 353 888 353 1747 
Q 353 2609 779 3096 
Q 1206 3584 1959 3584 
z
" transform="scale(0.015625)"/>
       <path id="DejaVuSans-66" d="M 2375 4863 
L 2375 4384 
L 1825 4384 
Q 1516 4384 1395 4259 
Q 1275 4134 1275 3809 
L 1275 3500 
L 2222 3500 
L 2222 3053 
L 1275 3053 
L 1275 0 
L 697 0 
L 697 3053 
L 147 3053 
L 147 3500 
L 697 3500 
L 697 3744 
Q 697 4328 969 4595 
Q 1241 4863 1831 4863 
L 2375 4863 
z
" transform="scale(0.015625)"/>
       <path id="DejaVuSans-53" d="M 3425 4513 
L 3425 3897 
Q 3066 4069 2747 4153 
Q 2428 4238 2131 4238 
Q 1616 4238 1336 4038 
Q 1056 3838 1056 3469 
Q 1056 3159 1242 3001 
Q 1428 2844 1947 2747 
L 2328 2669 
Q 3034 2534 3370 2195 
Q 3706 1856 3706 1288 
Q 3706 609 3251 259 
Q 2797 -91 1919 -91 
Q 1588 -91 1214 -16 
Q 841 59 441 206 
L 441 856 
Q 825 641 1194 531 
Q 1563 422 1919 422 
Q 2459 422 2753 634 
Q 3047 847 3047 1241 
Q 3047 1584 2836 1778 
Q 2625 1972 2144 2069 
L 1759 2144 
Q 1053 2284 737 2584 
Q 422 2884 422 3419 
Q 422 4038 858 4394 
Q 1294 4750 2059 4750 
Q 2388 4750 2728 4690 
Q 3069 4631 3425 4513 
z
" transform="scale(0.015625)"/>
       <path id="DejaVuSans-6d" d="M 3328 2828 
Q 3544 3216 3844 3400 
Q 4144 3584 4550 3584 
Q 5097 3584 5394 3201 
Q 5691 2819 5691 2113 
L 5691 0 
L 5113 0 
L 5113 2094 
Q 5113 2597 4934 2840 
Q 4756 3084 4391 3084 
Q 3944 3084 3684 2787 
Q 3425 2491 3425 1978 
L 3425 0 
L 2847 0 
L 2847 2094 
Q 2847 2600 2669 2842 
Q 2491 3084 2119 3084 
Q 1678 3084 1418 2786 
Q 1159 2488 1159 1978 
L 1159 0 
L 581 0 
L 581 3500 
L 1159 3500 
L 1159 2956 
Q 1356 3278 1631 3431 
Q 1906 3584 2284 3584 
Q 2666 3584 2933 3390 
Q 3200 3197 3328 2828 
z
" transform="scale(0.015625)"/>
       <path id="DejaVuSans-70" d="M 1159 525 
L 1159 -1331 
L 581 -1331 
L 581 3500 
L 1159 3500 
L 1159 2969 
Q 1341 3281 1617 3432 
Q 1894 3584 2278 3584 
Q 2916 3584 3314 3078 
Q 3713 2572 3713 1747 
Q 3713 922 3314 415 
Q 2916 -91 2278 -91 
Q 1894 -91 1617 61 
Q 1341 213 1159 525 
z
M 3116 1747 
Q 3116 2381 2855 2742 
Q 2594 3103 2138 3103 
Q 1681 3103 1420 2742 
Q 1159 2381 1159 1747 
Q 1159 1113 1420 752 
Q 1681 391 2138 391 
Q 2594 391 2855 752 
Q 3116 1113 3116 1747 
z
" transform="scale(0.015625)"/>
       <path id="DejaVuSans-6c" d="M 603 4863 
L 1178 4863 
L 1178 0 
L 603 0 
L 603 4863 
z
" transform="scale(0.015625)"/>
       <path id="DejaVuSans-73" d="M 2834 3397 
L 2834 2853 
Q 2591 2978 2328 3040 
Q 2066 3103 1784 3103 
Q 1356 3103 1142 2972 
Q 928 2841 928 2578 
Q 928 2378 1081 2264 
Q 1234 2150 1697 2047 
L 1894 2003 
Q 2506 1872 2764 1633 
Q 3022 1394 3022 966 
Q 3022 478 2636 193 
Q 2250 -91 1575 -91 
Q 1294 -91 989 -36 
Q 684 19 347 128 
L 347 722 
Q 666 556 975 473 
Q 1284 391 1588 391 
Q 1994 391 2212 530 
Q 2431 669 2431 922 
Q 2431 1156 2273 1281 
Q 2116 1406 1581 1522 
L 1381 1569 
Q 847 1681 609 1914 
Q 372 2147 372 2553 
Q 372 3047 722 3315 
Q 1072 3584 1716 3584 
Q 2034 3584 2315 3537 
Q 2597 3491 2834 3397 
z
" transform="scale(0.015625)"/>
       <path id="DejaVuSans-64" d="M 2906 2969 
L 2906 4863 
L 3481 4863 
L 3481 0 
L 2906 0 
L 2906 525 
Q 2725 213 2448 61 
Q 2172 -91 1784 -91 
Q 1150 -91 751 415 
Q 353 922 353 1747 
Q 353 2572 751 3078 
Q 1150 3584 1784 3584 
Q 2172 3584 2448 3432 
Q 2725 3281 2906 2969 
z
M 947 1747 
Q 947 1113 1208 752 
Q 1469 391 1925 391 
Q 2381 391 2643 752 
Q 2906 1113 2906 1747 
Q 2906 2381 2643 2742 
Q 2381 3103 1925 3103 
Q 1469 3103 1208 2742 
Q 947 2381 947 1747 
z
" transform="scale(0.015625)"/>
       <path id="DejaVuSans-69" d="M 603 3500 
L 1178 3500 
L 1178 0 
L 603 0 
L 603 3500 
z
M 603 4863 
L 1178 4863 
L 1178 4134 
L 603 4134 
L 603 4863 
z
" transform="scale(0.015625)"/>
       <path id="DejaVuSans-62" d="M 3116 1747 
Q 3116 2381 2855 2742 
Q 2594 3103 2138 3103 
Q 1681 3103 1420 2742 
Q 1159 2381 1159 1747 
Q 1159 1113 1420 752 
Q 1681 391 2138 391 
Q 2594 391 2855 752 
Q 3116 1113 3116 1747 
z
M 1159 2969 
Q 1341 3281 1617 3432 
Q 1894 3584 2278 3584 
Q 2916 3584 3314 3078 
Q 3713 2572 3713 1747 
Q 3713 922 3314 415 
Q 2916 -91 2278 -91 
Q 1894 -91 1617 61 
Q 1341 213 1159 525 
L 1159 0 
L 581 0 
L 581 4863 
L 1159 4863 
L 1159 2969 
z
" transform="scale(0.015625)"/>
       <path id="DejaVuSans-79" d="M 2059 -325 
Q 1816 -950 1584 -1140 
Q 1353 -1331 966 -1331 
L 506 -1331 
L 506 -850 
L 844 -850 
Q 1081 -850 1212 -737 
Q 1344 -625 1503 -206 
L 1606 56 
L 191 3500 
L 800 3500 
L 1894 763 
L 2988 3500 
L 3597 3500 
L 2059 -325 
z
" transform="scale(0.015625)"/>
       <path id="DejaVuSans-52" d="M 2841 2188 
Q 3044 2119 3236 1894 
Q 3428 1669 3622 1275 
L 4263 0 
L 3584 0 
L 2988 1197 
Q 2756 1666 2539 1819 
Q 2322 1972 1947 1972 
L 1259 1972 
L 1259 0 
L 628 0 
L 628 4666 
L 2053 4666 
Q 2853 4666 3247 4331 
Q 3641 3997 3641 3322 
Q 3641 2881 3436 2590 
Q 3231 2300 2841 2188 
z
M 1259 4147 
L 1259 2491 
L 2053 2491 
Q 2509 2491 2742 2702 
Q 2975 2913 2975 3322 
Q 2975 3731 2742 3939 
Q 2509 4147 2053 4147 
L 1259 4147 
z
" transform="scale(0.015625)"/>
       <path id="DejaVuSans-4d" d="M 628 4666 
L 1569 4666 
L 2759 1491 
L 3956 4666 
L 4897 4666 
L 4897 0 
L 4281 0 
L 4281 4097 
L 3078 897 
L 2444 897 
L 1241 4097 
L 1241 0 
L 628 0 
L 628 4666 
z
" transform="scale(0.015625)"/>
       <path id="DejaVuSans-28" d="M 1984 4856 
Q 1566 4138 1362 3434 
Q 1159 2731 1159 2009 
Q 1159 1288 1364 580 
Q 1569 -128 1984 -844 
L 1484 -844 
Q 1016 -109 783 600 
Q 550 1309 550 2009 
Q 550 2706 781 3412 
Q 1013 4119 1484 4856 
L 1984 4856 
z
" transform="scale(0.015625)"/>
       <path id="DejaVuSans-3d" d="M 678 2906 
L 4684 2906 
L 4684 2381 
L 678 2381 
L 678 2906 
z
M 678 1631 
L 4684 1631 
L 4684 1100 
L 678 1100 
L 678 1631 
z
" transform="scale(0.015625)"/>
       <path id="DejaVuSans-29" d="M 513 4856 
L 1013 4856 
Q 1481 4119 1714 3412 
Q 1947 2706 1947 2009 
Q 1947 1309 1714 600 
Q 1481 -109 1013 -844 
L 513 -844 
Q 928 -128 1133 580 
Q 1338 1288 1338 2009 
Q 1338 2731 1133 3434 
Q 928 4138 513 4856 
z
" transform="scale(0.015625)"/>
      </defs>
      <use xlink:href="#DejaVuSans-50"/>
      <use xlink:href="#DejaVuSans-65" x="56.677734"/>
      <use xlink:href="#DejaVuSans-72" x="118.201172"/>
      <use xlink:href="#DejaVuSans-63" x="157.064453"/>
      <use xlink:href="#DejaVuSans-65" x="212.044922"/>
      <use xlink:href="#DejaVuSans-6e" x="273.568359"/>
      <use xlink:href="#DejaVuSans-74" x="336.947266"/>
      <use xlink:href="#DejaVuSans-61" x="376.15625"/>
      <use xlink:href="#DejaVuSans-67" x="437.435547"/>
      <use xlink:href="#DejaVuSans-65" x="500.912109"/>
      <use xlink:href="#DejaVuSans-20" x="562.435547"/>
      <use xlink:href="#DejaVuSans-6f" x="594.222656"/>
      <use xlink:href="#DejaVuSans-66" x="655.404297"/>
      <use xlink:href="#DejaVuSans-20" x="690.609375"/>
      <use xlink:href="#DejaVuSans-53" x="722.396484"/>
      <use xlink:href="#DejaVuSans-61" x="785.873047"/>
      <use xlink:href="#DejaVuSans-6d" x="847.152344"/>
      <use xlink:href="#DejaVuSans-70" x="944.564453"/>
      <use xlink:href="#DejaVuSans-6c" x="1008.041016"/>
      <use xlink:href="#DejaVuSans-65" x="1035.824219"/>
      <use xlink:href="#DejaVuSans-73" x="1097.347656"/>
      <use xlink:href="#DejaVuSans-20" x="1149.447266"/>
      <use xlink:href="#DejaVuSans-70" x="1181.234375"/>
      <use xlink:href="#DejaVuSans-72" x="1244.710938"/>
      <use xlink:href="#DejaVuSans-65" x="1283.574219"/>
      <use xlink:href="#DejaVuSans-64" x="1345.097656"/>
      <use xlink:href="#DejaVuSans-69" x="1408.574219"/>
      <use xlink:href="#DejaVuSans-63" x="1436.357422"/>
      <use xlink:href="#DejaVuSans-74" x="1491.337891"/>
      <use xlink:href="#DejaVuSans-65" x="1530.546875"/>
      <use xlink:href="#DejaVuSans-64" x="1592.070312"/>
      <use xlink:href="#DejaVuSans-20" x="1655.546875"/>
      <use xlink:href="#DejaVuSans-62" x="1687.333984"/>
      <use xlink:href="#DejaVuSans-79" x="1750.810547"/>
      <use xlink:href="#DejaVuSans-20" x="1809.990234"/>
      <use xlink:href="#DejaVuSans-52" x="1841.777344"/>
      <use xlink:href="#DejaVuSans-65" x="1906.759766"/>
      <use xlink:href="#DejaVuSans-6d" x="1968.283203"/>
      <use xlink:href="#DejaVuSans-6f" x="2065.695312"/>
      <use xlink:href="#DejaVuSans-74" x="2126.876953"/>
      <use xlink:href="#DejaVuSans-65" x="2166.085938"/>
      <use xlink:href="#DejaVuSans-20" x="2227.609375"/>
      <use xlink:href="#DejaVuSans-4d" x="2259.396484"/>
      <use xlink:href="#DejaVuSans-6f" x="2345.675781"/>
      <use xlink:href="#DejaVuSans-64" x="2406.857422"/>
      <use xlink:href="#DejaVuSans-65" x="2470.333984"/>
      <use xlink:href="#DejaVuSans-6c" x="2531.857422"/>
      <use xlink:href="#DejaVuSans-20" x="2559.640625"/>
      <use xlink:href="#DejaVuSans-28" x="2591.427734"/>
      <use xlink:href="#DejaVuSans-3d" x="2630.441406"/>
      <use xlink:href="#DejaVuSans-63" x="2714.230469"/>
      <use xlink:href="#DejaVuSans-6f" x="2769.210938"/>
      <use xlink:href="#DejaVuSans-73" x="2830.392578"/>
      <use xlink:href="#DejaVuSans-74" x="2882.492188"/>
      <use xlink:href="#DejaVuSans-29" x="2921.701172"/>
     </g>
    </g>
   </g>
   <g id="matplotlib.axis_2">
    <g id="ytick_1">
     <g id="line2d_7">
      <defs>
       <path id="m35b4280750" d="M 0 0 
L -3.5 0 
" style="stroke: #000000; stroke-width: 0.8"/>
      </defs>
      <g>
       <use xlink:href="#m35b4280750" x="65.684" y="217.350296" style="stroke: #000000; stroke-width: 0.8"/>
      </g>
     </g>
     <g id="text_8">
      <!-- 0.72 -->
      <g transform="translate(36.418375 221.149515)scale(0.1 -0.1)">
       <defs>
        <path id="DejaVuSans-2e" d="M 684 794 
L 1344 794 
L 1344 0 
L 684 0 
L 684 794 
z
" transform="scale(0.015625)"/>
        <path id="DejaVuSans-37" d="M 525 4666 
L 3525 4666 
L 3525 4397 
L 1831 0 
L 1172 0 
L 2766 4134 
L 525 4134 
L 525 4666 
z
" transform="scale(0.015625)"/>
       </defs>
       <use xlink:href="#DejaVuSans-30"/>
       <use xlink:href="#DejaVuSans-2e" x="63.623047"/>
       <use xlink:href="#DejaVuSans-37" x="95.410156"/>
       <use xlink:href="#DejaVuSans-32" x="159.033203"/>
      </g>
     </g>
    </g>
    <g id="ytick_2">
     <g id="line2d_8">
      <g>
       <use xlink:href="#m35b4280750" x="65.684" y="179.415898" style="stroke: #000000; stroke-width: 0.8"/>
      </g>
     </g>
     <g id="text_9">
      <!-- 0.74 -->
      <g transform="translate(36.418375 183.215117)scale(0.1 -0.1)">
       <use xlink:href="#DejaVuSans-30"/>
       <use xlink:href="#DejaVuSans-2e" x="63.623047"/>
       <use xlink:href="#DejaVuSans-37" x="95.410156"/>
       <use xlink:href="#DejaVuSans-34" x="159.033203"/>
      </g>
     </g>
    </g>
    <g id="ytick_3">
     <g id="line2d_9">
      <g>
       <use xlink:href="#m35b4280750" x="65.684" y="141.4815" style="stroke: #000000; stroke-width: 0.8"/>
      </g>
     </g>
     <g id="text_10">
      <!-- 0.76 -->
      <g transform="translate(36.418375 145.280719)scale(0.1 -0.1)">
       <use xlink:href="#DejaVuSans-30"/>
       <use xlink:href="#DejaVuSans-2e" x="63.623047"/>
       <use xlink:href="#DejaVuSans-37" x="95.410156"/>
       <use xlink:href="#DejaVuSans-36" x="159.033203"/>
      </g>
     </g>
    </g>
    <g id="ytick_4">
     <g id="line2d_10">
      <g>
       <use xlink:href="#m35b4280750" x="65.684" y="103.547103" style="stroke: #000000; stroke-width: 0.8"/>
      </g>
     </g>
     <g id="text_11">
      <!-- 0.78 -->
      <g transform="translate(36.418375 107.346321)scale(0.1 -0.1)">
       <use xlink:href="#DejaVuSans-30"/>
       <use xlink:href="#DejaVuSans-2e" x="63.623047"/>
       <use xlink:href="#DejaVuSans-37" x="95.410156"/>
       <use xlink:href="#DejaVuSans-38" x="159.033203"/>
      </g>
     </g>
    </g>
    <g id="ytick_5">
     <g id="line2d_11">
      <g>
       <use xlink:href="#m35b4280750" x="65.684" y="65.612705" style="stroke: #000000; stroke-width: 0.8"/>
      </g>
     </g>
     <g id="text_12">
      <!-- 0.80 -->
      <g transform="translate(36.418375 69.411923)scale(0.1 -0.1)">
       <use xlink:href="#DejaVuSans-30"/>
       <use xlink:href="#DejaVuSans-2e" x="63.623047"/>
       <use xlink:href="#DejaVuSans-38" x="95.410156"/>
       <use xlink:href="#DejaVuSans-30" x="159.033203"/>
      </g>
     </g>
    </g>
    <g id="ytick_6">
     <g id="line2d_12">
      <g>
       <use xlink:href="#m35b4280750" x="65.684" y="27.678307" style="stroke: #000000; stroke-width: 0.8"/>
      </g>
     </g>
     <g id="text_13">
      <!-- 0.82 -->
      <g transform="translate(36.418375 31.477526)scale(0.1 -0.1)">
       <use xlink:href="#DejaVuSans-30"/>
       <use xlink:href="#DejaVuSans-2e" x="63.623047"/>
       <use xlink:href="#DejaVuSans-38" x="95.410156"/>
       <use xlink:href="#DejaVuSans-32" x="159.033203"/>
      </g>
     </g>
    </g>
    <g id="text_14">
     <!-- System-level macro F1, -->
     <g transform="translate(19.140875 187.27)rotate(-90)scale(0.1 -0.1)">
      <defs>
       <path id="DejaVuSans-2d" d="M 313 2009 
L 1997 2009 
L 1997 1497 
L 313 1497 
L 313 2009 
z
" transform="scale(0.015625)"/>
       <path id="DejaVuSans-76" d="M 191 3500 
L 800 3500 
L 1894 563 
L 2988 3500 
L 3597 3500 
L 2284 0 
L 1503 0 
L 191 3500 
z
" transform="scale(0.015625)"/>
       <path id="DejaVuSans-46" d="M 628 4666 
L 3309 4666 
L 3309 4134 
L 1259 4134 
L 1259 2759 
L 3109 2759 
L 3109 2228 
L 1259 2228 
L 1259 0 
L 628 0 
L 628 4666 
z
" transform="scale(0.015625)"/>
       <path id="DejaVuSans-2c" d="M 750 794 
L 1409 794 
L 1409 256 
L 897 -744 
L 494 -744 
L 750 256 
L 750 794 
z
" transform="scale(0.015625)"/>
      </defs>
      <use xlink:href="#DejaVuSans-53"/>
      <use xlink:href="#DejaVuSans-79" x="63.476562"/>
      <use xlink:href="#DejaVuSans-73" x="122.65625"/>
      <use xlink:href="#DejaVuSans-74" x="174.755859"/>
      <use xlink:href="#DejaVuSans-65" x="213.964844"/>
      <use xlink:href="#DejaVuSans-6d" x="275.488281"/>
      <use xlink:href="#DejaVuSans-2d" x="372.900391"/>
      <use xlink:href="#DejaVuSans-6c" x="408.984375"/>
      <use xlink:href="#DejaVuSans-65" x="436.767578"/>
      <use xlink:href="#DejaVuSans-76" x="498.291016"/>
      <use xlink:href="#DejaVuSans-65" x="557.470703"/>
      <use xlink:href="#DejaVuSans-6c" x="618.994141"/>
      <use xlink:href="#DejaVuSans-20" x="646.777344"/>
      <use xlink:href="#DejaVuSans-6d" x="678.564453"/>
      <use xlink:href="#DejaVuSans-61" x="775.976562"/>
      <use xlink:href="#DejaVuSans-63" x="837.255859"/>
      <use xlink:href="#DejaVuSans-72" x="892.236328"/>
      <use xlink:href="#DejaVuSans-6f" x="931.099609"/>
      <use xlink:href="#DejaVuSans-20" x="992.28125"/>
      <use xlink:href="#DejaVuSans-46" x="1024.068359"/>
      <use xlink:href="#DejaVuSans-31" x="1081.587891"/>
      <use xlink:href="#DejaVuSans-2c" x="1145.210938"/>
     </g>
     <!--  without 2nd-level supervision -->
     <g transform="translate(30.338688 203.85125)rotate(-90)scale(0.1 -0.1)">
      <defs>
       <path id="DejaVuSans-77" d="M 269 3500 
L 844 3500 
L 1563 769 
L 2278 3500 
L 2956 3500 
L 3675 769 
L 4391 3500 
L 4966 3500 
L 4050 0 
L 3372 0 
L 2619 2869 
L 1863 0 
L 1184 0 
L 269 3500 
z
" transform="scale(0.015625)"/>
       <path id="DejaVuSans-68" d="M 3513 2113 
L 3513 0 
L 2938 0 
L 2938 2094 
Q 2938 2591 2744 2837 
Q 2550 3084 2163 3084 
Q 1697 3084 1428 2787 
Q 1159 2491 1159 1978 
L 1159 0 
L 581 0 
L 581 4863 
L 1159 4863 
L 1159 2956 
Q 1366 3272 1645 3428 
Q 1925 3584 2291 3584 
Q 2894 3584 3203 3211 
Q 3513 2838 3513 2113 
z
" transform="scale(0.015625)"/>
       <path id="DejaVuSans-75" d="M 544 1381 
L 544 3500 
L 1119 3500 
L 1119 1403 
Q 1119 906 1312 657 
Q 1506 409 1894 409 
Q 2359 409 2629 706 
Q 2900 1003 2900 1516 
L 2900 3500 
L 3475 3500 
L 3475 0 
L 2900 0 
L 2900 538 
Q 2691 219 2414 64 
Q 2138 -91 1772 -91 
Q 1169 -91 856 284 
Q 544 659 544 1381 
z
M 1991 3584 
L 1991 3584 
z
" transform="scale(0.015625)"/>
      </defs>
      <use xlink:href="#DejaVuSans-20"/>
      <use xlink:href="#DejaVuSans-77" x="31.787109"/>
      <use xlink:href="#DejaVuSans-69" x="113.574219"/>
      <use xlink:href="#DejaVuSans-74" x="141.357422"/>
      <use xlink:href="#DejaVuSans-68" x="180.566406"/>
      <use xlink:href="#DejaVuSans-6f" x="243.945312"/>
      <use xlink:href="#DejaVuSans-75" x="305.126953"/>
      <use xlink:href="#DejaVuSans-74" x="368.505859"/>
      <use xlink:href="#DejaVuSans-20" x="407.714844"/>
      <use xlink:href="#DejaVuSans-32" x="439.501953"/>
      <use xlink:href="#DejaVuSans-6e" x="503.125"/>
      <use xlink:href="#DejaVuSans-64" x="566.503906"/>
      <use xlink:href="#DejaVuSans-2d" x="629.980469"/>
      <use xlink:href="#DejaVuSans-6c" x="666.064453"/>
      <use xlink:href="#DejaVuSans-65" x="693.847656"/>
      <use xlink:href="#DejaVuSans-76" x="755.371094"/>
      <use xlink:href="#DejaVuSans-65" x="814.550781"/>
      <use xlink:href="#DejaVuSans-6c" x="876.074219"/>
      <use xlink:href="#DejaVuSans-20" x="903.857422"/>
      <use xlink:href="#DejaVuSans-73" x="935.644531"/>
      <use xlink:href="#DejaVuSans-75" x="987.744141"/>
      <use xlink:href="#DejaVuSans-70" x="1051.123047"/>
      <use xlink:href="#DejaVuSans-65" x="1114.599609"/>
      <use xlink:href="#DejaVuSans-72" x="1176.123047"/>
      <use xlink:href="#DejaVuSans-76" x="1217.236328"/>
      <use xlink:href="#DejaVuSans-69" x="1276.416016"/>
      <use xlink:href="#DejaVuSans-73" x="1304.199219"/>
      <use xlink:href="#DejaVuSans-69" x="1356.298828"/>
      <use xlink:href="#DejaVuSans-6f" x="1384.082031"/>
      <use xlink:href="#DejaVuSans-6e" x="1445.263672"/>
     </g>
    </g>
   </g>
   <g id="line2d_13">
    <path d="M 81.843818 235.347273 
L 82.167015 234.761068 
L 83.136604 232.24009 
L 83.4598 231.744724 
L 84.106193 230.216142 
L 84.752585 228.294533 
L 85.398978 226.912793 
L 86.368567 225.022624 
L 86.691764 224.519183 
L 87.338156 222.986398 
L 87.661353 222.555467 
L 88.630942 219.965475 
L 88.954138 219.502647 
L 90.893316 215.315048 
L 91.216513 215.08802 
L 91.862905 213.506334 
L 92.509298 212.360926 
L 92.832495 212.296024 
L 93.155691 211.244742 
L 93.802084 210.093349 
L 94.12528 209.294227 
L 94.448476 209.031062 
L 94.771673 209.031062 
L 95.741262 206.957029 
L 96.387655 205.879727 
L 97.034047 204.762826 
L 97.357244 203.817146 
L 97.68044 203.475128 
L 98.003636 202.413882 
L 98.326833 202.013563 
L 98.650029 202.013563 
L 99.296422 200.334562 
L 99.942815 199.180244 
L 100.266011 198.286202 
L 100.912404 197.110194 
L 103.497975 191.671082 
L 103.821171 190.721468 
L 104.467564 189.974416 
L 105.437153 189.974416 
L 105.760349 187.835234 
L 107.376331 183.799918 
L 107.699527 183.443071 
L 108.669116 181.453914 
L 109.961902 178.361253 
L 110.285098 178.097421 
L 111.254687 176.324829 
L 111.577884 176.104134 
L 111.90108 175.49423 
L 112.547473 175.215381 
L 114.163455 175.215381 
L 114.486651 172.642604 
L 118.041811 166.012188 
L 118.365007 165.239872 
L 118.688204 164.850634 
L 120.304185 161.769342 
L 120.627382 161.239257 
L 120.950578 160.441568 
L 121.273775 160.140999 
L 121.920167 158.69902 
L 122.243364 158.374397 
L 123.536149 156.178452 
L 124.505738 154.404632 
L 127.091309 150.365388 
L 128.060898 148.737631 
L 129.030487 147.74385 
L 130.000076 145.725661 
L 130.323273 145.411389 
L 131.292862 143.89634 
L 131.616058 143.430564 
L 131.939255 142.682227 
L 132.908844 141.501332 
L 133.23204 140.765031 
L 133.555236 140.451329 
L 134.201629 138.972785 
L 135.817611 136.602319 
L 136.140807 136.459054 
L 137.110396 135.33202 
L 138.079985 133.570662 
L 138.403182 132.919848 
L 139.695967 132.882841 
L 140.019164 131.233646 
L 140.988753 130.145322 
L 142.281538 127.888626 
L 142.927931 127.180751 
L 143.89752 125.759 
L 144.543913 124.627713 
L 145.513502 122.862287 
L 146.159895 122.087308 
L 147.45268 119.622795 
L 147.775876 119.537318 
L 148.422269 118.871269 
L 149.068662 118.020366 
L 149.715055 117.148932 
L 150.038251 117.098947 
L 150.684644 115.994717 
L 151.00784 115.839376 
L 151.331036 115.522509 
L 152.300625 113.714792 
L 152.623822 113.347034 
L 153.270215 112.418917 
L 153.593411 112.239077 
L 154.239804 111.012986 
L 154.563 110.70397 
L 155.532589 108.821442 
L 157.794964 106.229215 
L 158.11816 106.152315 
L 158.441356 105.669847 
L 158.764553 104.947062 
L 159.087749 104.744193 
L 160.057338 103.413396 
L 161.67332 101.46099 
L 161.996516 100.775045 
L 163.289302 99.124355 
L 164.258891 97.586344 
L 165.874873 95.859368 
L 166.198069 95.848144 
L 169.430033 92.033237 
L 169.753229 91.828844 
L 170.076425 91.414967 
L 170.722818 90.943467 
L 171.046015 90.494673 
L 171.369211 90.246568 
L 171.692407 89.62787 
L 172.3388 88.841105 
L 173.631585 87.278247 
L 174.277978 86.668849 
L 174.924371 85.803637 
L 175.570764 85.199712 
L 176.863549 83.891097 
L 178.479531 81.592237 
L 178.802727 81.55739 
L 179.125924 81.249801 
L 179.44912 80.756882 
L 179.772316 79.988527 
L 180.095513 79.985195 
L 180.741905 79.719396 
L 181.065102 78.995371 
L 181.388298 78.980878 
L 182.034691 78.46396 
L 182.357887 78.231941 
L 182.681084 78.165427 
L 183.327476 77.54888 
L 183.650673 76.981303 
L 183.973869 76.679648 
L 184.297065 76.796424 
L 185.913047 75.229982 
L 186.236244 74.758619 
L 188.175422 73.620506 
L 188.498618 72.950377 
L 188.821815 72.802337 
L 189.468207 71.813171 
L 189.791404 71.268 
L 190.1146 70.966545 
L 190.437796 70.825744 
L 191.084189 70.302745 
L 191.730582 70.060453 
L 192.376975 69.531972 
L 193.023367 68.676369 
L 193.346564 68.315125 
L 193.66976 68.305653 
L 194.962545 67.009516 
L 197.548116 65.407715 
L 197.871313 65.341625 
L 198.840902 64.379028 
L 199.164098 64.306524 
L 199.810491 63.456258 
L 200.456884 62.973968 
L 201.103276 62.384134 
L 201.426473 61.770188 
L 201.749669 61.786356 
L 202.072865 61.658711 
L 202.396062 61.265573 
L 203.365651 60.918257 
L 203.688847 60.730968 
L 204.33524 59.940365 
L 205.304829 59.913073 
L 205.951222 59.534105 
L 206.274418 59.128375 
L 207.567204 58.242647 
L 208.213596 57.472977 
L 208.859989 57.443072 
L 210.152775 56.380234 
L 210.799167 55.868877 
L 211.122364 55.693625 
L 211.44556 54.934663 
L 212.415149 54.269484 
L 212.738345 54.064137 
L 213.061542 54.131829 
L 213.707935 53.858743 
L 214.031131 53.54926 
L 215.00072 53.146846 
L 215.647113 52.495332 
L 215.970309 52.301605 
L 216.616702 52.444216 
L 216.939898 52.374478 
L 217.909487 51.471357 
L 218.232684 51.488104 
L 218.879076 51.082402 
L 219.202273 51.159887 
L 219.525469 50.863535 
L 220.171862 50.636827 
L 220.495058 50.294484 
L 221.141451 50.033065 
L 222.11104 49.540197 
L 222.757433 49.13924 
L 223.080629 48.709045 
L 223.403825 48.689465 
L 224.050218 48.272558 
L 224.373415 48.298938 
L 225.019807 47.956318 
L 225.343004 47.525675 
L 225.6662 47.562218 
L 225.989396 47.374759 
L 226.312593 47.410911 
L 227.605378 46.970557 
L 227.928575 47.038632 
L 228.898164 46.610794 
L 229.22136 46.591891 
L 229.544556 46.352198 
L 229.867753 46.339024 
L 230.190949 46.028371 
L 230.837342 45.880681 
L 231.160538 46.079931 
L 231.806931 45.894598 
L 232.453324 45.388502 
L 233.422913 45.12171 
L 233.746109 44.915325 
L 234.715698 44.759029 
L 236.654876 43.892962 
L 237.301269 43.720713 
L 238.270858 43.108846 
L 239.563644 42.611472 
L 239.88684 42.354539 
L 241.502822 42.250343 
L 242.149215 42.020356 
L 243.765196 41.453294 
L 245.057982 40.779575 
L 246.027571 40.616417 
L 246.350767 40.251526 
L 246.99716 39.883623 
L 247.320356 39.943431 
L 247.643553 39.73645 
L 248.289945 39.548742 
L 249.259535 39.25052 
L 249.905927 39.23666 
L 250.55232 38.699101 
L 251.198713 38.534571 
L 251.521909 38.421224 
L 251.845105 38.105334 
L 252.168302 38.111532 
L 252.814695 37.618662 
L 253.784284 36.991144 
L 256.369855 36.593336 
L 256.693051 36.415963 
L 257.016247 36.407609 
L 257.66264 36.107153 
L 257.985836 36.157003 
L 258.632229 35.743107 
L 261.2178 34.728042 
L 261.540996 34.385446 
L 262.187389 34.31009 
L 262.833782 34.407851 
L 263.156978 34.137104 
L 263.480175 34.267514 
L 263.803371 34.199544 
L 264.126567 34.33206 
L 264.77296 33.922282 
L 265.096156 33.818624 
L 265.419353 33.552698 
L 266.712138 33.483718 
L 267.035335 33.3109 
L 267.358531 33.320105 
L 268.004924 32.937746 
L 268.32812 33.000066 
L 268.651316 32.911363 
L 268.974513 33.034828 
L 269.297709 32.829791 
L 269.620905 32.782529 
L 270.267298 32.495353 
L 271.88328 32.388696 
L 272.206476 32.29064 
L 272.529673 32.330138 
L 273.176065 32.137056 
L 273.822458 32.16605 
L 274.145655 32.019879 
L 274.468851 32.0693 
L 276.408029 31.455844 
L 277.377618 31.094688 
L 278.347207 30.962109 
L 278.670404 30.723047 
L 282.225564 29.980169 
L 282.54876 29.980842 
L 282.871956 29.795856 
L 283.518349 29.755445 
L 284.164742 29.392866 
L 284.487938 29.309254 
L 285.134331 28.927736 
L 285.780724 28.807618 
L 286.10392 28.575082 
L 288.043098 28.464382 
L 288.366295 28.315985 
L 288.689491 28.340718 
L 289.335884 28.178978 
L 289.65908 28.241081 
L 290.305473 27.991249 
L 290.951865 28.067019 
L 291.275062 27.926211 
L 291.921455 27.92277 
L 292.891044 28.138015 
L 293.537436 28.08408 
L 293.860633 28.082054 
L 294.830222 27.834201 
L 295.799811 27.632259 
L 297.415793 27.352045 
L 298.062185 27.513049 
L 298.385382 27.355469 
L 299.031775 27.519613 
L 299.354971 27.42892 
L 299.678167 27.204851 
L 302.910131 26.626524 
L 305.818898 25.866663 
L 306.142095 25.673095 
L 306.465291 25.716786 
L 306.788487 25.337677 
L 307.758076 25.133233 
L 308.727665 25.191154 
L 310.020451 24.991899 
L 310.343647 25.116715 
L 310.99004 24.962133 
L 311.313236 24.921863 
L 311.636433 24.997058 
L 311.959629 24.928802 
L 312.282825 25.046962 
L 312.606022 24.970656 
L 312.929218 25.040284 
L 313.252415 24.871112 
L 313.898807 24.893742 
L 314.5452 24.896038 
L 315.514789 24.742185 
L 317.130771 24.743525 
L 317.453967 24.801505 
L 317.777164 24.632882 
L 318.10036 24.665168 
L 318.423556 24.837204 
L 319.716342 24.617531 
L 320.685931 24.529842 
L 321.009127 24.347773 
L 323.271502 24.241959 
L 324.887484 24.029427 
L 327.149858 24.057658 
L 327.473055 24.152142 
L 328.119447 24.075748 
L 328.76584 24.217737 
L 329.735429 24.150555 
L 330.705018 24.00121 
L 331.351411 24.01949 
L 331.997804 23.785296 
L 332.644196 23.725831 
L 333.290589 23.540948 
L 333.936982 23.650445 
L 334.583375 23.612667 
L 336.199356 23.42438 
L 337.492142 23.253797 
L 339.43132 23.410891 
L 339.754516 23.284775 
L 340.400909 23.278895 
L 340.724105 23.169122 
L 341.370498 23.20369 
L 342.016891 23.097029 
L 343.309676 23.219058 
L 344.279265 23.067253 
L 344.925658 23.215653 
L 345.248855 23.019561 
L 346.218444 23.038321 
L 348.480818 23.014741 
L 349.127211 22.855003 
L 353.975156 22.838525 
L 354.298353 22.714646 
L 355.267942 22.603996 
L 355.591138 22.520056 
L 355.914335 22.606376 
L 356.883924 22.439751 
L 358.176709 22.642092 
L 360.439084 22.550066 
L 366.256618 22.138371 
L 367.549404 22.326302 
L 368.842189 22.274988 
L 369.488582 22.181825 
L 370.134975 22.205875 
L 372.397349 22.017139 
L 376.922098 21.927012 
L 377.568491 21.8582 
L 380.154062 21.788587 
L 382.739633 21.519061 
L 386.941185 21.610728 
L 387.910775 21.723056 
L 389.526756 21.73958 
L 395.990684 21.668729 
L 396.960273 21.627891 
L 405.040182 21.601399 
L 405.040182 21.601399 
" clip-path="url(#p3f312b81f7)" style="fill: none; stroke: #1f77b4; stroke-width: 1.5; stroke-linecap: square"/>
   </g>
   <g id="line2d_14">
    <path d="M 81.843818 235.347273 
L 405.040182 21.601399 
" clip-path="url(#p3f312b81f7)" style="fill: none; stroke-dasharray: 5.55,2.4; stroke-dashoffset: 0; stroke: #ff7f0e; stroke-width: 1.5"/>
   </g>
   <g id="line2d_15">
    <defs>
     <path id="m82ab17a92b" d="M 0 3 
C 0.795609 3 1.55874 2.683901 2.12132 2.12132 
C 2.683901 1.55874 3 0.795609 3 0 
C 3 -0.795609 2.683901 -1.55874 2.12132 -2.12132 
C 1.55874 -2.683901 0.795609 -3 0 -3 
C -0.795609 -3 -1.55874 -2.683901 -2.12132 -2.12132 
C -2.683901 -1.55874 -3 -0.795609 -3 0 
C -3 0.795609 -2.683901 1.55874 -2.12132 2.12132 
C -1.55874 2.683901 -0.795609 3 0 3 
z
" style="stroke: #ff0000"/>
    </defs>
    <g clip-path="url(#p3f312b81f7)">
     <use xlink:href="#m82ab17a92b" x="178.802727" y="81.55739" style="fill: #ff0000; stroke: #ff0000"/>
    </g>
   </g>
   <g id="line2d_16">
    <g clip-path="url(#p3f312b81f7)">
     <use xlink:href="#m82ab17a92b" x="243.442" y="41.597585" style="fill: #ff0000; stroke: #ff0000"/>
    </g>
   </g>
   <g id="line2d_17">
    <g clip-path="url(#p3f312b81f7)">
     <use xlink:href="#m82ab17a92b" x="308.081273" y="25.17348" style="fill: #ff0000; stroke: #ff0000"/>
    </g>
   </g>
   <g id="patch_3">
    <path d="M 65.684 246.04 
L 65.684 10.8 
" style="fill: none; stroke: #000000; stroke-width: 0.8; stroke-linejoin: miter; stroke-linecap: square"/>
   </g>
   <g id="patch_4">
    <path d="M 421.2 246.04 
L 421.2 10.8 
" style="fill: none; stroke: #000000; stroke-width: 0.8; stroke-linejoin: miter; stroke-linecap: square"/>
   </g>
   <g id="patch_5">
    <path d="M 65.684 246.04 
L 421.2 246.04 
" style="fill: none; stroke: #000000; stroke-width: 0.8; stroke-linejoin: miter; stroke-linecap: square"/>
   </g>
   <g id="patch_6">
    <path d="M 65.684 10.8 
L 421.2 10.8 
" style="fill: none; stroke: #000000; stroke-width: 0.8; stroke-linejoin: miter; stroke-linecap: square"/>
   </g>
   <g id="patch_7">
    <path d="M 386.040373 55.777701 
Q 395.054382 39.563565 403.525141 24.32661 
" style="fill: none; stroke: #000000; stroke-linecap: round"/>
    <path d="M 399.833523 26.850883 
L 403.525141 24.32661 
L 403.329588 28.794469 
" style="fill: none; stroke: #000000; stroke-linecap: round"/>
   </g>
   <g id="text_15">
    <!-- Only remote -->
    <g transform="translate(344.012057 67.126087)scale(0.1 -0.1)">
     <defs>
      <path id="DejaVuSans-4f" d="M 2522 4238 
Q 1834 4238 1429 3725 
Q 1025 3213 1025 2328 
Q 1025 1447 1429 934 
Q 1834 422 2522 422 
Q 3209 422 3611 934 
Q 4013 1447 4013 2328 
Q 4013 3213 3611 3725 
Q 3209 4238 2522 4238 
z
M 2522 4750 
Q 3503 4750 4090 4092 
Q 4678 3434 4678 2328 
Q 4678 1225 4090 567 
Q 3503 -91 2522 -91 
Q 1538 -91 948 565 
Q 359 1222 359 2328 
Q 359 3434 948 4092 
Q 1538 4750 2522 4750 
z
" transform="scale(0.015625)"/>
     </defs>
     <use xlink:href="#DejaVuSans-4f"/>
     <use xlink:href="#DejaVuSans-6e" x="78.710938"/>
     <use xlink:href="#DejaVuSans-6c" x="142.089844"/>
     <use xlink:href="#DejaVuSans-79" x="169.873047"/>
     <use xlink:href="#DejaVuSans-20" x="229.052734"/>
     <use xlink:href="#DejaVuSans-72" x="260.839844"/>
     <use xlink:href="#DejaVuSans-65" x="299.703125"/>
     <use xlink:href="#DejaVuSans-6d" x="361.226562"/>
     <use xlink:href="#DejaVuSans-6f" x="458.638672"/>
     <use xlink:href="#DejaVuSans-74" x="519.820312"/>
     <use xlink:href="#DejaVuSans-65" x="559.029297"/>
    </g>
    <!-- predictions -->
    <g transform="translate(347.351901 78.323899)scale(0.1 -0.1)">
     <use xlink:href="#DejaVuSans-70"/>
     <use xlink:href="#DejaVuSans-72" x="63.476562"/>
     <use xlink:href="#DejaVuSans-65" x="102.339844"/>
     <use xlink:href="#DejaVuSans-64" x="163.863281"/>
     <use xlink:href="#DejaVuSans-69" x="227.339844"/>
     <use xlink:href="#DejaVuSans-63" x="255.123047"/>
     <use xlink:href="#DejaVuSans-74" x="310.103516"/>
     <use xlink:href="#DejaVuSans-69" x="349.3125"/>
     <use xlink:href="#DejaVuSans-6f" x="377.095703"/>
     <use xlink:href="#DejaVuSans-6e" x="438.277344"/>
     <use xlink:href="#DejaVuSans-73" x="501.65625"/>
    </g>
    <!-- (100% / 0.823) -->
    <g transform="translate(337.667526 89.521712)scale(0.1 -0.1)">
     <defs>
      <path id="DejaVuSans-2f" d="M 1625 4666 
L 2156 4666 
L 531 -594 
L 0 -594 
L 1625 4666 
z
" transform="scale(0.015625)"/>
      <path id="DejaVuSans-33" d="M 2597 2516 
Q 3050 2419 3304 2112 
Q 3559 1806 3559 1356 
Q 3559 666 3084 287 
Q 2609 -91 1734 -91 
Q 1441 -91 1130 -33 
Q 819 25 488 141 
L 488 750 
Q 750 597 1062 519 
Q 1375 441 1716 441 
Q 2309 441 2620 675 
Q 2931 909 2931 1356 
Q 2931 1769 2642 2001 
Q 2353 2234 1838 2234 
L 1294 2234 
L 1294 2753 
L 1863 2753 
Q 2328 2753 2575 2939 
Q 2822 3125 2822 3475 
Q 2822 3834 2567 4026 
Q 2313 4219 1838 4219 
Q 1578 4219 1281 4162 
Q 984 4106 628 3988 
L 628 4550 
Q 988 4650 1302 4700 
Q 1616 4750 1894 4750 
Q 2613 4750 3031 4423 
Q 3450 4097 3450 3541 
Q 3450 3153 3228 2886 
Q 3006 2619 2597 2516 
z
" transform="scale(0.015625)"/>
     </defs>
     <use xlink:href="#DejaVuSans-28"/>
     <use xlink:href="#DejaVuSans-31" x="39.013672"/>
     <use xlink:href="#DejaVuSans-30" x="102.636719"/>
     <use xlink:href="#DejaVuSans-30" x="166.259766"/>
     <use xlink:href="#DejaVuSans-25" x="229.882812"/>
     <use xlink:href="#DejaVuSans-20" x="324.902344"/>
     <use xlink:href="#DejaVuSans-2f" x="356.689453"/>
     <use xlink:href="#DejaVuSans-20" x="390.380859"/>
     <use xlink:href="#DejaVuSans-30" x="422.167969"/>
     <use xlink:href="#DejaVuSans-2e" x="485.791016"/>
     <use xlink:href="#DejaVuSans-38" x="517.578125"/>
     <use xlink:href="#DejaVuSans-32" x="581.201172"/>
     <use xlink:href="#DejaVuSans-33" x="644.824219"/>
     <use xlink:href="#DejaVuSans-29" x="708.447266"/>
    </g>
   </g>
   <g id="patch_8">
    <path d="M 106.850285 232.831258 
Q 95.340656 233.989294 84.943444 235.035405 
" style="fill: none; stroke: #000000; stroke-linecap: round"/>
    <path d="M 89.123568 236.624922 
L 84.943444 235.035405 
L 88.723131 232.645016 
" style="fill: none; stroke: #000000; stroke-linecap: round"/>
   </g>
   <g id="text_16">
    <!-- Only local -->
    <g transform="translate(117.150849 220.87196)scale(0.1 -0.1)">
     <use xlink:href="#DejaVuSans-4f"/>
     <use xlink:href="#DejaVuSans-6e" x="78.710938"/>
     <use xlink:href="#DejaVuSans-6c" x="142.089844"/>
     <use xlink:href="#DejaVuSans-79" x="169.873047"/>
     <use xlink:href="#DejaVuSans-20" x="229.052734"/>
     <use xlink:href="#DejaVuSans-6c" x="260.839844"/>
     <use xlink:href="#DejaVuSans-6f" x="288.623047"/>
     <use xlink:href="#DejaVuSans-63" x="349.804688"/>
     <use xlink:href="#DejaVuSans-61" x="404.785156"/>
     <use xlink:href="#DejaVuSans-6c" x="466.064453"/>
    </g>
    <!-- predictions -->
    <g transform="translate(114.155537 232.069773)scale(0.1 -0.1)">
     <use xlink:href="#DejaVuSans-70"/>
     <use xlink:href="#DejaVuSans-72" x="63.476562"/>
     <use xlink:href="#DejaVuSans-65" x="102.339844"/>
     <use xlink:href="#DejaVuSans-64" x="163.863281"/>
     <use xlink:href="#DejaVuSans-69" x="227.339844"/>
     <use xlink:href="#DejaVuSans-63" x="255.123047"/>
     <use xlink:href="#DejaVuSans-74" x="310.103516"/>
     <use xlink:href="#DejaVuSans-69" x="349.3125"/>
     <use xlink:href="#DejaVuSans-6f" x="377.095703"/>
     <use xlink:href="#DejaVuSans-6e" x="438.277344"/>
     <use xlink:href="#DejaVuSans-73" x="501.65625"/>
    </g>
    <!-- (0% / 0.711) -->
    <g transform="translate(110.833662 243.267585)scale(0.1 -0.1)">
     <use xlink:href="#DejaVuSans-28"/>
     <use xlink:href="#DejaVuSans-30" x="39.013672"/>
     <use xlink:href="#DejaVuSans-25" x="102.636719"/>
     <use xlink:href="#DejaVuSans-20" x="197.65625"/>
     <use xlink:href="#DejaVuSans-2f" x="229.443359"/>
     <use xlink:href="#DejaVuSans-20" x="263.134766"/>
     <use xlink:href="#DejaVuSans-30" x="294.921875"/>
     <use xlink:href="#DejaVuSans-2e" x="358.544922"/>
     <use xlink:href="#DejaVuSans-37" x="390.332031"/>
     <use xlink:href="#DejaVuSans-31" x="453.955078"/>
     <use xlink:href="#DejaVuSans-31" x="517.578125"/>
     <use xlink:href="#DejaVuSans-29" x="581.201172"/>
    </g>
   </g>
   <g id="text_17">
    <!-- (30% / 0.792) -->
    <g transform="translate(144.611321 99.477702)scale(0.1 -0.1)">
     <defs>
      <path id="DejaVuSans-39" d="M 703 97 
L 703 672 
Q 941 559 1184 500 
Q 1428 441 1663 441 
Q 2288 441 2617 861 
Q 2947 1281 2994 2138 
Q 2813 1869 2534 1725 
Q 2256 1581 1919 1581 
Q 1219 1581 811 2004 
Q 403 2428 403 3163 
Q 403 3881 828 4315 
Q 1253 4750 1959 4750 
Q 2769 4750 3195 4129 
Q 3622 3509 3622 2328 
Q 3622 1225 3098 567 
Q 2575 -91 1691 -91 
Q 1453 -91 1209 -44 
Q 966 3 703 97 
z
M 1959 2075 
Q 2384 2075 2632 2365 
Q 2881 2656 2881 3163 
Q 2881 3666 2632 3958 
Q 2384 4250 1959 4250 
Q 1534 4250 1286 3958 
Q 1038 3666 1038 3163 
Q 1038 2656 1286 2365 
Q 1534 2075 1959 2075 
z
" transform="scale(0.015625)"/>
     </defs>
     <use xlink:href="#DejaVuSans-28"/>
     <use xlink:href="#DejaVuSans-33" x="39.013672"/>
     <use xlink:href="#DejaVuSans-30" x="102.636719"/>
     <use xlink:href="#DejaVuSans-25" x="166.259766"/>
     <use xlink:href="#DejaVuSans-20" x="261.279297"/>
     <use xlink:href="#DejaVuSans-2f" x="293.066406"/>
     <use xlink:href="#DejaVuSans-20" x="326.757812"/>
     <use xlink:href="#DejaVuSans-30" x="358.544922"/>
     <use xlink:href="#DejaVuSans-2e" x="422.167969"/>
     <use xlink:href="#DejaVuSans-37" x="453.955078"/>
     <use xlink:href="#DejaVuSans-39" x="517.578125"/>
     <use xlink:href="#DejaVuSans-32" x="581.201172"/>
     <use xlink:href="#DejaVuSans-29" x="644.824219"/>
    </g>
   </g>
   <g id="text_18">
    <!-- (50% / 0.813) -->
    <g transform="translate(209.250594 59.517897)scale(0.1 -0.1)">
     <defs>
      <path id="DejaVuSans-35" d="M 691 4666 
L 3169 4666 
L 3169 4134 
L 1269 4134 
L 1269 2991 
Q 1406 3038 1543 3061 
Q 1681 3084 1819 3084 
Q 2600 3084 3056 2656 
Q 3513 2228 3513 1497 
Q 3513 744 3044 326 
Q 2575 -91 1722 -91 
Q 1428 -91 1123 -41 
Q 819 9 494 109 
L 494 744 
Q 775 591 1075 516 
Q 1375 441 1709 441 
Q 2250 441 2565 725 
Q 2881 1009 2881 1497 
Q 2881 1984 2565 2268 
Q 2250 2553 1709 2553 
Q 1456 2553 1204 2497 
Q 953 2441 691 2322 
L 691 4666 
z
" transform="scale(0.015625)"/>
     </defs>
     <use xlink:href="#DejaVuSans-28"/>
     <use xlink:href="#DejaVuSans-35" x="39.013672"/>
     <use xlink:href="#DejaVuSans-30" x="102.636719"/>
     <use xlink:href="#DejaVuSans-25" x="166.259766"/>
     <use xlink:href="#DejaVuSans-20" x="261.279297"/>
     <use xlink:href="#DejaVuSans-2f" x="293.066406"/>
     <use xlink:href="#DejaVuSans-20" x="326.757812"/>
     <use xlink:href="#DejaVuSans-30" x="358.544922"/>
     <use xlink:href="#DejaVuSans-2e" x="422.167969"/>
     <use xlink:href="#DejaVuSans-38" x="453.955078"/>
     <use xlink:href="#DejaVuSans-31" x="517.578125"/>
     <use xlink:href="#DejaVuSans-33" x="581.201172"/>
     <use xlink:href="#DejaVuSans-29" x="644.824219"/>
    </g>
   </g>
   <g id="text_19">
    <!-- (70% / 0.821) -->
    <g transform="translate(273.889866 43.093792)scale(0.1 -0.1)">
     <use xlink:href="#DejaVuSans-28"/>
     <use xlink:href="#DejaVuSans-37" x="39.013672"/>
     <use xlink:href="#DejaVuSans-30" x="102.636719"/>
     <use xlink:href="#DejaVuSans-25" x="166.259766"/>
     <use xlink:href="#DejaVuSans-20" x="261.279297"/>
     <use xlink:href="#DejaVuSans-2f" x="293.066406"/>
     <use xlink:href="#DejaVuSans-20" x="326.757812"/>
     <use xlink:href="#DejaVuSans-30" x="358.544922"/>
     <use xlink:href="#DejaVuSans-2e" x="422.167969"/>
     <use xlink:href="#DejaVuSans-38" x="453.955078"/>
     <use xlink:href="#DejaVuSans-32" x="517.578125"/>
     <use xlink:href="#DejaVuSans-31" x="581.201172"/>
     <use xlink:href="#DejaVuSans-29" x="644.824219"/>
    </g>
   </g>
   <g id="text_20">
    <!-- AUC-RAC = 0.775 -->
    <g transform="translate(69.23916 20.750838)scale(0.1 -0.1)">
     <defs>
      <path id="DejaVuSans-41" d="M 2188 4044 
L 1331 1722 
L 3047 1722 
L 2188 4044 
z
M 1831 4666 
L 2547 4666 
L 4325 0 
L 3669 0 
L 3244 1197 
L 1141 1197 
L 716 0 
L 50 0 
L 1831 4666 
z
" transform="scale(0.015625)"/>
      <path id="DejaVuSans-55" d="M 556 4666 
L 1191 4666 
L 1191 1831 
Q 1191 1081 1462 751 
Q 1734 422 2344 422 
Q 2950 422 3222 751 
Q 3494 1081 3494 1831 
L 3494 4666 
L 4128 4666 
L 4128 1753 
Q 4128 841 3676 375 
Q 3225 -91 2344 -91 
Q 1459 -91 1007 375 
Q 556 841 556 1753 
L 556 4666 
z
" transform="scale(0.015625)"/>
      <path id="DejaVuSans-43" d="M 4122 4306 
L 4122 3641 
Q 3803 3938 3442 4084 
Q 3081 4231 2675 4231 
Q 1875 4231 1450 3742 
Q 1025 3253 1025 2328 
Q 1025 1406 1450 917 
Q 1875 428 2675 428 
Q 3081 428 3442 575 
Q 3803 722 4122 1019 
L 4122 359 
Q 3791 134 3420 21 
Q 3050 -91 2638 -91 
Q 1578 -91 968 557 
Q 359 1206 359 2328 
Q 359 3453 968 4101 
Q 1578 4750 2638 4750 
Q 3056 4750 3426 4639 
Q 3797 4528 4122 4306 
z
" transform="scale(0.015625)"/>
     </defs>
     <use xlink:href="#DejaVuSans-41"/>
     <use xlink:href="#DejaVuSans-55" x="68.408203"/>
     <use xlink:href="#DejaVuSans-43" x="141.601562"/>
     <use xlink:href="#DejaVuSans-2d" x="211.425781"/>
     <use xlink:href="#DejaVuSans-52" x="247.509766"/>
     <use xlink:href="#DejaVuSans-41" x="312.992188"/>
     <use xlink:href="#DejaVuSans-43" x="379.650391"/>
     <use xlink:href="#DejaVuSans-20" x="449.474609"/>
     <use xlink:href="#DejaVuSans-3d" x="481.261719"/>
     <use xlink:href="#DejaVuSans-20" x="565.050781"/>
     <use xlink:href="#DejaVuSans-30" x="596.837891"/>
     <use xlink:href="#DejaVuSans-2e" x="660.460938"/>
     <use xlink:href="#DejaVuSans-37" x="692.248047"/>
     <use xlink:href="#DejaVuSans-37" x="755.871094"/>
     <use xlink:href="#DejaVuSans-35" x="819.494141"/>
    </g>
   </g>
   <g id="legend_1">
    <g id="patch_9">
     <path d="M 253.009375 241.04 
L 414.2 241.04 
Q 416.2 241.04 416.2 239.04 
L 416.2 210.68375 
Q 416.2 208.68375 414.2 208.68375 
L 253.009375 208.68375 
Q 251.009375 208.68375 251.009375 210.68375 
L 251.009375 239.04 
Q 251.009375 241.04 253.009375 241.04 
z
" style="fill: #ffffff; opacity: 0.8; stroke: #cccccc; stroke-linejoin: miter"/>
    </g>
    <g id="line2d_18">
     <path d="M 255.009375 216.782187 
L 265.009375 216.782187 
L 275.009375 216.782187 
" style="fill: none; stroke: #1f77b4; stroke-width: 1.5; stroke-linecap: square"/>
    </g>
    <g id="text_21">
     <!-- BiSupervised -->
     <g transform="translate(283.009375 220.282187)scale(0.1 -0.1)">
      <defs>
       <path id="DejaVuSans-42" d="M 1259 2228 
L 1259 519 
L 2272 519 
Q 2781 519 3026 730 
Q 3272 941 3272 1375 
Q 3272 1813 3026 2020 
Q 2781 2228 2272 2228 
L 1259 2228 
z
M 1259 4147 
L 1259 2741 
L 2194 2741 
Q 2656 2741 2882 2914 
Q 3109 3088 3109 3444 
Q 3109 3797 2882 3972 
Q 2656 4147 2194 4147 
L 1259 4147 
z
M 628 4666 
L 2241 4666 
Q 2963 4666 3353 4366 
Q 3744 4066 3744 3513 
Q 3744 3084 3544 2831 
Q 3344 2578 2956 2516 
Q 3422 2416 3680 2098 
Q 3938 1781 3938 1306 
Q 3938 681 3513 340 
Q 3088 0 2303 0 
L 628 0 
L 628 4666 
z
" transform="scale(0.015625)"/>
      </defs>
      <use xlink:href="#DejaVuSans-42"/>
      <use xlink:href="#DejaVuSans-69" x="68.603516"/>
      <use xlink:href="#DejaVuSans-53" x="96.386719"/>
      <use xlink:href="#DejaVuSans-75" x="159.863281"/>
      <use xlink:href="#DejaVuSans-70" x="223.242188"/>
      <use xlink:href="#DejaVuSans-65" x="286.71875"/>
      <use xlink:href="#DejaVuSans-72" x="348.242188"/>
      <use xlink:href="#DejaVuSans-76" x="389.355469"/>
      <use xlink:href="#DejaVuSans-69" x="448.535156"/>
      <use xlink:href="#DejaVuSans-73" x="476.318359"/>
      <use xlink:href="#DejaVuSans-65" x="528.417969"/>
      <use xlink:href="#DejaVuSans-64" x="589.941406"/>
     </g>
    </g>
    <g id="line2d_19">
     <path d="M 255.009375 231.460312 
L 265.009375 231.460312 
L 275.009375 231.460312 
" style="fill: none; stroke-dasharray: 5.55,2.4; stroke-dashoffset: 0; stroke: #ff7f0e; stroke-width: 1.5"/>
    </g>
    <g id="text_22">
     <!-- Random (expected value) -->
     <g transform="translate(283.009375 234.960312)scale(0.1 -0.1)">
      <defs>
       <path id="DejaVuSans-78" d="M 3513 3500 
L 2247 1797 
L 3578 0 
L 2900 0 
L 1881 1375 
L 863 0 
L 184 0 
L 1544 1831 
L 300 3500 
L 978 3500 
L 1906 2253 
L 2834 3500 
L 3513 3500 
z
" transform="scale(0.015625)"/>
      </defs>
      <use xlink:href="#DejaVuSans-52"/>
      <use xlink:href="#DejaVuSans-61" x="67.232422"/>
      <use xlink:href="#DejaVuSans-6e" x="128.511719"/>
      <use xlink:href="#DejaVuSans-64" x="191.890625"/>
      <use xlink:href="#DejaVuSans-6f" x="255.367188"/>
      <use xlink:href="#DejaVuSans-6d" x="316.548828"/>
      <use xlink:href="#DejaVuSans-20" x="413.960938"/>
      <use xlink:href="#DejaVuSans-28" x="445.748047"/>
      <use xlink:href="#DejaVuSans-65" x="484.761719"/>
      <use xlink:href="#DejaVuSans-78" x="544.535156"/>
      <use xlink:href="#DejaVuSans-70" x="603.714844"/>
      <use xlink:href="#DejaVuSans-65" x="667.191406"/>
      <use xlink:href="#DejaVuSans-63" x="728.714844"/>
      <use xlink:href="#DejaVuSans-74" x="783.695312"/>
      <use xlink:href="#DejaVuSans-65" x="822.904297"/>
      <use xlink:href="#DejaVuSans-64" x="884.427734"/>
      <use xlink:href="#DejaVuSans-20" x="947.904297"/>
      <use xlink:href="#DejaVuSans-76" x="979.691406"/>
      <use xlink:href="#DejaVuSans-61" x="1038.871094"/>
      <use xlink:href="#DejaVuSans-6c" x="1100.150391"/>
      <use xlink:href="#DejaVuSans-75" x="1127.933594"/>
      <use xlink:href="#DejaVuSans-65" x="1191.3125"/>
      <use xlink:href="#DejaVuSans-29" x="1252.835938"/>
     </g>
    </g>
   </g>
  </g>
 </g>
 <defs>
  <clipPath id="p3f312b81f7">
   <rect x="65.684" y="10.8" width="355.516" height="235.24"/>
  </clipPath>
 </defs>
</svg>
