<?xml version="1.0" encoding="utf-8" standalone="no"?>
<!DOCTYPE svg PUBLIC "-//W3C//DTD SVG 1.1//EN"
  "http://www.w3.org/Graphics/SVG/1.1/DTD/svg11.dtd">
<svg xmlns:xlink="http://www.w3.org/1999/xlink" width="432pt" height="288pt" viewBox="0 0 432 288" xmlns="http://www.w3.org/2000/svg" version="1.1">
 <metadata>
  <rdf:RDF xmlns:dc="http://purl.org/dc/elements/1.1/" xmlns:cc="http://creativecommons.org/ns#" xmlns:rdf="http://www.w3.org/1999/02/22-rdf-syntax-ns#">
   <cc:Work>
    <dc:type rdf:resource="http://purl.org/dc/dcmitype/StillImage"/>
    <dc:date>2023-01-19T13:45:48.570706</dc:date>
    <dc:format>image/svg+xml</dc:format>
    <dc:creator>
     <cc:Agent>
      <dc:title>Matplotlib v3.5.2, https://matplotlib.org/</dc:title>
     </cc:Agent>
    </dc:creator>
   </cc:Work>
  </rdf:RDF>
 </metadata>
 <defs>
  <style type="text/css">*{stroke-linejoin: round; stroke-linecap: butt}</style>
 </defs>
 <g id="figure_1">
  <g id="patch_1">
   <path d="M 0 288 
L 432 288 
L 432 0 
L 0 0 
z
" style="fill: #ffffff"/>
  </g>
  <g id="axes_1">
   <g id="patch_2">
    <path d="M 65.774 246.04 
L 421.2 246.04 
L 421.2 10.8 
L 65.774 10.8 
z
" style="fill: #ffffff"/>
   </g>
   <g id="matplotlib.axis_1">
    <g id="xtick_1">
     <g id="line2d_1">
      <defs>
       <path id="m1b66692ad1" d="M 0 0 
L 0 3.5 
" style="stroke: #000000; stroke-width: 0.8"/>
      </defs>
      <g>
       <use xlink:href="#m1b66692ad1" x="81.929727" y="246.04" style="stroke: #000000; stroke-width: 0.8"/>
      </g>
     </g>
     <g id="text_1">
      <!-- 0% -->
      <g transform="translate(73.997696 260.638438)scale(0.1 -0.1)">
       <defs>
        <path id="DejaVuSans-30" d="M 2034 4250 
Q 1547 4250 1301 3770 
Q 1056 3291 1056 2328 
Q 1056 1369 1301 889 
Q 1547 409 2034 409 
Q 2525 409 2770 889 
Q 3016 1369 3016 2328 
Q 3016 3291 2770 3770 
Q 2525 4250 2034 4250 
z
M 2034 4750 
Q 2819 4750 3233 4129 
Q 3647 3509 3647 2328 
Q 3647 1150 3233 529 
Q 2819 -91 2034 -91 
Q 1250 -91 836 529 
Q 422 1150 422 2328 
Q 422 3509 836 4129 
Q 1250 4750 2034 4750 
z
" transform="scale(0.015625)"/>
        <path id="DejaVuSans-25" d="M 4653 2053 
Q 4381 2053 4226 1822 
Q 4072 1591 4072 1178 
Q 4072 772 4226 539 
Q 4381 306 4653 306 
Q 4919 306 5073 539 
Q 5228 772 5228 1178 
Q 5228 1588 5073 1820 
Q 4919 2053 4653 2053 
z
M 4653 2450 
Q 5147 2450 5437 2106 
Q 5728 1763 5728 1178 
Q 5728 594 5436 251 
Q 5144 -91 4653 -91 
Q 4153 -91 3862 251 
Q 3572 594 3572 1178 
Q 3572 1766 3864 2108 
Q 4156 2450 4653 2450 
z
M 1428 4353 
Q 1159 4353 1004 4120 
Q 850 3888 850 3481 
Q 850 3069 1003 2837 
Q 1156 2606 1428 2606 
Q 1700 2606 1854 2837 
Q 2009 3069 2009 3481 
Q 2009 3884 1853 4118 
Q 1697 4353 1428 4353 
z
M 4250 4750 
L 4750 4750 
L 1831 -91 
L 1331 -91 
L 4250 4750 
z
M 1428 4750 
Q 1922 4750 2215 4408 
Q 2509 4066 2509 3481 
Q 2509 2891 2217 2550 
Q 1925 2209 1428 2209 
Q 931 2209 642 2551 
Q 353 2894 353 3481 
Q 353 4063 643 4406 
Q 934 4750 1428 4750 
z
" transform="scale(0.015625)"/>
       </defs>
       <use xlink:href="#DejaVuSans-30"/>
       <use xlink:href="#DejaVuSans-25" x="63.623047"/>
      </g>
     </g>
    </g>
    <g id="xtick_2">
     <g id="line2d_2">
      <g>
       <use xlink:href="#m1b66692ad1" x="146.552636" y="246.04" style="stroke: #000000; stroke-width: 0.8"/>
      </g>
     </g>
     <g id="text_2">
      <!-- 20% -->
      <g transform="translate(135.439355 260.638438)scale(0.1 -0.1)">
       <defs>
        <path id="DejaVuSans-32" d="M 1228 531 
L 3431 531 
L 3431 0 
L 469 0 
L 469 531 
Q 828 903 1448 1529 
Q 2069 2156 2228 2338 
Q 2531 2678 2651 2914 
Q 2772 3150 2772 3378 
Q 2772 3750 2511 3984 
Q 2250 4219 1831 4219 
Q 1534 4219 1204 4116 
Q 875 4013 500 3803 
L 500 4441 
Q 881 4594 1212 4672 
Q 1544 4750 1819 4750 
Q 2544 4750 2975 4387 
Q 3406 4025 3406 3419 
Q 3406 3131 3298 2873 
Q 3191 2616 2906 2266 
Q 2828 2175 2409 1742 
Q 1991 1309 1228 531 
z
" transform="scale(0.015625)"/>
       </defs>
       <use xlink:href="#DejaVuSans-32"/>
       <use xlink:href="#DejaVuSans-30" x="63.623047"/>
       <use xlink:href="#DejaVuSans-25" x="127.246094"/>
      </g>
     </g>
    </g>
    <g id="xtick_3">
     <g id="line2d_3">
      <g>
       <use xlink:href="#m1b66692ad1" x="211.175545" y="246.04" style="stroke: #000000; stroke-width: 0.8"/>
      </g>
     </g>
     <g id="text_3">
      <!-- 40% -->
      <g transform="translate(200.062264 260.638438)scale(0.1 -0.1)">
       <defs>
        <path id="DejaVuSans-34" d="M 2419 4116 
L 825 1625 
L 2419 1625 
L 2419 4116 
z
M 2253 4666 
L 3047 4666 
L 3047 1625 
L 3713 1625 
L 3713 1100 
L 3047 1100 
L 3047 0 
L 2419 0 
L 2419 1100 
L 313 1100 
L 313 1709 
L 2253 4666 
z
" transform="scale(0.015625)"/>
       </defs>
       <use xlink:href="#DejaVuSans-34"/>
       <use xlink:href="#DejaVuSans-30" x="63.623047"/>
       <use xlink:href="#DejaVuSans-25" x="127.246094"/>
      </g>
     </g>
    </g>
    <g id="xtick_4">
     <g id="line2d_4">
      <g>
       <use xlink:href="#m1b66692ad1" x="275.798455" y="246.04" style="stroke: #000000; stroke-width: 0.8"/>
      </g>
     </g>
     <g id="text_4">
      <!-- 60% -->
      <g transform="translate(264.685173 260.638438)scale(0.1 -0.1)">
       <defs>
        <path id="DejaVuSans-36" d="M 2113 2584 
Q 1688 2584 1439 2293 
Q 1191 2003 1191 1497 
Q 1191 994 1439 701 
Q 1688 409 2113 409 
Q 2538 409 2786 701 
Q 3034 994 3034 1497 
Q 3034 2003 2786 2293 
Q 2538 2584 2113 2584 
z
M 3366 4563 
L 3366 3988 
Q 3128 4100 2886 4159 
Q 2644 4219 2406 4219 
Q 1781 4219 1451 3797 
Q 1122 3375 1075 2522 
Q 1259 2794 1537 2939 
Q 1816 3084 2150 3084 
Q 2853 3084 3261 2657 
Q 3669 2231 3669 1497 
Q 3669 778 3244 343 
Q 2819 -91 2113 -91 
Q 1303 -91 875 529 
Q 447 1150 447 2328 
Q 447 3434 972 4092 
Q 1497 4750 2381 4750 
Q 2619 4750 2861 4703 
Q 3103 4656 3366 4563 
z
" transform="scale(0.015625)"/>
       </defs>
       <use xlink:href="#DejaVuSans-36"/>
       <use xlink:href="#DejaVuSans-30" x="63.623047"/>
       <use xlink:href="#DejaVuSans-25" x="127.246094"/>
      </g>
     </g>
    </g>
    <g id="xtick_5">
     <g id="line2d_5">
      <g>
       <use xlink:href="#m1b66692ad1" x="340.421364" y="246.04" style="stroke: #000000; stroke-width: 0.8"/>
      </g>
     </g>
     <g id="text_5">
      <!-- 80% -->
      <g transform="translate(329.308082 260.638438)scale(0.1 -0.1)">
       <defs>
        <path id="DejaVuSans-38" d="M 2034 2216 
Q 1584 2216 1326 1975 
Q 1069 1734 1069 1313 
Q 1069 891 1326 650 
Q 1584 409 2034 409 
Q 2484 409 2743 651 
Q 3003 894 3003 1313 
Q 3003 1734 2745 1975 
Q 2488 2216 2034 2216 
z
M 1403 2484 
Q 997 2584 770 2862 
Q 544 3141 544 3541 
Q 544 4100 942 4425 
Q 1341 4750 2034 4750 
Q 2731 4750 3128 4425 
Q 3525 4100 3525 3541 
Q 3525 3141 3298 2862 
Q 3072 2584 2669 2484 
Q 3125 2378 3379 2068 
Q 3634 1759 3634 1313 
Q 3634 634 3220 271 
Q 2806 -91 2034 -91 
Q 1263 -91 848 271 
Q 434 634 434 1313 
Q 434 1759 690 2068 
Q 947 2378 1403 2484 
z
M 1172 3481 
Q 1172 3119 1398 2916 
Q 1625 2713 2034 2713 
Q 2441 2713 2670 2916 
Q 2900 3119 2900 3481 
Q 2900 3844 2670 4047 
Q 2441 4250 2034 4250 
Q 1625 4250 1398 4047 
Q 1172 3844 1172 3481 
z
" transform="scale(0.015625)"/>
       </defs>
       <use xlink:href="#DejaVuSans-38"/>
       <use xlink:href="#DejaVuSans-30" x="63.623047"/>
       <use xlink:href="#DejaVuSans-25" x="127.246094"/>
      </g>
     </g>
    </g>
    <g id="xtick_6">
     <g id="line2d_6">
      <g>
       <use xlink:href="#m1b66692ad1" x="405.044273" y="246.04" style="stroke: #000000; stroke-width: 0.8"/>
      </g>
     </g>
     <g id="text_6">
      <!-- 100% -->
      <g transform="translate(390.749741 260.638438)scale(0.1 -0.1)">
       <defs>
        <path id="DejaVuSans-31" d="M 794 531 
L 1825 531 
L 1825 4091 
L 703 3866 
L 703 4441 
L 1819 4666 
L 2450 4666 
L 2450 531 
L 3481 531 
L 3481 0 
L 794 0 
L 794 531 
z
" transform="scale(0.015625)"/>
       </defs>
       <use xlink:href="#DejaVuSans-31"/>
       <use xlink:href="#DejaVuSans-30" x="63.623047"/>
       <use xlink:href="#DejaVuSans-30" x="127.246094"/>
       <use xlink:href="#DejaVuSans-25" x="190.869141"/>
      </g>
     </g>
    </g>
    <g id="text_7">
     <!-- Percentage of Samples predicted by Remote Model (=cost) -->
     <g transform="translate(95.447156 274.316562)scale(0.1 -0.1)">
      <defs>
       <path id="DejaVuSans-50" d="M 1259 4147 
L 1259 2394 
L 2053 2394 
Q 2494 2394 2734 2622 
Q 2975 2850 2975 3272 
Q 2975 3691 2734 3919 
Q 2494 4147 2053 4147 
L 1259 4147 
z
M 628 4666 
L 2053 4666 
Q 2838 4666 3239 4311 
Q 3641 3956 3641 3272 
Q 3641 2581 3239 2228 
Q 2838 1875 2053 1875 
L 1259 1875 
L 1259 0 
L 628 0 
L 628 4666 
z
" transform="scale(0.015625)"/>
       <path id="DejaVuSans-65" d="M 3597 1894 
L 3597 1613 
L 953 1613 
Q 991 1019 1311 708 
Q 1631 397 2203 397 
Q 2534 397 2845 478 
Q 3156 559 3463 722 
L 3463 178 
Q 3153 47 2828 -22 
Q 2503 -91 2169 -91 
Q 1331 -91 842 396 
Q 353 884 353 1716 
Q 353 2575 817 3079 
Q 1281 3584 2069 3584 
Q 2775 3584 3186 3129 
Q 3597 2675 3597 1894 
z
M 3022 2063 
Q 3016 2534 2758 2815 
Q 2500 3097 2075 3097 
Q 1594 3097 1305 2825 
Q 1016 2553 972 2059 
L 3022 2063 
z
" transform="scale(0.015625)"/>
       <path id="DejaVuSans-72" d="M 2631 2963 
Q 2534 3019 2420 3045 
Q 2306 3072 2169 3072 
Q 1681 3072 1420 2755 
Q 1159 2438 1159 1844 
L 1159 0 
L 581 0 
L 581 3500 
L 1159 3500 
L 1159 2956 
Q 1341 3275 1631 3429 
Q 1922 3584 2338 3584 
Q 2397 3584 2469 3576 
Q 2541 3569 2628 3553 
L 2631 2963 
z
" transform="scale(0.015625)"/>
       <path id="DejaVuSans-63" d="M 3122 3366 
L 3122 2828 
Q 2878 2963 2633 3030 
Q 2388 3097 2138 3097 
Q 1578 3097 1268 2742 
Q 959 2388 959 1747 
Q 959 1106 1268 751 
Q 1578 397 2138 397 
Q 2388 397 2633 464 
Q 2878 531 3122 666 
L 3122 134 
Q 2881 22 2623 -34 
Q 2366 -91 2075 -91 
Q 1284 -91 818 406 
Q 353 903 353 1747 
Q 353 2603 823 3093 
Q 1294 3584 2113 3584 
Q 2378 3584 2631 3529 
Q 2884 3475 3122 3366 
z
" transform="scale(0.015625)"/>
       <path id="DejaVuSans-6e" d="M 3513 2113 
L 3513 0 
L 2938 0 
L 2938 2094 
Q 2938 2591 2744 2837 
Q 2550 3084 2163 3084 
Q 1697 3084 1428 2787 
Q 1159 2491 1159 1978 
L 1159 0 
L 581 0 
L 581 3500 
L 1159 3500 
L 1159 2956 
Q 1366 3272 1645 3428 
Q 1925 3584 2291 3584 
Q 2894 3584 3203 3211 
Q 3513 2838 3513 2113 
z
" transform="scale(0.015625)"/>
       <path id="DejaVuSans-74" d="M 1172 4494 
L 1172 3500 
L 2356 3500 
L 2356 3053 
L 1172 3053 
L 1172 1153 
Q 1172 725 1289 603 
Q 1406 481 1766 481 
L 2356 481 
L 2356 0 
L 1766 0 
Q 1100 0 847 248 
Q 594 497 594 1153 
L 594 3053 
L 172 3053 
L 172 3500 
L 594 3500 
L 594 4494 
L 1172 4494 
z
" transform="scale(0.015625)"/>
       <path id="DejaVuSans-61" d="M 2194 1759 
Q 1497 1759 1228 1600 
Q 959 1441 959 1056 
Q 959 750 1161 570 
Q 1363 391 1709 391 
Q 2188 391 2477 730 
Q 2766 1069 2766 1631 
L 2766 1759 
L 2194 1759 
z
M 3341 1997 
L 3341 0 
L 2766 0 
L 2766 531 
Q 2569 213 2275 61 
Q 1981 -91 1556 -91 
Q 1019 -91 701 211 
Q 384 513 384 1019 
Q 384 1609 779 1909 
Q 1175 2209 1959 2209 
L 2766 2209 
L 2766 2266 
Q 2766 2663 2505 2880 
Q 2244 3097 1772 3097 
Q 1472 3097 1187 3025 
Q 903 2953 641 2809 
L 641 3341 
Q 956 3463 1253 3523 
Q 1550 3584 1831 3584 
Q 2591 3584 2966 3190 
Q 3341 2797 3341 1997 
z
" transform="scale(0.015625)"/>
       <path id="DejaVuSans-67" d="M 2906 1791 
Q 2906 2416 2648 2759 
Q 2391 3103 1925 3103 
Q 1463 3103 1205 2759 
Q 947 2416 947 1791 
Q 947 1169 1205 825 
Q 1463 481 1925 481 
Q 2391 481 2648 825 
Q 2906 1169 2906 1791 
z
M 3481 434 
Q 3481 -459 3084 -895 
Q 2688 -1331 1869 -1331 
Q 1566 -1331 1297 -1286 
Q 1028 -1241 775 -1147 
L 775 -588 
Q 1028 -725 1275 -790 
Q 1522 -856 1778 -856 
Q 2344 -856 2625 -561 
Q 2906 -266 2906 331 
L 2906 616 
Q 2728 306 2450 153 
Q 2172 0 1784 0 
Q 1141 0 747 490 
Q 353 981 353 1791 
Q 353 2603 747 3093 
Q 1141 3584 1784 3584 
Q 2172 3584 2450 3431 
Q 2728 3278 2906 2969 
L 2906 3500 
L 3481 3500 
L 3481 434 
z
" transform="scale(0.015625)"/>
       <path id="DejaVuSans-20" transform="scale(0.015625)"/>
       <path id="DejaVuSans-6f" d="M 1959 3097 
Q 1497 3097 1228 2736 
Q 959 2375 959 1747 
Q 959 1119 1226 758 
Q 1494 397 1959 397 
Q 2419 397 2687 759 
Q 2956 1122 2956 1747 
Q 2956 2369 2687 2733 
Q 2419 3097 1959 3097 
z
M 1959 3584 
Q 2709 3584 3137 3096 
Q 3566 2609 3566 1747 
Q 3566 888 3137 398 
Q 2709 -91 1959 -91 
Q 1206 -91 779 398 
Q 353 888 353 1747 
Q 353 2609 779 3096 
Q 1206 3584 1959 3584 
z
" transform="scale(0.015625)"/>
       <path id="DejaVuSans-66" d="M 2375 4863 
L 2375 4384 
L 1825 4384 
Q 1516 4384 1395 4259 
Q 1275 4134 1275 3809 
L 1275 3500 
L 2222 3500 
L 2222 3053 
L 1275 3053 
L 1275 0 
L 697 0 
L 697 3053 
L 147 3053 
L 147 3500 
L 697 3500 
L 697 3744 
Q 697 4328 969 4595 
Q 1241 4863 1831 4863 
L 2375 4863 
z
" transform="scale(0.015625)"/>
       <path id="DejaVuSans-53" d="M 3425 4513 
L 3425 3897 
Q 3066 4069 2747 4153 
Q 2428 4238 2131 4238 
Q 1616 4238 1336 4038 
Q 1056 3838 1056 3469 
Q 1056 3159 1242 3001 
Q 1428 2844 1947 2747 
L 2328 2669 
Q 3034 2534 3370 2195 
Q 3706 1856 3706 1288 
Q 3706 609 3251 259 
Q 2797 -91 1919 -91 
Q 1588 -91 1214 -16 
Q 841 59 441 206 
L 441 856 
Q 825 641 1194 531 
Q 1563 422 1919 422 
Q 2459 422 2753 634 
Q 3047 847 3047 1241 
Q 3047 1584 2836 1778 
Q 2625 1972 2144 2069 
L 1759 2144 
Q 1053 2284 737 2584 
Q 422 2884 422 3419 
Q 422 4038 858 4394 
Q 1294 4750 2059 4750 
Q 2388 4750 2728 4690 
Q 3069 4631 3425 4513 
z
" transform="scale(0.015625)"/>
       <path id="DejaVuSans-6d" d="M 3328 2828 
Q 3544 3216 3844 3400 
Q 4144 3584 4550 3584 
Q 5097 3584 5394 3201 
Q 5691 2819 5691 2113 
L 5691 0 
L 5113 0 
L 5113 2094 
Q 5113 2597 4934 2840 
Q 4756 3084 4391 3084 
Q 3944 3084 3684 2787 
Q 3425 2491 3425 1978 
L 3425 0 
L 2847 0 
L 2847 2094 
Q 2847 2600 2669 2842 
Q 2491 3084 2119 3084 
Q 1678 3084 1418 2786 
Q 1159 2488 1159 1978 
L 1159 0 
L 581 0 
L 581 3500 
L 1159 3500 
L 1159 2956 
Q 1356 3278 1631 3431 
Q 1906 3584 2284 3584 
Q 2666 3584 2933 3390 
Q 3200 3197 3328 2828 
z
" transform="scale(0.015625)"/>
       <path id="DejaVuSans-70" d="M 1159 525 
L 1159 -1331 
L 581 -1331 
L 581 3500 
L 1159 3500 
L 1159 2969 
Q 1341 3281 1617 3432 
Q 1894 3584 2278 3584 
Q 2916 3584 3314 3078 
Q 3713 2572 3713 1747 
Q 3713 922 3314 415 
Q 2916 -91 2278 -91 
Q 1894 -91 1617 61 
Q 1341 213 1159 525 
z
M 3116 1747 
Q 3116 2381 2855 2742 
Q 2594 3103 2138 3103 
Q 1681 3103 1420 2742 
Q 1159 2381 1159 1747 
Q 1159 1113 1420 752 
Q 1681 391 2138 391 
Q 2594 391 2855 752 
Q 3116 1113 3116 1747 
z
" transform="scale(0.015625)"/>
       <path id="DejaVuSans-6c" d="M 603 4863 
L 1178 4863 
L 1178 0 
L 603 0 
L 603 4863 
z
" transform="scale(0.015625)"/>
       <path id="DejaVuSans-73" d="M 2834 3397 
L 2834 2853 
Q 2591 2978 2328 3040 
Q 2066 3103 1784 3103 
Q 1356 3103 1142 2972 
Q 928 2841 928 2578 
Q 928 2378 1081 2264 
Q 1234 2150 1697 2047 
L 1894 2003 
Q 2506 1872 2764 1633 
Q 3022 1394 3022 966 
Q 3022 478 2636 193 
Q 2250 -91 1575 -91 
Q 1294 -91 989 -36 
Q 684 19 347 128 
L 347 722 
Q 666 556 975 473 
Q 1284 391 1588 391 
Q 1994 391 2212 530 
Q 2431 669 2431 922 
Q 2431 1156 2273 1281 
Q 2116 1406 1581 1522 
L 1381 1569 
Q 847 1681 609 1914 
Q 372 2147 372 2553 
Q 372 3047 722 3315 
Q 1072 3584 1716 3584 
Q 2034 3584 2315 3537 
Q 2597 3491 2834 3397 
z
" transform="scale(0.015625)"/>
       <path id="DejaVuSans-64" d="M 2906 2969 
L 2906 4863 
L 3481 4863 
L 3481 0 
L 2906 0 
L 2906 525 
Q 2725 213 2448 61 
Q 2172 -91 1784 -91 
Q 1150 -91 751 415 
Q 353 922 353 1747 
Q 353 2572 751 3078 
Q 1150 3584 1784 3584 
Q 2172 3584 2448 3432 
Q 2725 3281 2906 2969 
z
M 947 1747 
Q 947 1113 1208 752 
Q 1469 391 1925 391 
Q 2381 391 2643 752 
Q 2906 1113 2906 1747 
Q 2906 2381 2643 2742 
Q 2381 3103 1925 3103 
Q 1469 3103 1208 2742 
Q 947 2381 947 1747 
z
" transform="scale(0.015625)"/>
       <path id="DejaVuSans-69" d="M 603 3500 
L 1178 3500 
L 1178 0 
L 603 0 
L 603 3500 
z
M 603 4863 
L 1178 4863 
L 1178 4134 
L 603 4134 
L 603 4863 
z
" transform="scale(0.015625)"/>
       <path id="DejaVuSans-62" d="M 3116 1747 
Q 3116 2381 2855 2742 
Q 2594 3103 2138 3103 
Q 1681 3103 1420 2742 
Q 1159 2381 1159 1747 
Q 1159 1113 1420 752 
Q 1681 391 2138 391 
Q 2594 391 2855 752 
Q 3116 1113 3116 1747 
z
M 1159 2969 
Q 1341 3281 1617 3432 
Q 1894 3584 2278 3584 
Q 2916 3584 3314 3078 
Q 3713 2572 3713 1747 
Q 3713 922 3314 415 
Q 2916 -91 2278 -91 
Q 1894 -91 1617 61 
Q 1341 213 1159 525 
L 1159 0 
L 581 0 
L 581 4863 
L 1159 4863 
L 1159 2969 
z
" transform="scale(0.015625)"/>
       <path id="DejaVuSans-79" d="M 2059 -325 
Q 1816 -950 1584 -1140 
Q 1353 -1331 966 -1331 
L 506 -1331 
L 506 -850 
L 844 -850 
Q 1081 -850 1212 -737 
Q 1344 -625 1503 -206 
L 1606 56 
L 191 3500 
L 800 3500 
L 1894 763 
L 2988 3500 
L 3597 3500 
L 2059 -325 
z
" transform="scale(0.015625)"/>
       <path id="DejaVuSans-52" d="M 2841 2188 
Q 3044 2119 3236 1894 
Q 3428 1669 3622 1275 
L 4263 0 
L 3584 0 
L 2988 1197 
Q 2756 1666 2539 1819 
Q 2322 1972 1947 1972 
L 1259 1972 
L 1259 0 
L 628 0 
L 628 4666 
L 2053 4666 
Q 2853 4666 3247 4331 
Q 3641 3997 3641 3322 
Q 3641 2881 3436 2590 
Q 3231 2300 2841 2188 
z
M 1259 4147 
L 1259 2491 
L 2053 2491 
Q 2509 2491 2742 2702 
Q 2975 2913 2975 3322 
Q 2975 3731 2742 3939 
Q 2509 4147 2053 4147 
L 1259 4147 
z
" transform="scale(0.015625)"/>
       <path id="DejaVuSans-4d" d="M 628 4666 
L 1569 4666 
L 2759 1491 
L 3956 4666 
L 4897 4666 
L 4897 0 
L 4281 0 
L 4281 4097 
L 3078 897 
L 2444 897 
L 1241 4097 
L 1241 0 
L 628 0 
L 628 4666 
z
" transform="scale(0.015625)"/>
       <path id="DejaVuSans-28" d="M 1984 4856 
Q 1566 4138 1362 3434 
Q 1159 2731 1159 2009 
Q 1159 1288 1364 580 
Q 1569 -128 1984 -844 
L 1484 -844 
Q 1016 -109 783 600 
Q 550 1309 550 2009 
Q 550 2706 781 3412 
Q 1013 4119 1484 4856 
L 1984 4856 
z
" transform="scale(0.015625)"/>
       <path id="DejaVuSans-3d" d="M 678 2906 
L 4684 2906 
L 4684 2381 
L 678 2381 
L 678 2906 
z
M 678 1631 
L 4684 1631 
L 4684 1100 
L 678 1100 
L 678 1631 
z
" transform="scale(0.015625)"/>
       <path id="DejaVuSans-29" d="M 513 4856 
L 1013 4856 
Q 1481 4119 1714 3412 
Q 1947 2706 1947 2009 
Q 1947 1309 1714 600 
Q 1481 -109 1013 -844 
L 513 -844 
Q 928 -128 1133 580 
Q 1338 1288 1338 2009 
Q 1338 2731 1133 3434 
Q 928 4138 513 4856 
z
" transform="scale(0.015625)"/>
      </defs>
      <use xlink:href="#DejaVuSans-50"/>
      <use xlink:href="#DejaVuSans-65" x="56.677734"/>
      <use xlink:href="#DejaVuSans-72" x="118.201172"/>
      <use xlink:href="#DejaVuSans-63" x="157.064453"/>
      <use xlink:href="#DejaVuSans-65" x="212.044922"/>
      <use xlink:href="#DejaVuSans-6e" x="273.568359"/>
      <use xlink:href="#DejaVuSans-74" x="336.947266"/>
      <use xlink:href="#DejaVuSans-61" x="376.15625"/>
      <use xlink:href="#DejaVuSans-67" x="437.435547"/>
      <use xlink:href="#DejaVuSans-65" x="500.912109"/>
      <use xlink:href="#DejaVuSans-20" x="562.435547"/>
      <use xlink:href="#DejaVuSans-6f" x="594.222656"/>
      <use xlink:href="#DejaVuSans-66" x="655.404297"/>
      <use xlink:href="#DejaVuSans-20" x="690.609375"/>
      <use xlink:href="#DejaVuSans-53" x="722.396484"/>
      <use xlink:href="#DejaVuSans-61" x="785.873047"/>
      <use xlink:href="#DejaVuSans-6d" x="847.152344"/>
      <use xlink:href="#DejaVuSans-70" x="944.564453"/>
      <use xlink:href="#DejaVuSans-6c" x="1008.041016"/>
      <use xlink:href="#DejaVuSans-65" x="1035.824219"/>
      <use xlink:href="#DejaVuSans-73" x="1097.347656"/>
      <use xlink:href="#DejaVuSans-20" x="1149.447266"/>
      <use xlink:href="#DejaVuSans-70" x="1181.234375"/>
      <use xlink:href="#DejaVuSans-72" x="1244.710938"/>
      <use xlink:href="#DejaVuSans-65" x="1283.574219"/>
      <use xlink:href="#DejaVuSans-64" x="1345.097656"/>
      <use xlink:href="#DejaVuSans-69" x="1408.574219"/>
      <use xlink:href="#DejaVuSans-63" x="1436.357422"/>
      <use xlink:href="#DejaVuSans-74" x="1491.337891"/>
      <use xlink:href="#DejaVuSans-65" x="1530.546875"/>
      <use xlink:href="#DejaVuSans-64" x="1592.070312"/>
      <use xlink:href="#DejaVuSans-20" x="1655.546875"/>
      <use xlink:href="#DejaVuSans-62" x="1687.333984"/>
      <use xlink:href="#DejaVuSans-79" x="1750.810547"/>
      <use xlink:href="#DejaVuSans-20" x="1809.990234"/>
      <use xlink:href="#DejaVuSans-52" x="1841.777344"/>
      <use xlink:href="#DejaVuSans-65" x="1906.759766"/>
      <use xlink:href="#DejaVuSans-6d" x="1968.283203"/>
      <use xlink:href="#DejaVuSans-6f" x="2065.695312"/>
      <use xlink:href="#DejaVuSans-74" x="2126.876953"/>
      <use xlink:href="#DejaVuSans-65" x="2166.085938"/>
      <use xlink:href="#DejaVuSans-20" x="2227.609375"/>
      <use xlink:href="#DejaVuSans-4d" x="2259.396484"/>
      <use xlink:href="#DejaVuSans-6f" x="2345.675781"/>
      <use xlink:href="#DejaVuSans-64" x="2406.857422"/>
      <use xlink:href="#DejaVuSans-65" x="2470.333984"/>
      <use xlink:href="#DejaVuSans-6c" x="2531.857422"/>
      <use xlink:href="#DejaVuSans-20" x="2559.640625"/>
      <use xlink:href="#DejaVuSans-28" x="2591.427734"/>
      <use xlink:href="#DejaVuSans-3d" x="2630.441406"/>
      <use xlink:href="#DejaVuSans-63" x="2714.230469"/>
      <use xlink:href="#DejaVuSans-6f" x="2769.210938"/>
      <use xlink:href="#DejaVuSans-73" x="2830.392578"/>
      <use xlink:href="#DejaVuSans-74" x="2882.492188"/>
      <use xlink:href="#DejaVuSans-29" x="2921.701172"/>
     </g>
    </g>
   </g>
   <g id="matplotlib.axis_2">
    <g id="ytick_1">
     <g id="line2d_7">
      <defs>
       <path id="m254a56a48d" d="M 0 0 
L -3.5 0 
" style="stroke: #000000; stroke-width: 0.8"/>
      </defs>
      <g>
       <use xlink:href="#m254a56a48d" x="65.774" y="216.636252" style="stroke: #000000; stroke-width: 0.8"/>
      </g>
     </g>
     <g id="text_8">
      <!-- 0.64 -->
      <g transform="translate(36.508375 220.435471)scale(0.1 -0.1)">
       <defs>
        <path id="DejaVuSans-2e" d="M 684 794 
L 1344 794 
L 1344 0 
L 684 0 
L 684 794 
z
" transform="scale(0.015625)"/>
       </defs>
       <use xlink:href="#DejaVuSans-30"/>
       <use xlink:href="#DejaVuSans-2e" x="63.623047"/>
       <use xlink:href="#DejaVuSans-36" x="95.410156"/>
       <use xlink:href="#DejaVuSans-34" x="159.033203"/>
      </g>
     </g>
    </g>
    <g id="ytick_2">
     <g id="line2d_8">
      <g>
       <use xlink:href="#m254a56a48d" x="65.774" y="169.317804" style="stroke: #000000; stroke-width: 0.8"/>
      </g>
     </g>
     <g id="text_9">
      <!-- 0.66 -->
      <g transform="translate(36.508375 173.117022)scale(0.1 -0.1)">
       <use xlink:href="#DejaVuSans-30"/>
       <use xlink:href="#DejaVuSans-2e" x="63.623047"/>
       <use xlink:href="#DejaVuSans-36" x="95.410156"/>
       <use xlink:href="#DejaVuSans-36" x="159.033203"/>
      </g>
     </g>
    </g>
    <g id="ytick_3">
     <g id="line2d_9">
      <g>
       <use xlink:href="#m254a56a48d" x="65.774" y="121.999355" style="stroke: #000000; stroke-width: 0.8"/>
      </g>
     </g>
     <g id="text_10">
      <!-- 0.68 -->
      <g transform="translate(36.508375 125.798574)scale(0.1 -0.1)">
       <use xlink:href="#DejaVuSans-30"/>
       <use xlink:href="#DejaVuSans-2e" x="63.623047"/>
       <use xlink:href="#DejaVuSans-36" x="95.410156"/>
       <use xlink:href="#DejaVuSans-38" x="159.033203"/>
      </g>
     </g>
    </g>
    <g id="ytick_4">
     <g id="line2d_10">
      <g>
       <use xlink:href="#m254a56a48d" x="65.774" y="74.680907" style="stroke: #000000; stroke-width: 0.8"/>
      </g>
     </g>
     <g id="text_11">
      <!-- 0.70 -->
      <g transform="translate(36.508375 78.480126)scale(0.1 -0.1)">
       <defs>
        <path id="DejaVuSans-37" d="M 525 4666 
L 3525 4666 
L 3525 4397 
L 1831 0 
L 1172 0 
L 2766 4134 
L 525 4134 
L 525 4666 
z
" transform="scale(0.015625)"/>
       </defs>
       <use xlink:href="#DejaVuSans-30"/>
       <use xlink:href="#DejaVuSans-2e" x="63.623047"/>
       <use xlink:href="#DejaVuSans-37" x="95.410156"/>
       <use xlink:href="#DejaVuSans-30" x="159.033203"/>
      </g>
     </g>
    </g>
    <g id="ytick_5">
     <g id="line2d_11">
      <g>
       <use xlink:href="#m254a56a48d" x="65.774" y="27.362459" style="stroke: #000000; stroke-width: 0.8"/>
      </g>
     </g>
     <g id="text_12">
      <!-- 0.72 -->
      <g transform="translate(36.508375 31.161677)scale(0.1 -0.1)">
       <use xlink:href="#DejaVuSans-30"/>
       <use xlink:href="#DejaVuSans-2e" x="63.623047"/>
       <use xlink:href="#DejaVuSans-37" x="95.410156"/>
       <use xlink:href="#DejaVuSans-32" x="159.033203"/>
      </g>
     </g>
    </g>
    <g id="text_13">
     <!-- System-level exact match (EM), -->
     <g transform="translate(19.230875 208.025469)rotate(-90)scale(0.1 -0.1)">
      <defs>
       <path id="DejaVuSans-2d" d="M 313 2009 
L 1997 2009 
L 1997 1497 
L 313 1497 
L 313 2009 
z
" transform="scale(0.015625)"/>
       <path id="DejaVuSans-76" d="M 191 3500 
L 800 3500 
L 1894 563 
L 2988 3500 
L 3597 3500 
L 2284 0 
L 1503 0 
L 191 3500 
z
" transform="scale(0.015625)"/>
       <path id="DejaVuSans-78" d="M 3513 3500 
L 2247 1797 
L 3578 0 
L 2900 0 
L 1881 1375 
L 863 0 
L 184 0 
L 1544 1831 
L 300 3500 
L 978 3500 
L 1906 2253 
L 2834 3500 
L 3513 3500 
z
" transform="scale(0.015625)"/>
       <path id="DejaVuSans-68" d="M 3513 2113 
L 3513 0 
L 2938 0 
L 2938 2094 
Q 2938 2591 2744 2837 
Q 2550 3084 2163 3084 
Q 1697 3084 1428 2787 
Q 1159 2491 1159 1978 
L 1159 0 
L 581 0 
L 581 4863 
L 1159 4863 
L 1159 2956 
Q 1366 3272 1645 3428 
Q 1925 3584 2291 3584 
Q 2894 3584 3203 3211 
Q 3513 2838 3513 2113 
z
" transform="scale(0.015625)"/>
       <path id="DejaVuSans-45" d="M 628 4666 
L 3578 4666 
L 3578 4134 
L 1259 4134 
L 1259 2753 
L 3481 2753 
L 3481 2222 
L 1259 2222 
L 1259 531 
L 3634 531 
L 3634 0 
L 628 0 
L 628 4666 
z
" transform="scale(0.015625)"/>
       <path id="DejaVuSans-2c" d="M 750 794 
L 1409 794 
L 1409 256 
L 897 -744 
L 494 -744 
L 750 256 
L 750 794 
z
" transform="scale(0.015625)"/>
      </defs>
      <use xlink:href="#DejaVuSans-53"/>
      <use xlink:href="#DejaVuSans-79" x="63.476562"/>
      <use xlink:href="#DejaVuSans-73" x="122.65625"/>
      <use xlink:href="#DejaVuSans-74" x="174.755859"/>
      <use xlink:href="#DejaVuSans-65" x="213.964844"/>
      <use xlink:href="#DejaVuSans-6d" x="275.488281"/>
      <use xlink:href="#DejaVuSans-2d" x="372.900391"/>
      <use xlink:href="#DejaVuSans-6c" x="408.984375"/>
      <use xlink:href="#DejaVuSans-65" x="436.767578"/>
      <use xlink:href="#DejaVuSans-76" x="498.291016"/>
      <use xlink:href="#DejaVuSans-65" x="557.470703"/>
      <use xlink:href="#DejaVuSans-6c" x="618.994141"/>
      <use xlink:href="#DejaVuSans-20" x="646.777344"/>
      <use xlink:href="#DejaVuSans-65" x="678.564453"/>
      <use xlink:href="#DejaVuSans-78" x="738.337891"/>
      <use xlink:href="#DejaVuSans-61" x="797.517578"/>
      <use xlink:href="#DejaVuSans-63" x="858.796875"/>
      <use xlink:href="#DejaVuSans-74" x="913.777344"/>
      <use xlink:href="#DejaVuSans-20" x="952.986328"/>
      <use xlink:href="#DejaVuSans-6d" x="984.773438"/>
      <use xlink:href="#DejaVuSans-61" x="1082.185547"/>
      <use xlink:href="#DejaVuSans-74" x="1143.464844"/>
      <use xlink:href="#DejaVuSans-63" x="1182.673828"/>
      <use xlink:href="#DejaVuSans-68" x="1237.654297"/>
      <use xlink:href="#DejaVuSans-20" x="1301.033203"/>
      <use xlink:href="#DejaVuSans-28" x="1332.820312"/>
      <use xlink:href="#DejaVuSans-45" x="1371.833984"/>
      <use xlink:href="#DejaVuSans-4d" x="1435.017578"/>
      <use xlink:href="#DejaVuSans-29" x="1521.296875"/>
      <use xlink:href="#DejaVuSans-2c" x="1560.310547"/>
     </g>
     <!--  without 2nd-level supervision -->
     <g transform="translate(30.428688 203.85125)rotate(-90)scale(0.1 -0.1)">
      <defs>
       <path id="DejaVuSans-77" d="M 269 3500 
L 844 3500 
L 1563 769 
L 2278 3500 
L 2956 3500 
L 3675 769 
L 4391 3500 
L 4966 3500 
L 4050 0 
L 3372 0 
L 2619 2869 
L 1863 0 
L 1184 0 
L 269 3500 
z
" transform="scale(0.015625)"/>
       <path id="DejaVuSans-75" d="M 544 1381 
L 544 3500 
L 1119 3500 
L 1119 1403 
Q 1119 906 1312 657 
Q 1506 409 1894 409 
Q 2359 409 2629 706 
Q 2900 1003 2900 1516 
L 2900 3500 
L 3475 3500 
L 3475 0 
L 2900 0 
L 2900 538 
Q 2691 219 2414 64 
Q 2138 -91 1772 -91 
Q 1169 -91 856 284 
Q 544 659 544 1381 
z
M 1991 3584 
L 1991 3584 
z
" transform="scale(0.015625)"/>
      </defs>
      <use xlink:href="#DejaVuSans-20"/>
      <use xlink:href="#DejaVuSans-77" x="31.787109"/>
      <use xlink:href="#DejaVuSans-69" x="113.574219"/>
      <use xlink:href="#DejaVuSans-74" x="141.357422"/>
      <use xlink:href="#DejaVuSans-68" x="180.566406"/>
      <use xlink:href="#DejaVuSans-6f" x="243.945312"/>
      <use xlink:href="#DejaVuSans-75" x="305.126953"/>
      <use xlink:href="#DejaVuSans-74" x="368.505859"/>
      <use xlink:href="#DejaVuSans-20" x="407.714844"/>
      <use xlink:href="#DejaVuSans-32" x="439.501953"/>
      <use xlink:href="#DejaVuSans-6e" x="503.125"/>
      <use xlink:href="#DejaVuSans-64" x="566.503906"/>
      <use xlink:href="#DejaVuSans-2d" x="629.980469"/>
      <use xlink:href="#DejaVuSans-6c" x="666.064453"/>
      <use xlink:href="#DejaVuSans-65" x="693.847656"/>
      <use xlink:href="#DejaVuSans-76" x="755.371094"/>
      <use xlink:href="#DejaVuSans-65" x="814.550781"/>
      <use xlink:href="#DejaVuSans-6c" x="876.074219"/>
      <use xlink:href="#DejaVuSans-20" x="903.857422"/>
      <use xlink:href="#DejaVuSans-73" x="935.644531"/>
      <use xlink:href="#DejaVuSans-75" x="987.744141"/>
      <use xlink:href="#DejaVuSans-70" x="1051.123047"/>
      <use xlink:href="#DejaVuSans-65" x="1114.599609"/>
      <use xlink:href="#DejaVuSans-72" x="1176.123047"/>
      <use xlink:href="#DejaVuSans-76" x="1217.236328"/>
      <use xlink:href="#DejaVuSans-69" x="1276.416016"/>
      <use xlink:href="#DejaVuSans-73" x="1304.199219"/>
      <use xlink:href="#DejaVuSans-69" x="1356.298828"/>
      <use xlink:href="#DejaVuSans-6f" x="1384.082031"/>
      <use xlink:href="#DejaVuSans-6e" x="1445.263672"/>
     </g>
    </g>
   </g>
   <g id="line2d_12">
    <path d="M 81.929727 235.347273 
L 82.575956 232.843121 
L 82.899071 233.343951 
L 83.222185 232.843121 
L 83.5453 230.8398 
L 83.868415 230.33897 
L 84.514644 228.335648 
L 85.160873 225.330666 
L 85.483987 225.831497 
L 85.807102 224.329006 
L 86.453331 223.327345 
L 86.776445 223.327345 
L 87.422675 221.324024 
L 88.068904 220.322363 
L 88.392018 218.819872 
L 89.038247 217.818212 
L 89.361362 215.31406 
L 89.684476 214.81323 
L 90.007591 213.811569 
L 90.330705 213.310739 
L 90.65382 213.811569 
L 90.976935 212.309078 
L 91.300049 212.309078 
L 91.623164 211.808248 
L 92.269393 209.304096 
L 92.592507 208.302436 
L 93.884965 206.299114 
L 94.20808 205.297454 
L 94.854309 205.297454 
L 95.177424 203.294132 
L 95.823653 203.294132 
L 96.469882 200.789981 
L 96.792996 200.289151 
L 97.116111 198.78666 
L 97.439225 198.78666 
L 97.76234 198.285829 
L 98.085455 198.78666 
L 98.731684 198.78666 
L 99.054798 199.28749 
L 99.701027 198.285829 
L 100.024142 197.284169 
L 100.993485 195.781678 
L 101.3166 195.781678 
L 101.639715 195.280847 
L 101.962829 194.279187 
L 102.285944 194.279187 
L 102.609058 193.778356 
L 102.932173 192.275865 
L 104.547745 189.771714 
L 104.87086 188.269223 
L 105.193975 189.270884 
L 105.840204 188.269223 
L 106.163318 188.269223 
L 106.809547 185.765071 
L 107.132662 184.763411 
L 107.455776 184.763411 
L 107.778891 184.26258 
L 108.102005 184.26258 
L 108.748235 185.264241 
L 109.394464 184.26258 
L 109.717578 182.760089 
L 110.040693 182.259259 
L 110.363807 182.760089 
L 110.686922 181.257598 
L 111.010036 180.756768 
L 111.333151 179.755108 
L 112.302495 178.252617 
L 112.625609 176.750126 
L 112.948724 176.750126 
L 113.271838 176.249295 
L 113.594953 177.250956 
L 113.918067 176.750126 
L 114.887411 173.745144 
L 115.210525 174.746804 
L 115.53364 175.247635 
L 115.856755 174.245974 
L 116.502984 174.245974 
L 116.826098 174.746804 
L 117.149213 174.245974 
L 117.795442 172.242653 
L 118.118556 171.741822 
L 118.441671 171.741822 
L 118.764785 170.740162 
L 119.411015 170.740162 
L 119.734129 171.741822 
L 120.057244 170.740162 
L 121.026587 166.733519 
L 121.349702 167.23435 
L 121.995931 167.23435 
L 122.319045 166.232689 
L 122.64216 166.733519 
L 123.611504 165.231028 
L 123.934618 165.231028 
L 124.257733 163.728537 
L 124.580847 164.229368 
L 124.903962 162.726877 
L 125.227076 162.226046 
L 125.550191 162.226046 
L 125.873305 163.728537 
L 126.19642 163.227707 
L 126.519535 163.227707 
L 127.165764 161.224386 
L 127.488878 161.224386 
L 127.811993 159.721895 
L 128.458222 159.721895 
L 128.781336 159.221065 
L 129.104451 158.219404 
L 129.427565 157.718574 
L 129.75068 156.716913 
L 130.073795 156.216083 
L 130.396909 156.216083 
L 130.720024 155.715252 
L 131.043138 155.715252 
L 131.366253 154.713592 
L 131.689367 155.214422 
L 132.012482 154.713592 
L 132.335596 155.214422 
L 132.658711 155.214422 
L 132.981825 154.212761 
L 133.30494 154.212761 
L 133.628055 153.711931 
L 133.951169 154.212761 
L 134.274284 153.711931 
L 134.597398 152.71027 
L 134.920513 152.20944 
L 135.243627 152.20944 
L 135.566742 151.207779 
L 135.889856 151.207779 
L 136.212971 150.206119 
L 136.8592 150.206119 
L 137.182315 149.204458 
L 137.505429 148.703628 
L 137.828544 149.204458 
L 138.151658 149.204458 
L 138.474773 148.202798 
L 139.121002 148.202798 
L 139.767231 147.201137 
L 140.090345 146.199476 
L 140.41346 145.698646 
L 140.736575 144.196155 
L 141.059689 143.695325 
L 141.382804 143.695325 
L 142.029033 144.696985 
L 142.352147 143.695325 
L 142.998376 143.695325 
L 143.321491 142.693664 
L 143.644605 143.194494 
L 143.96772 141.692003 
L 144.290835 141.191173 
L 144.613949 139.187852 
L 144.937064 138.687022 
L 145.583293 138.687022 
L 145.906407 138.186191 
L 146.229522 139.187852 
L 146.552636 139.688682 
L 146.875751 138.186191 
L 147.845095 136.6837 
L 148.168209 135.68204 
L 148.814438 135.68204 
L 149.137553 134.179549 
L 149.460667 133.678718 
L 149.783782 133.678718 
L 150.106896 134.179549 
L 150.430011 133.177888 
L 151.07624 132.176227 
L 151.399355 131.174567 
L 152.045584 130.172906 
L 152.691813 130.172906 
L 153.014927 129.672076 
L 153.338042 128.169585 
L 153.984271 127.167924 
L 154.307385 128.169585 
L 154.6305 128.670415 
L 154.953615 127.668755 
L 155.599844 128.670415 
L 155.922958 128.169585 
L 156.246073 128.169585 
L 156.569187 129.171245 
L 157.215416 129.171245 
L 157.538531 128.670415 
L 158.507875 125.665433 
L 158.830989 125.164603 
L 160.123447 127.167924 
L 160.446562 126.667094 
L 161.092791 124.162942 
L 161.415905 123.161282 
L 161.73902 122.660451 
L 162.385249 122.660451 
L 162.708364 122.159621 
L 163.031478 121.15796 
L 163.354593 119.655469 
L 164.000822 118.653809 
L 164.323936 117.652148 
L 164.647051 117.151318 
L 165.616395 117.151318 
L 165.939509 116.149657 
L 166.262624 115.648827 
L 166.585738 114.647166 
L 166.908853 114.647166 
L 167.555082 115.648827 
L 167.878196 117.151318 
L 168.201311 116.149657 
L 168.524425 115.648827 
L 168.84754 114.647166 
L 169.170655 115.147997 
L 169.493769 115.147997 
L 169.816884 115.648827 
L 170.139998 115.147997 
L 170.463113 115.147997 
L 170.786227 115.648827 
L 171.109342 114.647166 
L 171.432456 114.146336 
L 171.755571 114.146336 
L 172.078685 113.144675 
L 172.724915 114.146336 
L 173.048029 115.648827 
L 173.371144 115.147997 
L 174.017373 112.643845 
L 174.340487 112.643845 
L 174.663602 112.143015 
L 174.986716 111.141354 
L 175.309831 109.138033 
L 175.632945 109.138033 
L 175.95606 108.136372 
L 176.279175 107.635542 
L 176.602289 108.136372 
L 176.925404 107.635542 
L 177.571633 108.637202 
L 177.894747 108.136372 
L 178.217862 106.633881 
L 178.540976 106.633881 
L 179.187205 104.63056 
L 179.51032 104.63056 
L 179.833435 103.628899 
L 180.156549 103.628899 
L 180.479664 102.627239 
L 180.802778 100.623917 
L 181.125893 100.623917 
L 181.772122 99.622257 
L 182.095236 99.622257 
L 182.418351 99.121426 
L 182.741465 99.121426 
L 184.357038 91.608972 
L 185.003267 90.607311 
L 185.326382 91.608972 
L 185.649496 91.608972 
L 186.61884 90.106481 
L 186.941955 90.106481 
L 187.265069 89.60565 
L 187.588184 88.103159 
L 188.557527 86.600669 
L 188.880642 85.599008 
L 189.526871 84.597347 
L 189.849985 82.594026 
L 190.1731 82.594026 
L 190.819329 80.590705 
L 191.142444 80.590705 
L 191.465558 79.589044 
L 191.788673 78.086553 
L 193.081131 76.083232 
L 193.404245 75.081571 
L 194.050475 74.079911 
L 194.373589 75.081571 
L 195.019818 74.079911 
L 195.342933 74.580741 
L 195.666047 74.079911 
L 195.989162 74.079911 
L 196.312276 74.580741 
L 196.635391 73.57908 
L 196.958505 73.57908 
L 197.604735 72.57742 
L 197.927849 71.575759 
L 198.250964 72.076589 
L 198.574078 73.57908 
L 198.897193 74.079911 
L 199.220307 72.57742 
L 199.543422 73.07825 
L 199.866536 72.076589 
L 200.512765 71.074929 
L 200.83588 70.073268 
L 201.482109 67.569116 
L 202.128338 66.567456 
L 202.451453 65.064965 
L 204.067025 62.560813 
L 204.39014 61.559153 
L 204.713255 61.559153 
L 205.036369 61.058322 
L 205.359484 60.056662 
L 205.682598 59.555831 
L 206.005713 60.056662 
L 206.651942 59.055001 
L 206.975056 59.555831 
L 207.298171 59.555831 
L 208.267515 61.058322 
L 208.590629 59.555831 
L 208.913744 59.555831 
L 209.236858 59.055001 
L 209.559973 59.555831 
L 209.883087 59.555831 
L 210.206202 57.55251 
L 210.529316 57.55251 
L 210.852431 58.05334 
L 211.175545 56.550849 
L 211.49866 56.050019 
L 211.821775 54.046698 
L 212.144889 53.545868 
L 212.468004 51.542546 
L 212.791118 50.540886 
L 213.114233 50.040055 
L 213.437347 50.040055 
L 214.083576 49.038395 
L 214.406691 49.539225 
L 214.729805 49.539225 
L 215.05292 49.038395 
L 215.699149 49.038395 
L 216.022264 47.535904 
L 216.345378 49.038395 
L 216.668493 49.539225 
L 216.991607 48.537564 
L 217.314722 48.036734 
L 217.637836 48.537564 
L 218.284065 48.537564 
L 218.60718 49.038395 
L 219.253409 48.036734 
L 219.576524 48.036734 
L 220.222753 49.038395 
L 220.868982 47.035073 
L 222.484555 47.035073 
L 222.807669 46.033413 
L 223.130784 46.033413 
L 223.453898 46.534243 
L 223.777013 46.033413 
L 224.100127 47.035073 
L 224.746356 45.031752 
L 225.069471 46.033413 
L 225.392585 45.532582 
L 225.7157 44.030092 
L 226.038815 45.031752 
L 226.361929 45.532582 
L 227.331273 41.52594 
L 227.654387 41.02511 
L 227.977502 41.02511 
L 228.300616 39.522619 
L 228.623731 37.018467 
L 228.946845 37.519297 
L 229.26996 36.016806 
L 229.916189 36.016806 
L 230.239304 36.517637 
L 230.562418 35.015146 
L 230.885533 34.514316 
L 231.531762 34.514316 
L 231.854876 34.013485 
L 232.177991 32.010164 
L 232.501105 32.010164 
L 232.82422 33.512655 
L 233.793564 32.010164 
L 234.116678 32.510994 
L 235.086022 32.510994 
L 235.732251 30.006843 
L 236.055365 29.005182 
L 236.37848 29.005182 
L 236.701595 28.003521 
L 237.670938 26.50103 
L 237.994053 27.502691 
L 238.317167 27.001861 
L 238.963396 27.001861 
L 239.286511 26.50103 
L 239.609625 27.001861 
L 239.93274 26.50103 
L 240.255855 27.001861 
L 240.578969 28.003521 
L 241.548313 28.003521 
L 241.871427 27.001861 
L 242.194542 26.50103 
L 242.517656 26.50103 
L 242.840771 27.001861 
L 243.163885 27.001861 
L 243.487 28.003521 
L 244.133229 27.001861 
L 244.456344 27.001861 
L 244.779458 26.0002 
L 245.102573 26.0002 
L 245.425687 27.001861 
L 245.748802 27.502691 
L 246.395031 27.502691 
L 247.04126 26.50103 
L 247.364375 28.003521 
L 248.010604 29.005182 
L 248.333718 30.006843 
L 248.656833 29.506012 
L 248.979947 30.507673 
L 249.626176 29.506012 
L 249.949291 28.504352 
L 250.272405 28.003521 
L 250.59552 27.001861 
L 250.918635 27.502691 
L 251.241749 26.0002 
L 251.564864 26.0002 
L 251.887978 25.49937 
L 252.211093 26.50103 
L 252.534207 26.0002 
L 252.857322 26.0002 
L 253.180436 26.50103 
L 254.796009 26.50103 
L 255.119124 27.001861 
L 255.442238 27.001861 
L 255.765353 26.50103 
L 256.088467 27.502691 
L 256.411582 26.50103 
L 256.734696 27.001861 
L 257.057811 26.50103 
L 257.380925 28.003521 
L 258.027155 27.001861 
L 258.350269 28.003521 
L 258.673384 28.504352 
L 258.996498 27.502691 
L 259.642727 26.50103 
L 259.965842 24.497709 
L 260.612071 24.497709 
L 260.935185 26.0002 
L 261.2583 26.0002 
L 261.581415 26.50103 
L 262.227644 25.49937 
L 262.873873 25.49937 
L 263.196987 26.0002 
L 263.520102 26.0002 
L 263.843216 23.996879 
L 265.458789 23.996879 
L 265.781904 23.496049 
L 266.105018 23.496049 
L 266.428133 24.998539 
L 266.751247 24.998539 
L 267.074362 24.497709 
L 267.397476 25.49937 
L 268.043705 23.496049 
L 268.36682 22.995218 
L 268.689935 22.995218 
L 269.013049 21.993558 
L 269.336164 22.995218 
L 269.659278 23.496049 
L 270.305507 23.496049 
L 270.951736 22.494388 
L 271.92108 22.494388 
L 272.244195 22.995218 
L 272.567309 22.995218 
L 272.890424 22.494388 
L 273.213538 22.494388 
L 273.536653 21.492727 
L 273.859767 21.993558 
L 274.182882 21.492727 
L 274.505996 21.993558 
L 275.152225 21.993558 
L 275.798455 23.996879 
L 276.121569 23.496049 
L 276.444684 23.996879 
L 276.767798 23.496049 
L 277.090913 24.497709 
L 278.060256 24.497709 
L 278.383371 23.996879 
L 278.706485 24.998539 
L 279.0296 24.998539 
L 279.352715 24.497709 
L 279.675829 26.0002 
L 279.998944 26.0002 
L 280.322058 27.001861 
L 280.645173 26.50103 
L 280.968287 25.49937 
L 281.614516 26.50103 
L 281.937631 27.502691 
L 282.260745 28.003521 
L 282.58386 27.001861 
L 282.906975 27.001861 
L 283.230089 27.502691 
L 283.553204 27.502691 
L 283.876318 28.504352 
L 284.199433 28.003521 
L 284.522547 28.003521 
L 284.845662 28.504352 
L 285.168776 28.003521 
L 285.491891 28.504352 
L 285.815005 28.504352 
L 286.13812 28.003521 
L 286.461235 28.504352 
L 286.784349 28.504352 
L 287.107464 29.506012 
L 287.430578 29.506012 
L 287.753693 30.507673 
L 288.076807 30.507673 
L 288.399922 30.006843 
L 288.723036 30.507673 
L 289.046151 30.507673 
L 289.369265 31.008503 
L 289.69238 31.008503 
L 290.015495 30.006843 
L 290.338609 30.006843 
L 290.661724 30.507673 
L 290.984838 30.507673 
L 291.307953 31.008503 
L 291.631067 32.010164 
L 292.923525 32.010164 
L 293.569755 33.011825 
L 294.215984 33.011825 
L 294.539098 33.512655 
L 294.862213 33.512655 
L 295.185327 34.514316 
L 295.508442 35.015146 
L 295.831556 35.015146 
L 296.154671 34.514316 
L 296.477785 34.514316 
L 296.8009 35.515976 
L 297.124015 36.016806 
L 297.770244 38.020128 
L 298.093358 38.020128 
L 298.416473 37.519297 
L 298.739587 37.519297 
L 299.062702 38.020128 
L 299.385816 38.020128 
L 299.708931 37.519297 
L 300.678275 37.519297 
L 301.001389 38.020128 
L 301.324504 37.519297 
L 301.647618 36.517637 
L 301.970733 36.517637 
L 302.293847 36.016806 
L 302.616962 36.016806 
L 302.940076 36.517637 
L 303.263191 37.519297 
L 303.586305 38.020128 
L 303.90942 37.519297 
L 304.232535 38.020128 
L 304.878764 38.020128 
L 305.201878 38.520958 
L 305.848107 38.520958 
L 306.171222 39.021788 
L 306.494336 38.520958 
L 306.817451 39.021788 
L 307.140565 39.021788 
L 307.46368 38.520958 
L 307.786795 38.520958 
L 308.109909 39.522619 
L 308.433024 39.522619 
L 308.756138 39.021788 
L 309.079253 39.522619 
L 309.725482 39.522619 
L 310.048596 39.021788 
L 310.371711 38.020128 
L 310.694825 38.020128 
L 311.664169 36.517637 
L 311.987284 36.517637 
L 312.310398 37.018467 
L 312.633513 37.018467 
L 312.956627 36.517637 
L 313.279742 37.018467 
L 313.602856 38.020128 
L 313.925971 38.520958 
L 314.249085 38.020128 
L 314.5722 38.020128 
L 314.895315 37.519297 
L 315.218429 37.519297 
L 315.541544 36.517637 
L 315.864658 36.517637 
L 316.187773 36.016806 
L 316.510887 37.018467 
L 316.834002 36.517637 
L 317.157116 37.519297 
L 317.480231 38.020128 
L 317.803345 37.018467 
L 318.12646 37.018467 
L 318.449575 36.517637 
L 318.772689 37.018467 
L 319.095804 37.018467 
L 320.388262 39.021788 
L 320.711376 39.021788 
L 321.034491 38.020128 
L 321.357605 38.520958 
L 321.68072 39.522619 
L 322.003835 39.522619 
L 322.326949 40.524279 
L 322.650064 40.524279 
L 322.973178 41.02511 
L 323.296293 40.524279 
L 323.619407 41.02511 
L 323.942522 41.02511 
L 324.588751 42.02677 
L 325.23498 41.02511 
L 325.558095 42.02677 
L 325.881209 41.52594 
L 326.527438 41.52594 
L 326.850553 42.527601 
L 327.496782 42.527601 
L 327.819896 43.028431 
L 328.78924 43.028431 
L 329.758584 44.530922 
L 330.727927 47.535904 
L 331.697271 47.535904 
L 332.020385 48.036734 
L 332.3435 49.038395 
L 333.312844 49.038395 
L 333.635958 49.539225 
L 333.959073 48.537564 
L 334.282187 50.040055 
L 334.605302 49.539225 
L 335.251531 49.539225 
L 335.574645 49.038395 
L 336.543989 49.038395 
L 336.867104 50.040055 
L 337.190218 50.540886 
L 337.513333 50.540886 
L 337.836447 51.041716 
L 338.159562 50.040055 
L 338.805791 51.041716 
L 339.128905 50.540886 
L 339.45202 51.041716 
L 340.421364 49.539225 
L 340.744478 50.540886 
L 341.067593 51.041716 
L 341.390707 51.041716 
L 341.713822 50.540886 
L 342.036936 51.542546 
L 343.00628 51.542546 
L 343.329395 52.544207 
L 343.652509 52.043377 
L 343.975624 52.544207 
L 344.621853 54.547528 
L 345.268082 54.547528 
L 345.914311 56.550849 
L 346.237425 56.550849 
L 346.56054 56.050019 
L 346.883655 56.050019 
L 347.206769 56.550849 
L 347.529884 56.550849 
L 347.852998 56.050019 
L 350.1148 56.050019 
L 350.437915 54.547528 
L 350.761029 54.046698 
L 351.084144 55.048359 
L 351.407258 55.549189 
L 351.730373 55.549189 
L 352.053487 55.048359 
L 352.699716 56.050019 
L 354.315289 56.050019 
L 354.638404 56.550849 
L 355.284633 56.550849 
L 355.607747 57.05168 
L 355.930862 57.05168 
L 356.253976 57.55251 
L 356.577091 58.554171 
L 357.22332 58.554171 
L 357.546435 59.055001 
L 357.869549 60.056662 
L 358.192664 60.557492 
L 358.515778 60.056662 
L 358.838893 60.056662 
L 359.162007 58.554171 
L 359.485122 58.05334 
L 360.131351 58.05334 
L 361.100695 59.555831 
L 361.423809 61.058322 
L 362.393153 61.058322 
L 363.039382 62.059983 
L 363.362496 63.061644 
L 363.685611 63.061644 
L 364.33184 64.063304 
L 364.654955 64.063304 
L 364.978069 64.564135 
L 365.624298 64.564135 
L 366.270527 63.562474 
L 366.593642 64.063304 
L 366.916756 63.562474 
L 367.239871 63.562474 
L 367.562985 64.063304 
L 367.8861 64.063304 
L 368.209215 63.562474 
L 370.147902 63.562474 
L 370.471016 64.564135 
L 371.117245 64.564135 
L 371.44036 65.565795 
L 371.763475 66.066626 
L 372.409704 66.066626 
L 372.732818 66.567456 
L 373.055933 66.567456 
L 373.379047 67.569116 
L 374.348391 67.569116 
L 374.99462 68.570777 
L 375.317735 69.572438 
L 375.640849 69.071607 
L 376.610193 70.574098 
L 378.225765 70.574098 
L 378.54888 71.074929 
L 378.871995 72.076589 
L 380.487567 72.076589 
L 380.810682 73.07825 
L 381.456911 73.07825 
L 381.780025 73.57908 
L 382.10314 73.57908 
L 382.749369 74.580741 
L 383.072484 74.580741 
L 383.718713 75.582402 
L 384.041827 75.582402 
L 384.364942 75.081571 
L 385.011171 75.081571 
L 385.334285 76.083232 
L 385.6574 76.083232 
L 385.980515 75.582402 
L 386.949858 75.582402 
L 387.596087 76.584062 
L 387.919202 76.584062 
L 388.242316 78.086553 
L 388.888545 78.086553 
L 389.21166 78.587383 
L 389.534775 78.587383 
L 389.857889 78.086553 
L 390.504118 78.086553 
L 391.150347 79.088214 
L 391.473462 79.088214 
L 391.796576 79.589044 
L 392.119691 79.589044 
L 392.442805 80.089874 
L 393.089035 80.089874 
L 394.381493 82.093196 
L 395.027722 82.093196 
L 395.350836 82.594026 
L 396.643295 82.594026 
L 396.966409 82.093196 
L 397.935753 82.093196 
L 398.258867 83.094856 
L 398.905096 83.094856 
L 399.551325 84.096517 
L 401.813127 84.096517 
L 402.136242 84.597347 
L 402.782471 84.597347 
L 403.751815 86.099838 
L 404.074929 86.099838 
L 404.398044 86.600669 
L 405.044273 86.600669 
L 405.044273 86.600669 
" clip-path="url(#pda3f7d4f23)" style="fill: none; stroke: #1f77b4; stroke-width: 1.5; stroke-linecap: square"/>
   </g>
   <g id="line2d_13">
    <path d="M 81.929727 235.347273 
L 405.044273 86.600669 
" clip-path="url(#pda3f7d4f23)" style="fill: none; stroke-dasharray: 5.55,2.4; stroke-dashoffset: 0; stroke: #ff7f0e; stroke-width: 1.5"/>
   </g>
   <g id="line2d_14">
    <defs>
     <path id="m785d3bf8ff" d="M 0 3 
C 0.795609 3 1.55874 2.683901 2.12132 2.12132 
C 2.683901 1.55874 3 0.795609 3 0 
C 3 -0.795609 2.683901 -1.55874 2.12132 -2.12132 
C 1.55874 -2.683901 0.795609 -3 0 -3 
C -0.795609 -3 -1.55874 -2.683901 -2.12132 -2.12132 
C -2.683901 -1.55874 -3 -0.795609 -3 0 
C -3 0.795609 -2.683901 1.55874 -2.12132 2.12132 
C -1.55874 2.683901 -0.795609 3 0 3 
z
" style="stroke: #ff0000"/>
    </defs>
    <g clip-path="url(#pda3f7d4f23)">
     <use xlink:href="#m785d3bf8ff" x="188.557527" y="86.600669" style="fill: #ff0000; stroke: #ff0000"/>
    </g>
   </g>
   <g id="line2d_15">
    <g clip-path="url(#pda3f7d4f23)">
     <use xlink:href="#m785d3bf8ff" x="273.536653" y="21.492727" style="fill: #ff0000; stroke: #ff0000"/>
    </g>
   </g>
   <g id="patch_3">
    <path d="M 65.774 246.04 
L 65.774 10.8 
" style="fill: none; stroke: #000000; stroke-width: 0.8; stroke-linejoin: miter; stroke-linecap: square"/>
   </g>
   <g id="patch_4">
    <path d="M 421.2 246.04 
L 421.2 10.8 
" style="fill: none; stroke: #000000; stroke-width: 0.8; stroke-linejoin: miter; stroke-linecap: square"/>
   </g>
   <g id="patch_5">
    <path d="M 65.774 246.04 
L 421.2 246.04 
" style="fill: none; stroke: #000000; stroke-width: 0.8; stroke-linejoin: miter; stroke-linecap: square"/>
   </g>
   <g id="patch_6">
    <path d="M 65.774 10.8 
L 421.2 10.8 
" style="fill: none; stroke: #000000; stroke-width: 0.8; stroke-linejoin: miter; stroke-linecap: square"/>
   </g>
   <g id="patch_7">
    <path d="M 386.044464 120.77697 
Q 395.058472 104.562835 403.529232 89.32588 
" style="fill: none; stroke: #000000; stroke-linecap: round"/>
    <path d="M 399.837613 91.850152 
L 403.529232 89.32588 
L 403.333679 93.793738 
" style="fill: none; stroke: #000000; stroke-linecap: round"/>
   </g>
   <g id="text_14">
    <!-- Only remote -->
    <g transform="translate(344.016148 132.125356)scale(0.1 -0.1)">
     <defs>
      <path id="DejaVuSans-4f" d="M 2522 4238 
Q 1834 4238 1429 3725 
Q 1025 3213 1025 2328 
Q 1025 1447 1429 934 
Q 1834 422 2522 422 
Q 3209 422 3611 934 
Q 4013 1447 4013 2328 
Q 4013 3213 3611 3725 
Q 3209 4238 2522 4238 
z
M 2522 4750 
Q 3503 4750 4090 4092 
Q 4678 3434 4678 2328 
Q 4678 1225 4090 567 
Q 3503 -91 2522 -91 
Q 1538 -91 948 565 
Q 359 1222 359 2328 
Q 359 3434 948 4092 
Q 1538 4750 2522 4750 
z
" transform="scale(0.015625)"/>
     </defs>
     <use xlink:href="#DejaVuSans-4f"/>
     <use xlink:href="#DejaVuSans-6e" x="78.710938"/>
     <use xlink:href="#DejaVuSans-6c" x="142.089844"/>
     <use xlink:href="#DejaVuSans-79" x="169.873047"/>
     <use xlink:href="#DejaVuSans-20" x="229.052734"/>
     <use xlink:href="#DejaVuSans-72" x="260.839844"/>
     <use xlink:href="#DejaVuSans-65" x="299.703125"/>
     <use xlink:href="#DejaVuSans-6d" x="361.226562"/>
     <use xlink:href="#DejaVuSans-6f" x="458.638672"/>
     <use xlink:href="#DejaVuSans-74" x="519.820312"/>
     <use xlink:href="#DejaVuSans-65" x="559.029297"/>
    </g>
    <!-- predictions -->
    <g transform="translate(347.355991 143.323169)scale(0.1 -0.1)">
     <use xlink:href="#DejaVuSans-70"/>
     <use xlink:href="#DejaVuSans-72" x="63.476562"/>
     <use xlink:href="#DejaVuSans-65" x="102.339844"/>
     <use xlink:href="#DejaVuSans-64" x="163.863281"/>
     <use xlink:href="#DejaVuSans-69" x="227.339844"/>
     <use xlink:href="#DejaVuSans-63" x="255.123047"/>
     <use xlink:href="#DejaVuSans-74" x="310.103516"/>
     <use xlink:href="#DejaVuSans-69" x="349.3125"/>
     <use xlink:href="#DejaVuSans-6f" x="377.095703"/>
     <use xlink:href="#DejaVuSans-6e" x="438.277344"/>
     <use xlink:href="#DejaVuSans-73" x="501.65625"/>
    </g>
    <!-- (100% / 0.695) -->
    <g transform="translate(337.671616 154.520981)scale(0.1 -0.1)">
     <defs>
      <path id="DejaVuSans-2f" d="M 1625 4666 
L 2156 4666 
L 531 -594 
L 0 -594 
L 1625 4666 
z
" transform="scale(0.015625)"/>
      <path id="DejaVuSans-39" d="M 703 97 
L 703 672 
Q 941 559 1184 500 
Q 1428 441 1663 441 
Q 2288 441 2617 861 
Q 2947 1281 2994 2138 
Q 2813 1869 2534 1725 
Q 2256 1581 1919 1581 
Q 1219 1581 811 2004 
Q 403 2428 403 3163 
Q 403 3881 828 4315 
Q 1253 4750 1959 4750 
Q 2769 4750 3195 4129 
Q 3622 3509 3622 2328 
Q 3622 1225 3098 567 
Q 2575 -91 1691 -91 
Q 1453 -91 1209 -44 
Q 966 3 703 97 
z
M 1959 2075 
Q 2384 2075 2632 2365 
Q 2881 2656 2881 3163 
Q 2881 3666 2632 3958 
Q 2384 4250 1959 4250 
Q 1534 4250 1286 3958 
Q 1038 3666 1038 3163 
Q 1038 2656 1286 2365 
Q 1534 2075 1959 2075 
z
" transform="scale(0.015625)"/>
      <path id="DejaVuSans-35" d="M 691 4666 
L 3169 4666 
L 3169 4134 
L 1269 4134 
L 1269 2991 
Q 1406 3038 1543 3061 
Q 1681 3084 1819 3084 
Q 2600 3084 3056 2656 
Q 3513 2228 3513 1497 
Q 3513 744 3044 326 
Q 2575 -91 1722 -91 
Q 1428 -91 1123 -41 
Q 819 9 494 109 
L 494 744 
Q 775 591 1075 516 
Q 1375 441 1709 441 
Q 2250 441 2565 725 
Q 2881 1009 2881 1497 
Q 2881 1984 2565 2268 
Q 2250 2553 1709 2553 
Q 1456 2553 1204 2497 
Q 953 2441 691 2322 
L 691 4666 
z
" transform="scale(0.015625)"/>
     </defs>
     <use xlink:href="#DejaVuSans-28"/>
     <use xlink:href="#DejaVuSans-31" x="39.013672"/>
     <use xlink:href="#DejaVuSans-30" x="102.636719"/>
     <use xlink:href="#DejaVuSans-30" x="166.259766"/>
     <use xlink:href="#DejaVuSans-25" x="229.882812"/>
     <use xlink:href="#DejaVuSans-20" x="324.902344"/>
     <use xlink:href="#DejaVuSans-2f" x="356.689453"/>
     <use xlink:href="#DejaVuSans-20" x="390.380859"/>
     <use xlink:href="#DejaVuSans-30" x="422.167969"/>
     <use xlink:href="#DejaVuSans-2e" x="485.791016"/>
     <use xlink:href="#DejaVuSans-36" x="517.578125"/>
     <use xlink:href="#DejaVuSans-39" x="581.201172"/>
     <use xlink:href="#DejaVuSans-35" x="644.824219"/>
     <use xlink:href="#DejaVuSans-29" x="708.447266"/>
    </g>
   </g>
   <g id="patch_8">
    <path d="M 106.936194 232.831258 
Q 95.426565 233.989294 85.029353 235.035405 
" style="fill: none; stroke: #000000; stroke-linecap: round"/>
    <path d="M 89.209477 236.624922 
L 85.029353 235.035405 
L 88.809041 232.645016 
" style="fill: none; stroke: #000000; stroke-linecap: round"/>
   </g>
   <g id="text_15">
    <!-- Only local -->
    <g transform="translate(117.236759 220.87196)scale(0.1 -0.1)">
     <use xlink:href="#DejaVuSans-4f"/>
     <use xlink:href="#DejaVuSans-6e" x="78.710938"/>
     <use xlink:href="#DejaVuSans-6c" x="142.089844"/>
     <use xlink:href="#DejaVuSans-79" x="169.873047"/>
     <use xlink:href="#DejaVuSans-20" x="229.052734"/>
     <use xlink:href="#DejaVuSans-6c" x="260.839844"/>
     <use xlink:href="#DejaVuSans-6f" x="288.623047"/>
     <use xlink:href="#DejaVuSans-63" x="349.804688"/>
     <use xlink:href="#DejaVuSans-61" x="404.785156"/>
     <use xlink:href="#DejaVuSans-6c" x="466.064453"/>
    </g>
    <!-- predictions -->
    <g transform="translate(114.241446 232.069773)scale(0.1 -0.1)">
     <use xlink:href="#DejaVuSans-70"/>
     <use xlink:href="#DejaVuSans-72" x="63.476562"/>
     <use xlink:href="#DejaVuSans-65" x="102.339844"/>
     <use xlink:href="#DejaVuSans-64" x="163.863281"/>
     <use xlink:href="#DejaVuSans-69" x="227.339844"/>
     <use xlink:href="#DejaVuSans-63" x="255.123047"/>
     <use xlink:href="#DejaVuSans-74" x="310.103516"/>
     <use xlink:href="#DejaVuSans-69" x="349.3125"/>
     <use xlink:href="#DejaVuSans-6f" x="377.095703"/>
     <use xlink:href="#DejaVuSans-6e" x="438.277344"/>
     <use xlink:href="#DejaVuSans-73" x="501.65625"/>
    </g>
    <!-- (0% / 0.632) -->
    <g transform="translate(110.919571 243.267585)scale(0.1 -0.1)">
     <defs>
      <path id="DejaVuSans-33" d="M 2597 2516 
Q 3050 2419 3304 2112 
Q 3559 1806 3559 1356 
Q 3559 666 3084 287 
Q 2609 -91 1734 -91 
Q 1441 -91 1130 -33 
Q 819 25 488 141 
L 488 750 
Q 750 597 1062 519 
Q 1375 441 1716 441 
Q 2309 441 2620 675 
Q 2931 909 2931 1356 
Q 2931 1769 2642 2001 
Q 2353 2234 1838 2234 
L 1294 2234 
L 1294 2753 
L 1863 2753 
Q 2328 2753 2575 2939 
Q 2822 3125 2822 3475 
Q 2822 3834 2567 4026 
Q 2313 4219 1838 4219 
Q 1578 4219 1281 4162 
Q 984 4106 628 3988 
L 628 4550 
Q 988 4650 1302 4700 
Q 1616 4750 1894 4750 
Q 2613 4750 3031 4423 
Q 3450 4097 3450 3541 
Q 3450 3153 3228 2886 
Q 3006 2619 2597 2516 
z
" transform="scale(0.015625)"/>
     </defs>
     <use xlink:href="#DejaVuSans-28"/>
     <use xlink:href="#DejaVuSans-30" x="39.013672"/>
     <use xlink:href="#DejaVuSans-25" x="102.636719"/>
     <use xlink:href="#DejaVuSans-20" x="197.65625"/>
     <use xlink:href="#DejaVuSans-2f" x="229.443359"/>
     <use xlink:href="#DejaVuSans-20" x="263.134766"/>
     <use xlink:href="#DejaVuSans-30" x="294.921875"/>
     <use xlink:href="#DejaVuSans-2e" x="358.544922"/>
     <use xlink:href="#DejaVuSans-36" x="390.332031"/>
     <use xlink:href="#DejaVuSans-33" x="453.955078"/>
     <use xlink:href="#DejaVuSans-32" x="517.578125"/>
     <use xlink:href="#DejaVuSans-29" x="581.201172"/>
    </g>
   </g>
   <g id="text_16">
    <!-- remote-even -->
    <g transform="translate(156.486434 108.323169)scale(0.1 -0.1)">
     <use xlink:href="#DejaVuSans-72"/>
     <use xlink:href="#DejaVuSans-65" x="38.863281"/>
     <use xlink:href="#DejaVuSans-6d" x="100.386719"/>
     <use xlink:href="#DejaVuSans-6f" x="197.798828"/>
     <use xlink:href="#DejaVuSans-74" x="258.980469"/>
     <use xlink:href="#DejaVuSans-65" x="298.189453"/>
     <use xlink:href="#DejaVuSans-2d" x="359.712891"/>
     <use xlink:href="#DejaVuSans-65" x="395.796875"/>
     <use xlink:href="#DejaVuSans-76" x="457.320312"/>
     <use xlink:href="#DejaVuSans-65" x="516.5"/>
     <use xlink:href="#DejaVuSans-6e" x="578.023438"/>
    </g>
    <!-- (33% / 0.695) -->
    <g transform="translate(154.366121 119.520981)scale(0.1 -0.1)">
     <use xlink:href="#DejaVuSans-28"/>
     <use xlink:href="#DejaVuSans-33" x="39.013672"/>
     <use xlink:href="#DejaVuSans-33" x="102.636719"/>
     <use xlink:href="#DejaVuSans-25" x="166.259766"/>
     <use xlink:href="#DejaVuSans-20" x="261.279297"/>
     <use xlink:href="#DejaVuSans-2f" x="293.066406"/>
     <use xlink:href="#DejaVuSans-20" x="326.757812"/>
     <use xlink:href="#DejaVuSans-30" x="358.544922"/>
     <use xlink:href="#DejaVuSans-2e" x="422.167969"/>
     <use xlink:href="#DejaVuSans-36" x="453.955078"/>
     <use xlink:href="#DejaVuSans-39" x="517.578125"/>
     <use xlink:href="#DejaVuSans-35" x="581.201172"/>
     <use xlink:href="#DejaVuSans-29" x="644.824219"/>
    </g>
   </g>
   <g id="text_17">
    <!-- (59% / 0.722) -->
    <g transform="translate(239.345246 39.41304)scale(0.1 -0.1)">
     <use xlink:href="#DejaVuSans-28"/>
     <use xlink:href="#DejaVuSans-35" x="39.013672"/>
     <use xlink:href="#DejaVuSans-39" x="102.636719"/>
     <use xlink:href="#DejaVuSans-25" x="166.259766"/>
     <use xlink:href="#DejaVuSans-20" x="261.279297"/>
     <use xlink:href="#DejaVuSans-2f" x="293.066406"/>
     <use xlink:href="#DejaVuSans-20" x="326.757812"/>
     <use xlink:href="#DejaVuSans-30" x="358.544922"/>
     <use xlink:href="#DejaVuSans-2e" x="422.167969"/>
     <use xlink:href="#DejaVuSans-37" x="453.955078"/>
     <use xlink:href="#DejaVuSans-32" x="517.578125"/>
     <use xlink:href="#DejaVuSans-32" x="581.201172"/>
     <use xlink:href="#DejaVuSans-29" x="644.824219"/>
    </g>
   </g>
   <g id="text_18">
    <!-- AUC-RAC = 1.021 -->
    <g transform="translate(69.32826 20.750837)scale(0.1 -0.1)">
     <defs>
      <path id="DejaVuSans-41" d="M 2188 4044 
L 1331 1722 
L 3047 1722 
L 2188 4044 
z
M 1831 4666 
L 2547 4666 
L 4325 0 
L 3669 0 
L 3244 1197 
L 1141 1197 
L 716 0 
L 50 0 
L 1831 4666 
z
" transform="scale(0.015625)"/>
      <path id="DejaVuSans-55" d="M 556 4666 
L 1191 4666 
L 1191 1831 
Q 1191 1081 1462 751 
Q 1734 422 2344 422 
Q 2950 422 3222 751 
Q 3494 1081 3494 1831 
L 3494 4666 
L 4128 4666 
L 4128 1753 
Q 4128 841 3676 375 
Q 3225 -91 2344 -91 
Q 1459 -91 1007 375 
Q 556 841 556 1753 
L 556 4666 
z
" transform="scale(0.015625)"/>
      <path id="DejaVuSans-43" d="M 4122 4306 
L 4122 3641 
Q 3803 3938 3442 4084 
Q 3081 4231 2675 4231 
Q 1875 4231 1450 3742 
Q 1025 3253 1025 2328 
Q 1025 1406 1450 917 
Q 1875 428 2675 428 
Q 3081 428 3442 575 
Q 3803 722 4122 1019 
L 4122 359 
Q 3791 134 3420 21 
Q 3050 -91 2638 -91 
Q 1578 -91 968 557 
Q 359 1206 359 2328 
Q 359 3453 968 4101 
Q 1578 4750 2638 4750 
Q 3056 4750 3426 4639 
Q 3797 4528 4122 4306 
z
" transform="scale(0.015625)"/>
     </defs>
     <use xlink:href="#DejaVuSans-41"/>
     <use xlink:href="#DejaVuSans-55" x="68.408203"/>
     <use xlink:href="#DejaVuSans-43" x="141.601562"/>
     <use xlink:href="#DejaVuSans-2d" x="211.425781"/>
     <use xlink:href="#DejaVuSans-52" x="247.509766"/>
     <use xlink:href="#DejaVuSans-41" x="312.992188"/>
     <use xlink:href="#DejaVuSans-43" x="379.650391"/>
     <use xlink:href="#DejaVuSans-20" x="449.474609"/>
     <use xlink:href="#DejaVuSans-3d" x="481.261719"/>
     <use xlink:href="#DejaVuSans-20" x="565.050781"/>
     <use xlink:href="#DejaVuSans-31" x="596.837891"/>
     <use xlink:href="#DejaVuSans-2e" x="660.460938"/>
     <use xlink:href="#DejaVuSans-30" x="692.248047"/>
     <use xlink:href="#DejaVuSans-32" x="755.871094"/>
     <use xlink:href="#DejaVuSans-31" x="819.494141"/>
    </g>
   </g>
   <g id="legend_1">
    <g id="patch_9">
     <path d="M 253.009375 241.04 
L 414.2 241.04 
Q 416.2 241.04 416.2 239.04 
L 416.2 210.68375 
Q 416.2 208.68375 414.2 208.68375 
L 253.009375 208.68375 
Q 251.009375 208.68375 251.009375 210.68375 
L 251.009375 239.04 
Q 251.009375 241.04 253.009375 241.04 
z
" style="fill: #ffffff; opacity: 0.8; stroke: #cccccc; stroke-linejoin: miter"/>
    </g>
    <g id="line2d_16">
     <path d="M 255.009375 216.782187 
L 265.009375 216.782187 
L 275.009375 216.782187 
" style="fill: none; stroke: #1f77b4; stroke-width: 1.5; stroke-linecap: square"/>
    </g>
    <g id="text_19">
     <!-- BiSupervised -->
     <g transform="translate(283.009375 220.282187)scale(0.1 -0.1)">
      <defs>
       <path id="DejaVuSans-42" d="M 1259 2228 
L 1259 519 
L 2272 519 
Q 2781 519 3026 730 
Q 3272 941 3272 1375 
Q 3272 1813 3026 2020 
Q 2781 2228 2272 2228 
L 1259 2228 
z
M 1259 4147 
L 1259 2741 
L 2194 2741 
Q 2656 2741 2882 2914 
Q 3109 3088 3109 3444 
Q 3109 3797 2882 3972 
Q 2656 4147 2194 4147 
L 1259 4147 
z
M 628 4666 
L 2241 4666 
Q 2963 4666 3353 4366 
Q 3744 4066 3744 3513 
Q 3744 3084 3544 2831 
Q 3344 2578 2956 2516 
Q 3422 2416 3680 2098 
Q 3938 1781 3938 1306 
Q 3938 681 3513 340 
Q 3088 0 2303 0 
L 628 0 
L 628 4666 
z
" transform="scale(0.015625)"/>
      </defs>
      <use xlink:href="#DejaVuSans-42"/>
      <use xlink:href="#DejaVuSans-69" x="68.603516"/>
      <use xlink:href="#DejaVuSans-53" x="96.386719"/>
      <use xlink:href="#DejaVuSans-75" x="159.863281"/>
      <use xlink:href="#DejaVuSans-70" x="223.242188"/>
      <use xlink:href="#DejaVuSans-65" x="286.71875"/>
      <use xlink:href="#DejaVuSans-72" x="348.242188"/>
      <use xlink:href="#DejaVuSans-76" x="389.355469"/>
      <use xlink:href="#DejaVuSans-69" x="448.535156"/>
      <use xlink:href="#DejaVuSans-73" x="476.318359"/>
      <use xlink:href="#DejaVuSans-65" x="528.417969"/>
      <use xlink:href="#DejaVuSans-64" x="589.941406"/>
     </g>
    </g>
    <g id="line2d_17">
     <path d="M 255.009375 231.460312 
L 265.009375 231.460312 
L 275.009375 231.460312 
" style="fill: none; stroke-dasharray: 5.55,2.4; stroke-dashoffset: 0; stroke: #ff7f0e; stroke-width: 1.5"/>
    </g>
    <g id="text_20">
     <!-- Random (expected value) -->
     <g transform="translate(283.009375 234.960312)scale(0.1 -0.1)">
      <use xlink:href="#DejaVuSans-52"/>
      <use xlink:href="#DejaVuSans-61" x="67.232422"/>
      <use xlink:href="#DejaVuSans-6e" x="128.511719"/>
      <use xlink:href="#DejaVuSans-64" x="191.890625"/>
      <use xlink:href="#DejaVuSans-6f" x="255.367188"/>
      <use xlink:href="#DejaVuSans-6d" x="316.548828"/>
      <use xlink:href="#DejaVuSans-20" x="413.960938"/>
      <use xlink:href="#DejaVuSans-28" x="445.748047"/>
      <use xlink:href="#DejaVuSans-65" x="484.761719"/>
      <use xlink:href="#DejaVuSans-78" x="544.535156"/>
      <use xlink:href="#DejaVuSans-70" x="603.714844"/>
      <use xlink:href="#DejaVuSans-65" x="667.191406"/>
      <use xlink:href="#DejaVuSans-63" x="728.714844"/>
      <use xlink:href="#DejaVuSans-74" x="783.695312"/>
      <use xlink:href="#DejaVuSans-65" x="822.904297"/>
      <use xlink:href="#DejaVuSans-64" x="884.427734"/>
      <use xlink:href="#DejaVuSans-20" x="947.904297"/>
      <use xlink:href="#DejaVuSans-76" x="979.691406"/>
      <use xlink:href="#DejaVuSans-61" x="1038.871094"/>
      <use xlink:href="#DejaVuSans-6c" x="1100.150391"/>
      <use xlink:href="#DejaVuSans-75" x="1127.933594"/>
      <use xlink:href="#DejaVuSans-65" x="1191.3125"/>
      <use xlink:href="#DejaVuSans-29" x="1252.835938"/>
     </g>
    </g>
   </g>
  </g>
 </g>
 <defs>
  <clipPath id="pda3f7d4f23">
   <rect x="65.774" y="10.8" width="355.426" height="235.24"/>
  </clipPath>
 </defs>
</svg>
