<?xml version="1.0" encoding="utf-8" standalone="no"?>
<!DOCTYPE svg PUBLIC "-//W3C//DTD SVG 1.1//EN"
  "http://www.w3.org/Graphics/SVG/1.1/DTD/svg11.dtd">
<svg xmlns:xlink="http://www.w3.org/1999/xlink" width="432pt" height="288pt" viewBox="0 0 432 288" xmlns="http://www.w3.org/2000/svg" version="1.1">
 <metadata>
  <rdf:RDF xmlns:dc="http://purl.org/dc/elements/1.1/" xmlns:cc="http://creativecommons.org/ns#" xmlns:rdf="http://www.w3.org/1999/02/22-rdf-syntax-ns#">
   <cc:Work>
    <dc:type rdf:resource="http://purl.org/dc/dcmitype/StillImage"/>
    <dc:date>2023-01-19T13:45:49.803701</dc:date>
    <dc:format>image/svg+xml</dc:format>
    <dc:creator>
     <cc:Agent>
      <dc:title>Matplotlib v3.5.2, https://matplotlib.org/</dc:title>
     </cc:Agent>
    </dc:creator>
   </cc:Work>
  </rdf:RDF>
 </metadata>
 <defs>
  <style type="text/css">*{stroke-linejoin: round; stroke-linecap: butt}</style>
 </defs>
 <g id="figure_1">
  <g id="patch_1">
   <path d="M 0 288 
L 432 288 
L 432 0 
L 0 0 
z
" style="fill: #ffffff"/>
  </g>
  <g id="axes_1">
   <g id="patch_2">
    <path d="M 71.984 246.04 
L 421.2 246.04 
L 421.2 10.8 
L 71.984 10.8 
z
" style="fill: #ffffff"/>
   </g>
   <g id="matplotlib.axis_1">
    <g id="xtick_1">
     <g id="line2d_1">
      <defs>
       <path id="mec5b382f15" d="M 0 0 
L 0 3.5 
" style="stroke: #000000; stroke-width: 0.8"/>
      </defs>
      <g>
       <use xlink:href="#mec5b382f15" x="87.857455" y="246.04" style="stroke: #000000; stroke-width: 0.8"/>
      </g>
     </g>
     <g id="text_1">
      <!-- 0% -->
      <g transform="translate(79.925423 260.638438)scale(0.1 -0.1)">
       <defs>
        <path id="DejaVuSans-30" d="M 2034 4250 
Q 1547 4250 1301 3770 
Q 1056 3291 1056 2328 
Q 1056 1369 1301 889 
Q 1547 409 2034 409 
Q 2525 409 2770 889 
Q 3016 1369 3016 2328 
Q 3016 3291 2770 3770 
Q 2525 4250 2034 4250 
z
M 2034 4750 
Q 2819 4750 3233 4129 
Q 3647 3509 3647 2328 
Q 3647 1150 3233 529 
Q 2819 -91 2034 -91 
Q 1250 -91 836 529 
Q 422 1150 422 2328 
Q 422 3509 836 4129 
Q 1250 4750 2034 4750 
z
" transform="scale(0.015625)"/>
        <path id="DejaVuSans-25" d="M 4653 2053 
Q 4381 2053 4226 1822 
Q 4072 1591 4072 1178 
Q 4072 772 4226 539 
Q 4381 306 4653 306 
Q 4919 306 5073 539 
Q 5228 772 5228 1178 
Q 5228 1588 5073 1820 
Q 4919 2053 4653 2053 
z
M 4653 2450 
Q 5147 2450 5437 2106 
Q 5728 1763 5728 1178 
Q 5728 594 5436 251 
Q 5144 -91 4653 -91 
Q 4153 -91 3862 251 
Q 3572 594 3572 1178 
Q 3572 1766 3864 2108 
Q 4156 2450 4653 2450 
z
M 1428 4353 
Q 1159 4353 1004 4120 
Q 850 3888 850 3481 
Q 850 3069 1003 2837 
Q 1156 2606 1428 2606 
Q 1700 2606 1854 2837 
Q 2009 3069 2009 3481 
Q 2009 3884 1853 4118 
Q 1697 4353 1428 4353 
z
M 4250 4750 
L 4750 4750 
L 1831 -91 
L 1331 -91 
L 4250 4750 
z
M 1428 4750 
Q 1922 4750 2215 4408 
Q 2509 4066 2509 3481 
Q 2509 2891 2217 2550 
Q 1925 2209 1428 2209 
Q 931 2209 642 2551 
Q 353 2894 353 3481 
Q 353 4063 643 4406 
Q 934 4750 1428 4750 
z
" transform="scale(0.015625)"/>
       </defs>
       <use xlink:href="#DejaVuSans-30"/>
       <use xlink:href="#DejaVuSans-25" x="63.623047"/>
      </g>
     </g>
    </g>
    <g id="xtick_2">
     <g id="line2d_2">
      <g>
       <use xlink:href="#mec5b382f15" x="151.351273" y="246.04" style="stroke: #000000; stroke-width: 0.8"/>
      </g>
     </g>
     <g id="text_2">
      <!-- 20% -->
      <g transform="translate(140.237991 260.638438)scale(0.1 -0.1)">
       <defs>
        <path id="DejaVuSans-32" d="M 1228 531 
L 3431 531 
L 3431 0 
L 469 0 
L 469 531 
Q 828 903 1448 1529 
Q 2069 2156 2228 2338 
Q 2531 2678 2651 2914 
Q 2772 3150 2772 3378 
Q 2772 3750 2511 3984 
Q 2250 4219 1831 4219 
Q 1534 4219 1204 4116 
Q 875 4013 500 3803 
L 500 4441 
Q 881 4594 1212 4672 
Q 1544 4750 1819 4750 
Q 2544 4750 2975 4387 
Q 3406 4025 3406 3419 
Q 3406 3131 3298 2873 
Q 3191 2616 2906 2266 
Q 2828 2175 2409 1742 
Q 1991 1309 1228 531 
z
" transform="scale(0.015625)"/>
       </defs>
       <use xlink:href="#DejaVuSans-32"/>
       <use xlink:href="#DejaVuSans-30" x="63.623047"/>
       <use xlink:href="#DejaVuSans-25" x="127.246094"/>
      </g>
     </g>
    </g>
    <g id="xtick_3">
     <g id="line2d_3">
      <g>
       <use xlink:href="#mec5b382f15" x="214.845091" y="246.04" style="stroke: #000000; stroke-width: 0.8"/>
      </g>
     </g>
     <g id="text_3">
      <!-- 40% -->
      <g transform="translate(203.73181 260.638438)scale(0.1 -0.1)">
       <defs>
        <path id="DejaVuSans-34" d="M 2419 4116 
L 825 1625 
L 2419 1625 
L 2419 4116 
z
M 2253 4666 
L 3047 4666 
L 3047 1625 
L 3713 1625 
L 3713 1100 
L 3047 1100 
L 3047 0 
L 2419 0 
L 2419 1100 
L 313 1100 
L 313 1709 
L 2253 4666 
z
" transform="scale(0.015625)"/>
       </defs>
       <use xlink:href="#DejaVuSans-34"/>
       <use xlink:href="#DejaVuSans-30" x="63.623047"/>
       <use xlink:href="#DejaVuSans-25" x="127.246094"/>
      </g>
     </g>
    </g>
    <g id="xtick_4">
     <g id="line2d_4">
      <g>
       <use xlink:href="#mec5b382f15" x="278.338909" y="246.04" style="stroke: #000000; stroke-width: 0.8"/>
      </g>
     </g>
     <g id="text_4">
      <!-- 60% -->
      <g transform="translate(267.225628 260.638438)scale(0.1 -0.1)">
       <defs>
        <path id="DejaVuSans-36" d="M 2113 2584 
Q 1688 2584 1439 2293 
Q 1191 2003 1191 1497 
Q 1191 994 1439 701 
Q 1688 409 2113 409 
Q 2538 409 2786 701 
Q 3034 994 3034 1497 
Q 3034 2003 2786 2293 
Q 2538 2584 2113 2584 
z
M 3366 4563 
L 3366 3988 
Q 3128 4100 2886 4159 
Q 2644 4219 2406 4219 
Q 1781 4219 1451 3797 
Q 1122 3375 1075 2522 
Q 1259 2794 1537 2939 
Q 1816 3084 2150 3084 
Q 2853 3084 3261 2657 
Q 3669 2231 3669 1497 
Q 3669 778 3244 343 
Q 2819 -91 2113 -91 
Q 1303 -91 875 529 
Q 447 1150 447 2328 
Q 447 3434 972 4092 
Q 1497 4750 2381 4750 
Q 2619 4750 2861 4703 
Q 3103 4656 3366 4563 
z
" transform="scale(0.015625)"/>
       </defs>
       <use xlink:href="#DejaVuSans-36"/>
       <use xlink:href="#DejaVuSans-30" x="63.623047"/>
       <use xlink:href="#DejaVuSans-25" x="127.246094"/>
      </g>
     </g>
    </g>
    <g id="xtick_5">
     <g id="line2d_5">
      <g>
       <use xlink:href="#mec5b382f15" x="341.832727" y="246.04" style="stroke: #000000; stroke-width: 0.8"/>
      </g>
     </g>
     <g id="text_5">
      <!-- 80% -->
      <g transform="translate(330.719446 260.638438)scale(0.1 -0.1)">
       <defs>
        <path id="DejaVuSans-38" d="M 2034 2216 
Q 1584 2216 1326 1975 
Q 1069 1734 1069 1313 
Q 1069 891 1326 650 
Q 1584 409 2034 409 
Q 2484 409 2743 651 
Q 3003 894 3003 1313 
Q 3003 1734 2745 1975 
Q 2488 2216 2034 2216 
z
M 1403 2484 
Q 997 2584 770 2862 
Q 544 3141 544 3541 
Q 544 4100 942 4425 
Q 1341 4750 2034 4750 
Q 2731 4750 3128 4425 
Q 3525 4100 3525 3541 
Q 3525 3141 3298 2862 
Q 3072 2584 2669 2484 
Q 3125 2378 3379 2068 
Q 3634 1759 3634 1313 
Q 3634 634 3220 271 
Q 2806 -91 2034 -91 
Q 1263 -91 848 271 
Q 434 634 434 1313 
Q 434 1759 690 2068 
Q 947 2378 1403 2484 
z
M 1172 3481 
Q 1172 3119 1398 2916 
Q 1625 2713 2034 2713 
Q 2441 2713 2670 2916 
Q 2900 3119 2900 3481 
Q 2900 3844 2670 4047 
Q 2441 4250 2034 4250 
Q 1625 4250 1398 4047 
Q 1172 3844 1172 3481 
z
" transform="scale(0.015625)"/>
       </defs>
       <use xlink:href="#DejaVuSans-38"/>
       <use xlink:href="#DejaVuSans-30" x="63.623047"/>
       <use xlink:href="#DejaVuSans-25" x="127.246094"/>
      </g>
     </g>
    </g>
    <g id="xtick_6">
     <g id="line2d_6">
      <g>
       <use xlink:href="#mec5b382f15" x="405.326545" y="246.04" style="stroke: #000000; stroke-width: 0.8"/>
      </g>
     </g>
     <g id="text_6">
      <!-- 100% -->
      <g transform="translate(391.032014 260.638438)scale(0.1 -0.1)">
       <defs>
        <path id="DejaVuSans-31" d="M 794 531 
L 1825 531 
L 1825 4091 
L 703 3866 
L 703 4441 
L 1819 4666 
L 2450 4666 
L 2450 531 
L 3481 531 
L 3481 0 
L 794 0 
L 794 531 
z
" transform="scale(0.015625)"/>
       </defs>
       <use xlink:href="#DejaVuSans-31"/>
       <use xlink:href="#DejaVuSans-30" x="63.623047"/>
       <use xlink:href="#DejaVuSans-30" x="127.246094"/>
       <use xlink:href="#DejaVuSans-25" x="190.869141"/>
      </g>
     </g>
    </g>
    <g id="text_7">
     <!-- Percentage of Samples predicted by Remote Model (=cost) -->
     <g transform="translate(98.552156 274.316562)scale(0.1 -0.1)">
      <defs>
       <path id="DejaVuSans-50" d="M 1259 4147 
L 1259 2394 
L 2053 2394 
Q 2494 2394 2734 2622 
Q 2975 2850 2975 3272 
Q 2975 3691 2734 3919 
Q 2494 4147 2053 4147 
L 1259 4147 
z
M 628 4666 
L 2053 4666 
Q 2838 4666 3239 4311 
Q 3641 3956 3641 3272 
Q 3641 2581 3239 2228 
Q 2838 1875 2053 1875 
L 1259 1875 
L 1259 0 
L 628 0 
L 628 4666 
z
" transform="scale(0.015625)"/>
       <path id="DejaVuSans-65" d="M 3597 1894 
L 3597 1613 
L 953 1613 
Q 991 1019 1311 708 
Q 1631 397 2203 397 
Q 2534 397 2845 478 
Q 3156 559 3463 722 
L 3463 178 
Q 3153 47 2828 -22 
Q 2503 -91 2169 -91 
Q 1331 -91 842 396 
Q 353 884 353 1716 
Q 353 2575 817 3079 
Q 1281 3584 2069 3584 
Q 2775 3584 3186 3129 
Q 3597 2675 3597 1894 
z
M 3022 2063 
Q 3016 2534 2758 2815 
Q 2500 3097 2075 3097 
Q 1594 3097 1305 2825 
Q 1016 2553 972 2059 
L 3022 2063 
z
" transform="scale(0.015625)"/>
       <path id="DejaVuSans-72" d="M 2631 2963 
Q 2534 3019 2420 3045 
Q 2306 3072 2169 3072 
Q 1681 3072 1420 2755 
Q 1159 2438 1159 1844 
L 1159 0 
L 581 0 
L 581 3500 
L 1159 3500 
L 1159 2956 
Q 1341 3275 1631 3429 
Q 1922 3584 2338 3584 
Q 2397 3584 2469 3576 
Q 2541 3569 2628 3553 
L 2631 2963 
z
" transform="scale(0.015625)"/>
       <path id="DejaVuSans-63" d="M 3122 3366 
L 3122 2828 
Q 2878 2963 2633 3030 
Q 2388 3097 2138 3097 
Q 1578 3097 1268 2742 
Q 959 2388 959 1747 
Q 959 1106 1268 751 
Q 1578 397 2138 397 
Q 2388 397 2633 464 
Q 2878 531 3122 666 
L 3122 134 
Q 2881 22 2623 -34 
Q 2366 -91 2075 -91 
Q 1284 -91 818 406 
Q 353 903 353 1747 
Q 353 2603 823 3093 
Q 1294 3584 2113 3584 
Q 2378 3584 2631 3529 
Q 2884 3475 3122 3366 
z
" transform="scale(0.015625)"/>
       <path id="DejaVuSans-6e" d="M 3513 2113 
L 3513 0 
L 2938 0 
L 2938 2094 
Q 2938 2591 2744 2837 
Q 2550 3084 2163 3084 
Q 1697 3084 1428 2787 
Q 1159 2491 1159 1978 
L 1159 0 
L 581 0 
L 581 3500 
L 1159 3500 
L 1159 2956 
Q 1366 3272 1645 3428 
Q 1925 3584 2291 3584 
Q 2894 3584 3203 3211 
Q 3513 2838 3513 2113 
z
" transform="scale(0.015625)"/>
       <path id="DejaVuSans-74" d="M 1172 4494 
L 1172 3500 
L 2356 3500 
L 2356 3053 
L 1172 3053 
L 1172 1153 
Q 1172 725 1289 603 
Q 1406 481 1766 481 
L 2356 481 
L 2356 0 
L 1766 0 
Q 1100 0 847 248 
Q 594 497 594 1153 
L 594 3053 
L 172 3053 
L 172 3500 
L 594 3500 
L 594 4494 
L 1172 4494 
z
" transform="scale(0.015625)"/>
       <path id="DejaVuSans-61" d="M 2194 1759 
Q 1497 1759 1228 1600 
Q 959 1441 959 1056 
Q 959 750 1161 570 
Q 1363 391 1709 391 
Q 2188 391 2477 730 
Q 2766 1069 2766 1631 
L 2766 1759 
L 2194 1759 
z
M 3341 1997 
L 3341 0 
L 2766 0 
L 2766 531 
Q 2569 213 2275 61 
Q 1981 -91 1556 -91 
Q 1019 -91 701 211 
Q 384 513 384 1019 
Q 384 1609 779 1909 
Q 1175 2209 1959 2209 
L 2766 2209 
L 2766 2266 
Q 2766 2663 2505 2880 
Q 2244 3097 1772 3097 
Q 1472 3097 1187 3025 
Q 903 2953 641 2809 
L 641 3341 
Q 956 3463 1253 3523 
Q 1550 3584 1831 3584 
Q 2591 3584 2966 3190 
Q 3341 2797 3341 1997 
z
" transform="scale(0.015625)"/>
       <path id="DejaVuSans-67" d="M 2906 1791 
Q 2906 2416 2648 2759 
Q 2391 3103 1925 3103 
Q 1463 3103 1205 2759 
Q 947 2416 947 1791 
Q 947 1169 1205 825 
Q 1463 481 1925 481 
Q 2391 481 2648 825 
Q 2906 1169 2906 1791 
z
M 3481 434 
Q 3481 -459 3084 -895 
Q 2688 -1331 1869 -1331 
Q 1566 -1331 1297 -1286 
Q 1028 -1241 775 -1147 
L 775 -588 
Q 1028 -725 1275 -790 
Q 1522 -856 1778 -856 
Q 2344 -856 2625 -561 
Q 2906 -266 2906 331 
L 2906 616 
Q 2728 306 2450 153 
Q 2172 0 1784 0 
Q 1141 0 747 490 
Q 353 981 353 1791 
Q 353 2603 747 3093 
Q 1141 3584 1784 3584 
Q 2172 3584 2450 3431 
Q 2728 3278 2906 2969 
L 2906 3500 
L 3481 3500 
L 3481 434 
z
" transform="scale(0.015625)"/>
       <path id="DejaVuSans-20" transform="scale(0.015625)"/>
       <path id="DejaVuSans-6f" d="M 1959 3097 
Q 1497 3097 1228 2736 
Q 959 2375 959 1747 
Q 959 1119 1226 758 
Q 1494 397 1959 397 
Q 2419 397 2687 759 
Q 2956 1122 2956 1747 
Q 2956 2369 2687 2733 
Q 2419 3097 1959 3097 
z
M 1959 3584 
Q 2709 3584 3137 3096 
Q 3566 2609 3566 1747 
Q 3566 888 3137 398 
Q 2709 -91 1959 -91 
Q 1206 -91 779 398 
Q 353 888 353 1747 
Q 353 2609 779 3096 
Q 1206 3584 1959 3584 
z
" transform="scale(0.015625)"/>
       <path id="DejaVuSans-66" d="M 2375 4863 
L 2375 4384 
L 1825 4384 
Q 1516 4384 1395 4259 
Q 1275 4134 1275 3809 
L 1275 3500 
L 2222 3500 
L 2222 3053 
L 1275 3053 
L 1275 0 
L 697 0 
L 697 3053 
L 147 3053 
L 147 3500 
L 697 3500 
L 697 3744 
Q 697 4328 969 4595 
Q 1241 4863 1831 4863 
L 2375 4863 
z
" transform="scale(0.015625)"/>
       <path id="DejaVuSans-53" d="M 3425 4513 
L 3425 3897 
Q 3066 4069 2747 4153 
Q 2428 4238 2131 4238 
Q 1616 4238 1336 4038 
Q 1056 3838 1056 3469 
Q 1056 3159 1242 3001 
Q 1428 2844 1947 2747 
L 2328 2669 
Q 3034 2534 3370 2195 
Q 3706 1856 3706 1288 
Q 3706 609 3251 259 
Q 2797 -91 1919 -91 
Q 1588 -91 1214 -16 
Q 841 59 441 206 
L 441 856 
Q 825 641 1194 531 
Q 1563 422 1919 422 
Q 2459 422 2753 634 
Q 3047 847 3047 1241 
Q 3047 1584 2836 1778 
Q 2625 1972 2144 2069 
L 1759 2144 
Q 1053 2284 737 2584 
Q 422 2884 422 3419 
Q 422 4038 858 4394 
Q 1294 4750 2059 4750 
Q 2388 4750 2728 4690 
Q 3069 4631 3425 4513 
z
" transform="scale(0.015625)"/>
       <path id="DejaVuSans-6d" d="M 3328 2828 
Q 3544 3216 3844 3400 
Q 4144 3584 4550 3584 
Q 5097 3584 5394 3201 
Q 5691 2819 5691 2113 
L 5691 0 
L 5113 0 
L 5113 2094 
Q 5113 2597 4934 2840 
Q 4756 3084 4391 3084 
Q 3944 3084 3684 2787 
Q 3425 2491 3425 1978 
L 3425 0 
L 2847 0 
L 2847 2094 
Q 2847 2600 2669 2842 
Q 2491 3084 2119 3084 
Q 1678 3084 1418 2786 
Q 1159 2488 1159 1978 
L 1159 0 
L 581 0 
L 581 3500 
L 1159 3500 
L 1159 2956 
Q 1356 3278 1631 3431 
Q 1906 3584 2284 3584 
Q 2666 3584 2933 3390 
Q 3200 3197 3328 2828 
z
" transform="scale(0.015625)"/>
       <path id="DejaVuSans-70" d="M 1159 525 
L 1159 -1331 
L 581 -1331 
L 581 3500 
L 1159 3500 
L 1159 2969 
Q 1341 3281 1617 3432 
Q 1894 3584 2278 3584 
Q 2916 3584 3314 3078 
Q 3713 2572 3713 1747 
Q 3713 922 3314 415 
Q 2916 -91 2278 -91 
Q 1894 -91 1617 61 
Q 1341 213 1159 525 
z
M 3116 1747 
Q 3116 2381 2855 2742 
Q 2594 3103 2138 3103 
Q 1681 3103 1420 2742 
Q 1159 2381 1159 1747 
Q 1159 1113 1420 752 
Q 1681 391 2138 391 
Q 2594 391 2855 752 
Q 3116 1113 3116 1747 
z
" transform="scale(0.015625)"/>
       <path id="DejaVuSans-6c" d="M 603 4863 
L 1178 4863 
L 1178 0 
L 603 0 
L 603 4863 
z
" transform="scale(0.015625)"/>
       <path id="DejaVuSans-73" d="M 2834 3397 
L 2834 2853 
Q 2591 2978 2328 3040 
Q 2066 3103 1784 3103 
Q 1356 3103 1142 2972 
Q 928 2841 928 2578 
Q 928 2378 1081 2264 
Q 1234 2150 1697 2047 
L 1894 2003 
Q 2506 1872 2764 1633 
Q 3022 1394 3022 966 
Q 3022 478 2636 193 
Q 2250 -91 1575 -91 
Q 1294 -91 989 -36 
Q 684 19 347 128 
L 347 722 
Q 666 556 975 473 
Q 1284 391 1588 391 
Q 1994 391 2212 530 
Q 2431 669 2431 922 
Q 2431 1156 2273 1281 
Q 2116 1406 1581 1522 
L 1381 1569 
Q 847 1681 609 1914 
Q 372 2147 372 2553 
Q 372 3047 722 3315 
Q 1072 3584 1716 3584 
Q 2034 3584 2315 3537 
Q 2597 3491 2834 3397 
z
" transform="scale(0.015625)"/>
       <path id="DejaVuSans-64" d="M 2906 2969 
L 2906 4863 
L 3481 4863 
L 3481 0 
L 2906 0 
L 2906 525 
Q 2725 213 2448 61 
Q 2172 -91 1784 -91 
Q 1150 -91 751 415 
Q 353 922 353 1747 
Q 353 2572 751 3078 
Q 1150 3584 1784 3584 
Q 2172 3584 2448 3432 
Q 2725 3281 2906 2969 
z
M 947 1747 
Q 947 1113 1208 752 
Q 1469 391 1925 391 
Q 2381 391 2643 752 
Q 2906 1113 2906 1747 
Q 2906 2381 2643 2742 
Q 2381 3103 1925 3103 
Q 1469 3103 1208 2742 
Q 947 2381 947 1747 
z
" transform="scale(0.015625)"/>
       <path id="DejaVuSans-69" d="M 603 3500 
L 1178 3500 
L 1178 0 
L 603 0 
L 603 3500 
z
M 603 4863 
L 1178 4863 
L 1178 4134 
L 603 4134 
L 603 4863 
z
" transform="scale(0.015625)"/>
       <path id="DejaVuSans-62" d="M 3116 1747 
Q 3116 2381 2855 2742 
Q 2594 3103 2138 3103 
Q 1681 3103 1420 2742 
Q 1159 2381 1159 1747 
Q 1159 1113 1420 752 
Q 1681 391 2138 391 
Q 2594 391 2855 752 
Q 3116 1113 3116 1747 
z
M 1159 2969 
Q 1341 3281 1617 3432 
Q 1894 3584 2278 3584 
Q 2916 3584 3314 3078 
Q 3713 2572 3713 1747 
Q 3713 922 3314 415 
Q 2916 -91 2278 -91 
Q 1894 -91 1617 61 
Q 1341 213 1159 525 
L 1159 0 
L 581 0 
L 581 4863 
L 1159 4863 
L 1159 2969 
z
" transform="scale(0.015625)"/>
       <path id="DejaVuSans-79" d="M 2059 -325 
Q 1816 -950 1584 -1140 
Q 1353 -1331 966 -1331 
L 506 -1331 
L 506 -850 
L 844 -850 
Q 1081 -850 1212 -737 
Q 1344 -625 1503 -206 
L 1606 56 
L 191 3500 
L 800 3500 
L 1894 763 
L 2988 3500 
L 3597 3500 
L 2059 -325 
z
" transform="scale(0.015625)"/>
       <path id="DejaVuSans-52" d="M 2841 2188 
Q 3044 2119 3236 1894 
Q 3428 1669 3622 1275 
L 4263 0 
L 3584 0 
L 2988 1197 
Q 2756 1666 2539 1819 
Q 2322 1972 1947 1972 
L 1259 1972 
L 1259 0 
L 628 0 
L 628 4666 
L 2053 4666 
Q 2853 4666 3247 4331 
Q 3641 3997 3641 3322 
Q 3641 2881 3436 2590 
Q 3231 2300 2841 2188 
z
M 1259 4147 
L 1259 2491 
L 2053 2491 
Q 2509 2491 2742 2702 
Q 2975 2913 2975 3322 
Q 2975 3731 2742 3939 
Q 2509 4147 2053 4147 
L 1259 4147 
z
" transform="scale(0.015625)"/>
       <path id="DejaVuSans-4d" d="M 628 4666 
L 1569 4666 
L 2759 1491 
L 3956 4666 
L 4897 4666 
L 4897 0 
L 4281 0 
L 4281 4097 
L 3078 897 
L 2444 897 
L 1241 4097 
L 1241 0 
L 628 0 
L 628 4666 
z
" transform="scale(0.015625)"/>
       <path id="DejaVuSans-28" d="M 1984 4856 
Q 1566 4138 1362 3434 
Q 1159 2731 1159 2009 
Q 1159 1288 1364 580 
Q 1569 -128 1984 -844 
L 1484 -844 
Q 1016 -109 783 600 
Q 550 1309 550 2009 
Q 550 2706 781 3412 
Q 1013 4119 1484 4856 
L 1984 4856 
z
" transform="scale(0.015625)"/>
       <path id="DejaVuSans-3d" d="M 678 2906 
L 4684 2906 
L 4684 2381 
L 678 2381 
L 678 2906 
z
M 678 1631 
L 4684 1631 
L 4684 1100 
L 678 1100 
L 678 1631 
z
" transform="scale(0.015625)"/>
       <path id="DejaVuSans-29" d="M 513 4856 
L 1013 4856 
Q 1481 4119 1714 3412 
Q 1947 2706 1947 2009 
Q 1947 1309 1714 600 
Q 1481 -109 1013 -844 
L 513 -844 
Q 928 -128 1133 580 
Q 1338 1288 1338 2009 
Q 1338 2731 1133 3434 
Q 928 4138 513 4856 
z
" transform="scale(0.015625)"/>
      </defs>
      <use xlink:href="#DejaVuSans-50"/>
      <use xlink:href="#DejaVuSans-65" x="56.677734"/>
      <use xlink:href="#DejaVuSans-72" x="118.201172"/>
      <use xlink:href="#DejaVuSans-63" x="157.064453"/>
      <use xlink:href="#DejaVuSans-65" x="212.044922"/>
      <use xlink:href="#DejaVuSans-6e" x="273.568359"/>
      <use xlink:href="#DejaVuSans-74" x="336.947266"/>
      <use xlink:href="#DejaVuSans-61" x="376.15625"/>
      <use xlink:href="#DejaVuSans-67" x="437.435547"/>
      <use xlink:href="#DejaVuSans-65" x="500.912109"/>
      <use xlink:href="#DejaVuSans-20" x="562.435547"/>
      <use xlink:href="#DejaVuSans-6f" x="594.222656"/>
      <use xlink:href="#DejaVuSans-66" x="655.404297"/>
      <use xlink:href="#DejaVuSans-20" x="690.609375"/>
      <use xlink:href="#DejaVuSans-53" x="722.396484"/>
      <use xlink:href="#DejaVuSans-61" x="785.873047"/>
      <use xlink:href="#DejaVuSans-6d" x="847.152344"/>
      <use xlink:href="#DejaVuSans-70" x="944.564453"/>
      <use xlink:href="#DejaVuSans-6c" x="1008.041016"/>
      <use xlink:href="#DejaVuSans-65" x="1035.824219"/>
      <use xlink:href="#DejaVuSans-73" x="1097.347656"/>
      <use xlink:href="#DejaVuSans-20" x="1149.447266"/>
      <use xlink:href="#DejaVuSans-70" x="1181.234375"/>
      <use xlink:href="#DejaVuSans-72" x="1244.710938"/>
      <use xlink:href="#DejaVuSans-65" x="1283.574219"/>
      <use xlink:href="#DejaVuSans-64" x="1345.097656"/>
      <use xlink:href="#DejaVuSans-69" x="1408.574219"/>
      <use xlink:href="#DejaVuSans-63" x="1436.357422"/>
      <use xlink:href="#DejaVuSans-74" x="1491.337891"/>
      <use xlink:href="#DejaVuSans-65" x="1530.546875"/>
      <use xlink:href="#DejaVuSans-64" x="1592.070312"/>
      <use xlink:href="#DejaVuSans-20" x="1655.546875"/>
      <use xlink:href="#DejaVuSans-62" x="1687.333984"/>
      <use xlink:href="#DejaVuSans-79" x="1750.810547"/>
      <use xlink:href="#DejaVuSans-20" x="1809.990234"/>
      <use xlink:href="#DejaVuSans-52" x="1841.777344"/>
      <use xlink:href="#DejaVuSans-65" x="1906.759766"/>
      <use xlink:href="#DejaVuSans-6d" x="1968.283203"/>
      <use xlink:href="#DejaVuSans-6f" x="2065.695312"/>
      <use xlink:href="#DejaVuSans-74" x="2126.876953"/>
      <use xlink:href="#DejaVuSans-65" x="2166.085938"/>
      <use xlink:href="#DejaVuSans-20" x="2227.609375"/>
      <use xlink:href="#DejaVuSans-4d" x="2259.396484"/>
      <use xlink:href="#DejaVuSans-6f" x="2345.675781"/>
      <use xlink:href="#DejaVuSans-64" x="2406.857422"/>
      <use xlink:href="#DejaVuSans-65" x="2470.333984"/>
      <use xlink:href="#DejaVuSans-6c" x="2531.857422"/>
      <use xlink:href="#DejaVuSans-20" x="2559.640625"/>
      <use xlink:href="#DejaVuSans-28" x="2591.427734"/>
      <use xlink:href="#DejaVuSans-3d" x="2630.441406"/>
      <use xlink:href="#DejaVuSans-63" x="2714.230469"/>
      <use xlink:href="#DejaVuSans-6f" x="2769.210938"/>
      <use xlink:href="#DejaVuSans-73" x="2830.392578"/>
      <use xlink:href="#DejaVuSans-74" x="2882.492188"/>
      <use xlink:href="#DejaVuSans-29" x="2921.701172"/>
     </g>
    </g>
   </g>
   <g id="matplotlib.axis_2">
    <g id="ytick_1">
     <g id="line2d_7">
      <defs>
       <path id="ma606cf7575" d="M 0 0 
L -3.5 0 
" style="stroke: #000000; stroke-width: 0.8"/>
      </defs>
      <g>
       <use xlink:href="#ma606cf7575" x="71.984" y="234.684625" style="stroke: #000000; stroke-width: 0.8"/>
      </g>
     </g>
     <g id="text_8">
      <!-- 0.280 -->
      <g transform="translate(36.355875 238.483844)scale(0.1 -0.1)">
       <defs>
        <path id="DejaVuSans-2e" d="M 684 794 
L 1344 794 
L 1344 0 
L 684 0 
L 684 794 
z
" transform="scale(0.015625)"/>
       </defs>
       <use xlink:href="#DejaVuSans-30"/>
       <use xlink:href="#DejaVuSans-2e" x="63.623047"/>
       <use xlink:href="#DejaVuSans-32" x="95.410156"/>
       <use xlink:href="#DejaVuSans-38" x="159.033203"/>
       <use xlink:href="#DejaVuSans-30" x="222.65625"/>
      </g>
     </g>
    </g>
    <g id="ytick_2">
     <g id="line2d_8">
      <g>
       <use xlink:href="#ma606cf7575" x="71.984" y="207.905116" style="stroke: #000000; stroke-width: 0.8"/>
      </g>
     </g>
     <g id="text_9">
      <!-- 0.285 -->
      <g transform="translate(36.355875 211.704335)scale(0.1 -0.1)">
       <defs>
        <path id="DejaVuSans-35" d="M 691 4666 
L 3169 4666 
L 3169 4134 
L 1269 4134 
L 1269 2991 
Q 1406 3038 1543 3061 
Q 1681 3084 1819 3084 
Q 2600 3084 3056 2656 
Q 3513 2228 3513 1497 
Q 3513 744 3044 326 
Q 2575 -91 1722 -91 
Q 1428 -91 1123 -41 
Q 819 9 494 109 
L 494 744 
Q 775 591 1075 516 
Q 1375 441 1709 441 
Q 2250 441 2565 725 
Q 2881 1009 2881 1497 
Q 2881 1984 2565 2268 
Q 2250 2553 1709 2553 
Q 1456 2553 1204 2497 
Q 953 2441 691 2322 
L 691 4666 
z
" transform="scale(0.015625)"/>
       </defs>
       <use xlink:href="#DejaVuSans-30"/>
       <use xlink:href="#DejaVuSans-2e" x="63.623047"/>
       <use xlink:href="#DejaVuSans-32" x="95.410156"/>
       <use xlink:href="#DejaVuSans-38" x="159.033203"/>
       <use xlink:href="#DejaVuSans-35" x="222.65625"/>
      </g>
     </g>
    </g>
    <g id="ytick_3">
     <g id="line2d_9">
      <g>
       <use xlink:href="#ma606cf7575" x="71.984" y="181.125607" style="stroke: #000000; stroke-width: 0.8"/>
      </g>
     </g>
     <g id="text_10">
      <!-- 0.290 -->
      <g transform="translate(36.355875 184.924826)scale(0.1 -0.1)">
       <defs>
        <path id="DejaVuSans-39" d="M 703 97 
L 703 672 
Q 941 559 1184 500 
Q 1428 441 1663 441 
Q 2288 441 2617 861 
Q 2947 1281 2994 2138 
Q 2813 1869 2534 1725 
Q 2256 1581 1919 1581 
Q 1219 1581 811 2004 
Q 403 2428 403 3163 
Q 403 3881 828 4315 
Q 1253 4750 1959 4750 
Q 2769 4750 3195 4129 
Q 3622 3509 3622 2328 
Q 3622 1225 3098 567 
Q 2575 -91 1691 -91 
Q 1453 -91 1209 -44 
Q 966 3 703 97 
z
M 1959 2075 
Q 2384 2075 2632 2365 
Q 2881 2656 2881 3163 
Q 2881 3666 2632 3958 
Q 2384 4250 1959 4250 
Q 1534 4250 1286 3958 
Q 1038 3666 1038 3163 
Q 1038 2656 1286 2365 
Q 1534 2075 1959 2075 
z
" transform="scale(0.015625)"/>
       </defs>
       <use xlink:href="#DejaVuSans-30"/>
       <use xlink:href="#DejaVuSans-2e" x="63.623047"/>
       <use xlink:href="#DejaVuSans-32" x="95.410156"/>
       <use xlink:href="#DejaVuSans-39" x="159.033203"/>
       <use xlink:href="#DejaVuSans-30" x="222.65625"/>
      </g>
     </g>
    </g>
    <g id="ytick_4">
     <g id="line2d_10">
      <g>
       <use xlink:href="#ma606cf7575" x="71.984" y="154.346099" style="stroke: #000000; stroke-width: 0.8"/>
      </g>
     </g>
     <g id="text_11">
      <!-- 0.295 -->
      <g transform="translate(36.355875 158.145317)scale(0.1 -0.1)">
       <use xlink:href="#DejaVuSans-30"/>
       <use xlink:href="#DejaVuSans-2e" x="63.623047"/>
       <use xlink:href="#DejaVuSans-32" x="95.410156"/>
       <use xlink:href="#DejaVuSans-39" x="159.033203"/>
       <use xlink:href="#DejaVuSans-35" x="222.65625"/>
      </g>
     </g>
    </g>
    <g id="ytick_5">
     <g id="line2d_11">
      <g>
       <use xlink:href="#ma606cf7575" x="71.984" y="127.56659" style="stroke: #000000; stroke-width: 0.8"/>
      </g>
     </g>
     <g id="text_12">
      <!-- 0.300 -->
      <g transform="translate(36.355875 131.365809)scale(0.1 -0.1)">
       <defs>
        <path id="DejaVuSans-33" d="M 2597 2516 
Q 3050 2419 3304 2112 
Q 3559 1806 3559 1356 
Q 3559 666 3084 287 
Q 2609 -91 1734 -91 
Q 1441 -91 1130 -33 
Q 819 25 488 141 
L 488 750 
Q 750 597 1062 519 
Q 1375 441 1716 441 
Q 2309 441 2620 675 
Q 2931 909 2931 1356 
Q 2931 1769 2642 2001 
Q 2353 2234 1838 2234 
L 1294 2234 
L 1294 2753 
L 1863 2753 
Q 2328 2753 2575 2939 
Q 2822 3125 2822 3475 
Q 2822 3834 2567 4026 
Q 2313 4219 1838 4219 
Q 1578 4219 1281 4162 
Q 984 4106 628 3988 
L 628 4550 
Q 988 4650 1302 4700 
Q 1616 4750 1894 4750 
Q 2613 4750 3031 4423 
Q 3450 4097 3450 3541 
Q 3450 3153 3228 2886 
Q 3006 2619 2597 2516 
z
" transform="scale(0.015625)"/>
       </defs>
       <use xlink:href="#DejaVuSans-30"/>
       <use xlink:href="#DejaVuSans-2e" x="63.623047"/>
       <use xlink:href="#DejaVuSans-33" x="95.410156"/>
       <use xlink:href="#DejaVuSans-30" x="159.033203"/>
       <use xlink:href="#DejaVuSans-30" x="222.65625"/>
      </g>
     </g>
    </g>
    <g id="ytick_6">
     <g id="line2d_12">
      <g>
       <use xlink:href="#ma606cf7575" x="71.984" y="100.787081" style="stroke: #000000; stroke-width: 0.8"/>
      </g>
     </g>
     <g id="text_13">
      <!-- 0.305 -->
      <g transform="translate(36.355875 104.5863)scale(0.1 -0.1)">
       <use xlink:href="#DejaVuSans-30"/>
       <use xlink:href="#DejaVuSans-2e" x="63.623047"/>
       <use xlink:href="#DejaVuSans-33" x="95.410156"/>
       <use xlink:href="#DejaVuSans-30" x="159.033203"/>
       <use xlink:href="#DejaVuSans-35" x="222.65625"/>
      </g>
     </g>
    </g>
    <g id="ytick_7">
     <g id="line2d_13">
      <g>
       <use xlink:href="#ma606cf7575" x="71.984" y="74.007572" style="stroke: #000000; stroke-width: 0.8"/>
      </g>
     </g>
     <g id="text_14">
      <!-- 0.310 -->
      <g transform="translate(36.355875 77.806791)scale(0.1 -0.1)">
       <use xlink:href="#DejaVuSans-30"/>
       <use xlink:href="#DejaVuSans-2e" x="63.623047"/>
       <use xlink:href="#DejaVuSans-33" x="95.410156"/>
       <use xlink:href="#DejaVuSans-31" x="159.033203"/>
       <use xlink:href="#DejaVuSans-30" x="222.65625"/>
      </g>
     </g>
    </g>
    <g id="ytick_8">
     <g id="line2d_14">
      <g>
       <use xlink:href="#ma606cf7575" x="71.984" y="47.228064" style="stroke: #000000; stroke-width: 0.8"/>
      </g>
     </g>
     <g id="text_15">
      <!-- 0.315 -->
      <g transform="translate(36.355875 51.027282)scale(0.1 -0.1)">
       <use xlink:href="#DejaVuSans-30"/>
       <use xlink:href="#DejaVuSans-2e" x="63.623047"/>
       <use xlink:href="#DejaVuSans-33" x="95.410156"/>
       <use xlink:href="#DejaVuSans-31" x="159.033203"/>
       <use xlink:href="#DejaVuSans-35" x="222.65625"/>
      </g>
     </g>
    </g>
    <g id="ytick_9">
     <g id="line2d_15">
      <g>
       <use xlink:href="#ma606cf7575" x="71.984" y="20.448555" style="stroke: #000000; stroke-width: 0.8"/>
      </g>
     </g>
     <g id="text_16">
      <!-- 0.320 -->
      <g transform="translate(36.355875 24.247774)scale(0.1 -0.1)">
       <use xlink:href="#DejaVuSans-30"/>
       <use xlink:href="#DejaVuSans-2e" x="63.623047"/>
       <use xlink:href="#DejaVuSans-33" x="95.410156"/>
       <use xlink:href="#DejaVuSans-32" x="159.033203"/>
       <use xlink:href="#DejaVuSans-30" x="222.65625"/>
      </g>
     </g>
    </g>
    <g id="text_17">
     <!-- System-level exact match (EM), -->
     <g transform="translate(19.078375 208.025469)rotate(-90)scale(0.1 -0.1)">
      <defs>
       <path id="DejaVuSans-2d" d="M 313 2009 
L 1997 2009 
L 1997 1497 
L 313 1497 
L 313 2009 
z
" transform="scale(0.015625)"/>
       <path id="DejaVuSans-76" d="M 191 3500 
L 800 3500 
L 1894 563 
L 2988 3500 
L 3597 3500 
L 2284 0 
L 1503 0 
L 191 3500 
z
" transform="scale(0.015625)"/>
       <path id="DejaVuSans-78" d="M 3513 3500 
L 2247 1797 
L 3578 0 
L 2900 0 
L 1881 1375 
L 863 0 
L 184 0 
L 1544 1831 
L 300 3500 
L 978 3500 
L 1906 2253 
L 2834 3500 
L 3513 3500 
z
" transform="scale(0.015625)"/>
       <path id="DejaVuSans-68" d="M 3513 2113 
L 3513 0 
L 2938 0 
L 2938 2094 
Q 2938 2591 2744 2837 
Q 2550 3084 2163 3084 
Q 1697 3084 1428 2787 
Q 1159 2491 1159 1978 
L 1159 0 
L 581 0 
L 581 4863 
L 1159 4863 
L 1159 2956 
Q 1366 3272 1645 3428 
Q 1925 3584 2291 3584 
Q 2894 3584 3203 3211 
Q 3513 2838 3513 2113 
z
" transform="scale(0.015625)"/>
       <path id="DejaVuSans-45" d="M 628 4666 
L 3578 4666 
L 3578 4134 
L 1259 4134 
L 1259 2753 
L 3481 2753 
L 3481 2222 
L 1259 2222 
L 1259 531 
L 3634 531 
L 3634 0 
L 628 0 
L 628 4666 
z
" transform="scale(0.015625)"/>
       <path id="DejaVuSans-2c" d="M 750 794 
L 1409 794 
L 1409 256 
L 897 -744 
L 494 -744 
L 750 256 
L 750 794 
z
" transform="scale(0.015625)"/>
      </defs>
      <use xlink:href="#DejaVuSans-53"/>
      <use xlink:href="#DejaVuSans-79" x="63.476562"/>
      <use xlink:href="#DejaVuSans-73" x="122.65625"/>
      <use xlink:href="#DejaVuSans-74" x="174.755859"/>
      <use xlink:href="#DejaVuSans-65" x="213.964844"/>
      <use xlink:href="#DejaVuSans-6d" x="275.488281"/>
      <use xlink:href="#DejaVuSans-2d" x="372.900391"/>
      <use xlink:href="#DejaVuSans-6c" x="408.984375"/>
      <use xlink:href="#DejaVuSans-65" x="436.767578"/>
      <use xlink:href="#DejaVuSans-76" x="498.291016"/>
      <use xlink:href="#DejaVuSans-65" x="557.470703"/>
      <use xlink:href="#DejaVuSans-6c" x="618.994141"/>
      <use xlink:href="#DejaVuSans-20" x="646.777344"/>
      <use xlink:href="#DejaVuSans-65" x="678.564453"/>
      <use xlink:href="#DejaVuSans-78" x="738.337891"/>
      <use xlink:href="#DejaVuSans-61" x="797.517578"/>
      <use xlink:href="#DejaVuSans-63" x="858.796875"/>
      <use xlink:href="#DejaVuSans-74" x="913.777344"/>
      <use xlink:href="#DejaVuSans-20" x="952.986328"/>
      <use xlink:href="#DejaVuSans-6d" x="984.773438"/>
      <use xlink:href="#DejaVuSans-61" x="1082.185547"/>
      <use xlink:href="#DejaVuSans-74" x="1143.464844"/>
      <use xlink:href="#DejaVuSans-63" x="1182.673828"/>
      <use xlink:href="#DejaVuSans-68" x="1237.654297"/>
      <use xlink:href="#DejaVuSans-20" x="1301.033203"/>
      <use xlink:href="#DejaVuSans-28" x="1332.820312"/>
      <use xlink:href="#DejaVuSans-45" x="1371.833984"/>
      <use xlink:href="#DejaVuSans-4d" x="1435.017578"/>
      <use xlink:href="#DejaVuSans-29" x="1521.296875"/>
      <use xlink:href="#DejaVuSans-2c" x="1560.310547"/>
     </g>
     <!--  without 2nd-level supervision -->
     <g transform="translate(30.276188 203.85125)rotate(-90)scale(0.1 -0.1)">
      <defs>
       <path id="DejaVuSans-77" d="M 269 3500 
L 844 3500 
L 1563 769 
L 2278 3500 
L 2956 3500 
L 3675 769 
L 4391 3500 
L 4966 3500 
L 4050 0 
L 3372 0 
L 2619 2869 
L 1863 0 
L 1184 0 
L 269 3500 
z
" transform="scale(0.015625)"/>
       <path id="DejaVuSans-75" d="M 544 1381 
L 544 3500 
L 1119 3500 
L 1119 1403 
Q 1119 906 1312 657 
Q 1506 409 1894 409 
Q 2359 409 2629 706 
Q 2900 1003 2900 1516 
L 2900 3500 
L 3475 3500 
L 3475 0 
L 2900 0 
L 2900 538 
Q 2691 219 2414 64 
Q 2138 -91 1772 -91 
Q 1169 -91 856 284 
Q 544 659 544 1381 
z
M 1991 3584 
L 1991 3584 
z
" transform="scale(0.015625)"/>
      </defs>
      <use xlink:href="#DejaVuSans-20"/>
      <use xlink:href="#DejaVuSans-77" x="31.787109"/>
      <use xlink:href="#DejaVuSans-69" x="113.574219"/>
      <use xlink:href="#DejaVuSans-74" x="141.357422"/>
      <use xlink:href="#DejaVuSans-68" x="180.566406"/>
      <use xlink:href="#DejaVuSans-6f" x="243.945312"/>
      <use xlink:href="#DejaVuSans-75" x="305.126953"/>
      <use xlink:href="#DejaVuSans-74" x="368.505859"/>
      <use xlink:href="#DejaVuSans-20" x="407.714844"/>
      <use xlink:href="#DejaVuSans-32" x="439.501953"/>
      <use xlink:href="#DejaVuSans-6e" x="503.125"/>
      <use xlink:href="#DejaVuSans-64" x="566.503906"/>
      <use xlink:href="#DejaVuSans-2d" x="629.980469"/>
      <use xlink:href="#DejaVuSans-6c" x="666.064453"/>
      <use xlink:href="#DejaVuSans-65" x="693.847656"/>
      <use xlink:href="#DejaVuSans-76" x="755.371094"/>
      <use xlink:href="#DejaVuSans-65" x="814.550781"/>
      <use xlink:href="#DejaVuSans-6c" x="876.074219"/>
      <use xlink:href="#DejaVuSans-20" x="903.857422"/>
      <use xlink:href="#DejaVuSans-73" x="935.644531"/>
      <use xlink:href="#DejaVuSans-75" x="987.744141"/>
      <use xlink:href="#DejaVuSans-70" x="1051.123047"/>
      <use xlink:href="#DejaVuSans-65" x="1114.599609"/>
      <use xlink:href="#DejaVuSans-72" x="1176.123047"/>
      <use xlink:href="#DejaVuSans-76" x="1217.236328"/>
      <use xlink:href="#DejaVuSans-69" x="1276.416016"/>
      <use xlink:href="#DejaVuSans-73" x="1304.199219"/>
      <use xlink:href="#DejaVuSans-69" x="1356.298828"/>
      <use xlink:href="#DejaVuSans-6f" x="1384.082031"/>
      <use xlink:href="#DejaVuSans-6e" x="1445.263672"/>
     </g>
    </g>
   </g>
   <g id="line2d_16">
    <path d="M 87.857455 235.347273 
L 90.079738 235.347273 
L 90.397207 234.845267 
L 91.667084 234.845267 
L 91.984553 234.343261 
L 92.93696 234.343261 
L 93.571898 233.339249 
L 96.746589 233.339249 
L 97.064058 232.837243 
L 101.191156 232.837243 
L 101.508625 233.339249 
L 102.143564 233.339249 
L 102.461033 232.335237 
L 103.095971 231.331225 
L 103.41344 231.331225 
L 103.730909 230.829219 
L 105.000785 230.829219 
L 105.318255 230.327213 
L 105.635724 229.323201 
L 106.588131 229.323201 
L 106.9056 228.319189 
L 107.223069 228.319189 
L 107.540538 227.817183 
L 108.175476 227.817183 
L 108.492945 226.813171 
L 109.127884 226.813171 
L 109.445353 225.809159 
L 109.762822 225.307153 
L 110.080291 226.311165 
L 111.032698 224.805147 
L 111.985105 224.805147 
L 112.302575 224.303141 
L 112.620044 224.303141 
L 113.254982 223.299129 
L 114.524858 223.299129 
L 114.842327 222.295117 
L 115.159796 222.295117 
L 115.794735 221.291105 
L 116.112204 221.291105 
L 116.429673 220.789099 
L 116.747142 221.291105 
L 117.064611 220.789099 
L 117.38208 220.789099 
L 117.699549 219.785087 
L 118.017018 219.785087 
L 118.651956 217.777064 
L 118.969425 217.777064 
L 119.286895 216.271046 
L 120.239302 214.765028 
L 120.87424 214.765028 
L 121.191709 214.263022 
L 121.509178 214.263022 
L 121.826647 213.761016 
L 122.144116 213.761016 
L 122.461585 213.25901 
L 123.096524 213.25901 
L 123.413993 212.757004 
L 123.731462 212.757004 
L 124.048931 212.254998 
L 124.683869 212.254998 
L 125.001338 211.752992 
L 125.636276 211.752992 
L 125.953745 210.74898 
L 127.223622 208.740956 
L 127.541091 208.740956 
L 127.85856 207.234938 
L 129.128436 207.234938 
L 129.763375 206.230926 
L 130.080844 205.226914 
L 131.35072 205.226914 
L 131.668189 204.724908 
L 131.985658 205.226914 
L 132.303127 205.226914 
L 132.938065 203.21889 
L 133.573004 203.21889 
L 133.890473 202.716884 
L 134.207942 202.716884 
L 134.525411 203.21889 
L 134.84288 203.21889 
L 135.477818 201.210866 
L 135.795287 199.704848 
L 136.112756 200.206854 
L 136.430225 200.206854 
L 137.700102 198.198831 
L 138.33504 198.198831 
L 138.652509 198.700837 
L 138.969978 198.700837 
L 139.287447 198.198831 
L 139.922385 199.202843 
L 140.557324 199.202843 
L 140.874793 198.700837 
L 141.509731 198.700837 
L 141.8272 197.696825 
L 142.144669 197.194819 
L 142.779607 197.194819 
L 143.097076 196.692813 
L 143.414545 196.692813 
L 144.049484 195.688801 
L 145.31936 195.688801 
L 145.636829 195.186795 
L 145.954298 194.182783 
L 146.589236 194.182783 
L 146.906705 194.684789 
L 147.224175 193.680777 
L 147.541644 193.178771 
L 147.859113 192.174759 
L 148.176582 191.672753 
L 148.494051 190.166735 
L 148.81152 190.668741 
L 149.446458 189.664729 
L 149.763927 188.158711 
L 150.398865 188.158711 
L 150.716335 189.162723 
L 151.033804 188.660717 
L 151.351273 187.656705 
L 151.668742 188.158711 
L 152.621149 186.652693 
L 152.938618 185.146675 
L 153.573556 184.142663 
L 153.891025 184.142663 
L 154.208495 184.644669 
L 154.525964 184.644669 
L 154.843433 184.142663 
L 155.478371 184.142663 
L 155.79584 184.644669 
L 156.113309 184.644669 
L 156.430778 185.146675 
L 156.748247 184.644669 
L 157.065716 185.146675 
L 157.383185 184.142663 
L 157.700655 182.636645 
L 158.018124 182.134639 
L 158.335593 182.636645 
L 158.653062 181.130627 
L 158.970531 181.130627 
L 159.288 180.628621 
L 159.605469 179.624609 
L 160.240407 178.620598 
L 160.557876 179.122603 
L 160.875345 178.118592 
L 161.192815 178.118592 
L 161.510284 177.616586 
L 161.827753 176.612574 
L 162.145222 176.110568 
L 162.78016 176.110568 
L 163.097629 177.11458 
L 163.415098 176.612574 
L 163.732567 176.612574 
L 164.050036 175.608562 
L 164.367505 175.608562 
L 165.002444 173.600538 
L 165.319913 174.60455 
L 165.637382 174.60455 
L 165.954851 175.106556 
L 166.27232 174.60455 
L 167.859665 174.60455 
L 168.177135 174.102544 
L 168.812073 172.09452 
L 169.129542 171.592514 
L 169.447011 171.592514 
L 169.76448 171.090508 
L 170.081949 170.086496 
L 170.399418 170.588502 
L 170.716887 170.588502 
L 171.034356 170.086496 
L 171.351825 171.090508 
L 171.669295 171.090508 
L 171.986764 169.082484 
L 172.621702 168.078472 
L 172.939171 166.572454 
L 173.25664 167.07446 
L 173.891578 167.07446 
L 174.209047 166.572454 
L 174.526516 167.07446 
L 174.843985 166.572454 
L 175.161455 166.572454 
L 176.113862 165.066436 
L 176.7488 165.066436 
L 177.066269 163.560418 
L 178.018676 163.560418 
L 178.336145 162.0544 
L 178.971084 162.0544 
L 179.288553 163.560418 
L 179.606022 163.560418 
L 179.923491 163.058412 
L 180.558429 161.050388 
L 180.875898 161.050388 
L 181.510836 159.042364 
L 181.828305 160.046376 
L 182.463244 159.042364 
L 182.780713 158.038353 
L 183.098182 157.536347 
L 183.415651 157.536347 
L 184.368058 156.030329 
L 184.685527 156.030329 
L 185.002996 155.528323 
L 185.320465 156.030329 
L 185.637935 154.524311 
L 185.955404 155.026317 
L 186.272873 155.026317 
L 186.590342 154.524311 
L 186.907811 155.026317 
L 187.542749 155.026317 
L 187.860218 154.022305 
L 188.177687 154.022305 
L 188.495156 154.524311 
L 188.812625 154.022305 
L 189.130095 154.022305 
L 189.447564 153.520299 
L 189.765033 152.516287 
L 190.082502 152.014281 
L 190.399971 152.014281 
L 190.71744 151.010269 
L 191.669847 149.504251 
L 191.987316 150.006257 
L 192.304785 149.504251 
L 192.622255 147.998233 
L 193.257193 149.002245 
L 193.574662 149.002245 
L 194.2096 147.998233 
L 194.527069 147.998233 
L 194.844538 148.500239 
L 195.479476 147.496227 
L 195.796945 147.998233 
L 196.114415 146.994221 
L 196.749353 145.990209 
L 197.384291 143.982185 
L 197.70176 143.480179 
L 198.019229 143.480179 
L 198.336698 143.982185 
L 198.654167 143.480179 
L 199.606575 143.480179 
L 200.558982 141.974161 
L 200.876451 140.970149 
L 201.19392 139.464131 
L 202.146327 137.958114 
L 202.463796 137.958114 
L 202.781265 138.46012 
L 203.098735 139.464131 
L 203.416204 139.464131 
L 203.733673 137.958114 
L 204.051142 137.958114 
L 204.68608 136.954102 
L 205.003549 135.448084 
L 205.638487 135.448084 
L 205.955956 134.444072 
L 206.590895 133.44006 
L 206.908364 133.942066 
L 207.225833 132.938054 
L 207.543302 132.938054 
L 207.860771 132.436048 
L 208.17824 131.432036 
L 209.130647 129.926018 
L 209.448116 129.926018 
L 209.765585 129.424012 
L 210.083055 129.424012 
L 210.400524 128.42 
L 210.717993 128.42 
L 211.035462 127.415988 
L 211.352931 127.415988 
L 211.6704 127.917994 
L 211.987869 127.917994 
L 212.305338 127.415988 
L 212.622807 127.917994 
L 213.575215 127.917994 
L 213.892684 127.415988 
L 214.210153 128.922006 
L 214.527622 128.922006 
L 215.16256 127.917994 
L 215.797498 125.407964 
L 216.114967 124.905958 
L 217.384844 126.913982 
L 217.702313 126.913982 
L 218.019782 126.411976 
L 218.337251 124.403952 
L 218.65472 124.403952 
L 218.972189 123.39994 
L 219.607127 122.395928 
L 220.242065 122.395928 
L 220.559535 121.893922 
L 220.877004 120.387904 
L 221.194473 119.885898 
L 221.511942 118.881886 
L 221.829411 118.37988 
L 222.14688 116.873863 
L 223.734225 116.873863 
L 224.051695 115.869851 
L 224.369164 115.367845 
L 224.686633 114.363833 
L 225.004102 113.861827 
L 225.321571 113.861827 
L 225.63904 114.865839 
L 225.956509 115.367845 
L 226.273978 116.371857 
L 226.591447 116.371857 
L 226.908916 115.367845 
L 227.543855 114.363833 
L 228.178793 115.367845 
L 228.496262 114.363833 
L 229.1312 115.367845 
L 229.448669 113.861827 
L 229.766138 113.359821 
L 230.083607 113.359821 
L 230.401076 112.857815 
L 230.718545 113.861827 
L 231.036015 115.367845 
L 231.670953 112.857815 
L 231.988422 112.857815 
L 232.305891 112.355809 
L 232.62336 111.351797 
L 232.940829 110.849791 
L 233.258298 109.343773 
L 233.893236 108.339761 
L 234.210705 108.339761 
L 234.845644 107.335749 
L 235.480582 107.335749 
L 235.798051 107.837755 
L 236.11552 107.837755 
L 236.432989 106.331737 
L 236.750458 105.829731 
L 237.385396 103.821707 
L 237.702865 104.323713 
L 238.020335 103.319701 
L 238.337804 102.817695 
L 238.972742 100.307665 
L 239.290211 100.307665 
L 239.60768 99.805659 
L 239.925149 98.801647 
L 240.242618 99.303653 
L 240.560087 98.801647 
L 240.877556 97.797636 
L 241.512495 94.283594 
L 241.829964 92.27557 
L 242.147433 91.773564 
L 242.464902 90.769552 
L 242.782371 90.267546 
L 243.09984 91.271558 
L 243.417309 91.271558 
L 243.734778 90.769552 
L 244.052247 90.769552 
L 244.369716 89.76554 
L 245.004655 88.761528 
L 245.322124 88.761528 
L 245.639593 86.753504 
L 245.957062 87.25551 
L 246.274531 86.251498 
L 246.592 86.753504 
L 246.909469 84.74548 
L 247.226938 84.74548 
L 247.544407 84.243474 
L 247.861876 82.23545 
L 248.496815 81.231438 
L 248.814284 81.231438 
L 249.131753 79.72542 
L 249.449222 79.72542 
L 250.719098 75.709373 
L 251.036567 76.211379 
L 251.671505 73.199343 
L 251.988975 74.203355 
L 252.306444 73.701349 
L 252.623913 74.203355 
L 252.941382 73.701349 
L 253.258851 73.701349 
L 253.57632 74.203355 
L 253.893789 73.199343 
L 254.846196 71.693325 
L 255.163665 73.199343 
L 255.481135 73.701349 
L 255.798604 72.195331 
L 256.433542 71.191319 
L 256.751011 71.191319 
L 257.06848 69.685301 
L 257.385949 69.183295 
L 257.703418 67.175271 
L 258.020887 66.171259 
L 258.338356 66.171259 
L 258.655825 64.665241 
L 259.290764 63.661229 
L 259.608233 63.661229 
L 259.925702 63.159223 
L 260.243171 62.155211 
L 260.56064 60.649193 
L 260.878109 61.151199 
L 261.195578 59.645181 
L 261.513047 59.143175 
L 261.830516 59.143175 
L 262.147985 58.641169 
L 262.465455 59.143175 
L 262.782924 58.641169 
L 263.100393 59.143175 
L 263.417862 58.641169 
L 263.735331 59.143175 
L 264.0528 60.147187 
L 264.370269 60.649193 
L 264.687738 59.645181 
L 265.005207 59.143175 
L 265.322676 59.143175 
L 265.640145 58.641169 
L 265.957615 59.645181 
L 266.275084 59.645181 
L 266.592553 57.637157 
L 266.910022 57.637157 
L 268.497367 50.609074 
L 268.814836 50.609074 
L 269.132305 49.605062 
L 269.449775 49.103056 
L 269.767244 49.103056 
L 270.084713 48.60105 
L 270.719651 48.60105 
L 271.03712 47.597038 
L 271.354589 48.60105 
L 271.672058 49.103056 
L 271.989527 47.597038 
L 272.306996 48.099044 
L 272.624465 49.103056 
L 273.259404 48.099044 
L 273.576873 47.095032 
L 273.894342 47.095032 
L 274.52928 48.099044 
L 274.846749 47.597038 
L 275.164218 46.593026 
L 276.434095 46.593026 
L 276.751564 45.589014 
L 277.069033 45.589014 
L 277.703971 46.593026 
L 278.02144 45.589014 
L 278.338909 45.589014 
L 278.656378 45.087008 
L 278.973847 45.087008 
L 279.291316 43.58099 
L 279.608785 45.589014 
L 279.926255 44.082996 
L 280.243724 41.572966 
L 280.561193 41.07096 
L 280.878662 41.07096 
L 281.196131 39.564942 
L 281.5136 36.552907 
L 282.148538 35.548895 
L 282.783476 35.548895 
L 283.100945 34.042877 
L 283.418415 35.046889 
L 283.735884 34.042877 
L 284.053353 34.042877 
L 284.370822 33.038865 
L 285.00576 32.034853 
L 285.323229 32.536859 
L 285.640698 32.536859 
L 285.958167 32.034853 
L 286.593105 32.034853 
L 287.228044 29.524823 
L 287.545513 28.520811 
L 287.862982 28.018805 
L 288.180451 27.014793 
L 288.815389 26.010781 
L 289.132858 27.014793 
L 289.450327 26.512787 
L 289.767796 27.014793 
L 290.085265 26.512787 
L 290.402735 26.512787 
L 290.720204 26.010781 
L 291.672611 27.516799 
L 291.99008 27.516799 
L 292.307549 26.512787 
L 292.625018 26.010781 
L 292.942487 26.010781 
L 293.259956 26.512787 
L 293.577425 26.512787 
L 293.894895 27.516799 
L 294.212364 26.512787 
L 294.529833 26.512787 
L 294.847302 25.508775 
L 295.799709 27.014793 
L 296.117178 26.010781 
L 296.434647 26.010781 
L 296.752116 27.516799 
L 297.069585 28.018805 
L 297.387055 29.022817 
L 297.704524 29.524823 
L 298.021993 30.528835 
L 298.339462 29.524823 
L 298.656931 29.022817 
L 298.9744 28.018805 
L 299.291869 26.512787 
L 299.609338 26.512787 
L 299.926807 25.508775 
L 300.244276 25.508775 
L 300.561745 26.010781 
L 300.879215 25.006769 
L 301.196684 26.512787 
L 301.514153 26.010781 
L 301.831622 26.010781 
L 302.149091 25.508775 
L 302.46656 26.512787 
L 302.784029 26.512787 
L 303.101498 27.014793 
L 303.418967 26.010781 
L 304.053905 27.014793 
L 305.006313 27.014793 
L 305.323782 26.512787 
L 305.641251 25.508775 
L 305.95872 24.002757 
L 306.276189 24.002757 
L 306.593658 25.508775 
L 306.911127 25.508775 
L 307.228596 26.010781 
L 307.546065 25.006769 
L 308.498473 25.006769 
L 309.45088 23.500751 
L 309.768349 24.002757 
L 310.085818 22.998745 
L 310.403287 22.998745 
L 310.720756 24.002757 
L 311.355695 25.006769 
L 311.673164 23.500751 
L 311.990633 22.998745 
L 312.308102 22.998745 
L 312.625571 21.994733 
L 313.260509 22.998745 
L 313.895447 21.994733 
L 314.212916 22.496739 
L 314.847855 22.496739 
L 315.165324 21.492727 
L 316.752669 21.492727 
L 317.070138 22.998745 
L 317.387607 22.998745 
L 317.705076 23.500751 
L 318.022545 22.998745 
L 318.657484 24.002757 
L 318.974953 23.500751 
L 319.292422 24.504763 
L 319.609891 25.006769 
L 319.92736 24.002757 
L 320.244829 25.508775 
L 320.562298 26.010781 
L 320.879767 26.010781 
L 321.197236 25.508775 
L 321.514705 26.512787 
L 321.832175 27.014793 
L 322.149644 27.014793 
L 322.467113 26.512787 
L 322.784582 27.014793 
L 323.102051 27.014793 
L 323.41952 28.018805 
L 323.736989 27.516799 
L 324.054458 28.018805 
L 324.371927 27.014793 
L 324.689396 28.018805 
L 325.641804 28.018805 
L 325.959273 29.022817 
L 326.276742 29.022817 
L 326.594211 30.026829 
L 326.91168 29.524823 
L 327.229149 30.528835 
L 327.546618 30.528835 
L 327.864087 29.524823 
L 328.181556 29.524823 
L 328.499025 30.026829 
L 328.816495 30.026829 
L 329.133964 31.030841 
L 329.451433 31.030841 
L 329.768902 31.532847 
L 330.40384 31.532847 
L 330.721309 32.536859 
L 331.038778 32.536859 
L 331.673716 33.540871 
L 331.991185 34.544883 
L 332.308655 34.042877 
L 332.626124 34.042877 
L 333.261062 36.552907 
L 333.578531 37.556918 
L 333.896 37.054913 
L 334.213469 37.556918 
L 334.530938 37.556918 
L 334.848407 37.054913 
L 335.800815 37.054913 
L 336.118284 36.050901 
L 336.435753 35.548895 
L 337.070691 35.548895 
L 337.38816 36.050901 
L 337.705629 37.556918 
L 338.658036 37.556918 
L 338.975505 38.058924 
L 339.610444 38.058924 
L 339.927913 38.56093 
L 340.245382 38.56093 
L 340.562851 38.058924 
L 340.88032 39.062936 
L 341.197789 38.56093 
L 341.515258 38.56093 
L 341.832727 39.062936 
L 342.150196 37.556918 
L 342.467665 37.054913 
L 342.785135 37.054913 
L 343.102604 36.050901 
L 343.420073 36.050901 
L 343.737542 36.552907 
L 344.055011 36.050901 
L 344.37248 37.556918 
L 345.007418 37.556918 
L 345.324887 37.054913 
L 345.642356 36.050901 
L 346.594764 36.050901 
L 346.912233 37.054913 
L 347.229702 37.054913 
L 347.86464 36.050901 
L 348.182109 36.552907 
L 348.499578 36.552907 
L 348.817047 37.556918 
L 349.451985 38.56093 
L 349.769455 38.56093 
L 350.086924 38.058924 
L 350.721862 40.066948 
L 351.039331 40.568954 
L 351.3568 40.066948 
L 352.309207 41.572966 
L 352.626676 40.568954 
L 352.944145 41.07096 
L 353.261615 41.07096 
L 353.579084 42.074972 
L 353.896553 42.074972 
L 354.214022 42.576978 
L 355.166429 42.576978 
L 355.483898 43.078984 
L 356.436305 47.095032 
L 356.753775 47.095032 
L 357.071244 47.597038 
L 357.388713 48.60105 
L 357.706182 48.60105 
L 358.023651 49.103056 
L 359.610996 49.103056 
L 359.928465 48.60105 
L 360.245935 49.103056 
L 360.563404 50.107068 
L 360.880873 50.609074 
L 361.198342 50.107068 
L 361.515811 50.609074 
L 361.83328 50.107068 
L 362.150749 50.107068 
L 362.468218 49.103056 
L 362.785687 50.609074 
L 363.103156 50.609074 
L 363.420625 50.107068 
L 363.738095 51.11108 
L 364.373033 51.11108 
L 364.690502 52.115092 
L 365.007971 52.115092 
L 365.642909 54.123116 
L 366.277847 55.127128 
L 366.595316 56.13114 
L 366.912785 55.629134 
L 367.230255 55.629134 
L 367.547724 56.13114 
L 367.865193 55.629134 
L 369.452538 55.629134 
L 370.087476 53.62111 
L 370.404945 55.127128 
L 370.722415 55.127128 
L 371.039884 54.625122 
L 371.357353 55.629134 
L 372.30976 55.629134 
L 372.627229 56.13114 
L 372.944698 56.13114 
L 374.214575 58.139163 
L 374.532044 59.143175 
L 374.849513 59.645181 
L 375.166982 59.645181 
L 375.80192 57.637157 
L 376.436858 57.637157 
L 376.754327 58.641169 
L 377.071796 60.147187 
L 377.389265 60.649193 
L 377.706735 60.649193 
L 378.341673 62.657217 
L 378.976611 63.661229 
L 379.29408 63.661229 
L 379.929018 64.665241 
L 380.246487 63.661229 
L 380.563956 63.661229 
L 380.881425 63.159223 
L 381.198895 63.661229 
L 381.516364 63.159223 
L 381.833833 63.159223 
L 382.151302 63.661229 
L 382.468771 63.159223 
L 382.78624 63.159223 
L 383.103709 64.163235 
L 383.421178 64.163235 
L 383.738647 65.167247 
L 384.056116 65.167247 
L 384.373585 65.669253 
L 384.691055 65.669253 
L 385.008524 66.171259 
L 385.325993 67.175271 
L 385.960931 67.175271 
L 386.2784 68.179283 
L 386.913338 69.183295 
L 387.230807 70.187307 
L 388.500684 70.187307 
L 388.818153 71.693325 
L 389.453091 71.693325 
L 390.088029 72.697337 
L 390.405498 72.697337 
L 390.722967 73.199343 
L 391.040436 73.199343 
L 391.357905 74.203355 
L 391.675375 74.203355 
L 391.992844 75.207367 
L 392.310313 74.705361 
L 392.627782 74.705361 
L 392.945251 75.709373 
L 393.26272 75.207367 
L 394.215127 75.207367 
L 394.850065 76.211379 
L 395.167535 77.717397 
L 395.485004 77.717397 
L 395.802473 78.219402 
L 396.119942 78.219402 
L 396.437411 77.717397 
L 397.707287 79.72542 
L 398.024756 79.72542 
L 398.659695 80.729432 
L 398.977164 81.733444 
L 399.612102 81.733444 
L 399.929571 82.23545 
L 400.24704 82.23545 
L 400.564509 81.733444 
L 401.199447 81.733444 
L 401.834385 82.737456 
L 402.151855 83.741468 
L 403.421731 83.741468 
L 403.7392 84.243474 
L 404.056669 84.243474 
L 404.374138 85.247486 
L 405.009076 86.251498 
L 405.326545 86.251498 
L 405.326545 86.251498 
" clip-path="url(#p65761fbc10)" style="fill: none; stroke: #1f77b4; stroke-width: 1.5; stroke-linecap: square"/>
   </g>
   <g id="line2d_17">
    <path d="M 87.857455 235.347273 
L 405.326545 86.251498 
" clip-path="url(#p65761fbc10)" style="fill: none; stroke-dasharray: 5.55,2.4; stroke-dashoffset: 0; stroke: #ff7f0e; stroke-width: 1.5"/>
   </g>
   <g id="line2d_18">
    <defs>
     <path id="mda038729bb" d="M 0 3 
C 0.795609 3 1.55874 2.683901 2.12132 2.12132 
C 2.683901 1.55874 3 0.795609 3 0 
C 3 -0.795609 2.683901 -1.55874 2.12132 -2.12132 
C 1.55874 -2.683901 0.795609 -3 0 -3 
C -0.795609 -3 -1.55874 -2.683901 -2.12132 -2.12132 
C -2.683901 -1.55874 -3 -0.795609 -3 0 
C -3 0.795609 -2.683901 1.55874 -2.12132 2.12132 
C -1.55874 2.683901 -0.795609 3 0 3 
z
" style="stroke: #ff0000"/>
    </defs>
    <g clip-path="url(#p65761fbc10)">
     <use xlink:href="#mda038729bb" x="246.274531" y="86.251498" style="fill: #ff0000; stroke: #ff0000"/>
    </g>
   </g>
   <g id="line2d_19">
    <g clip-path="url(#p65761fbc10)">
     <use xlink:href="#mda038729bb" x="315.165324" y="21.492727" style="fill: #ff0000; stroke: #ff0000"/>
    </g>
   </g>
   <g id="patch_3">
    <path d="M 71.984 246.04 
L 71.984 10.8 
" style="fill: none; stroke: #000000; stroke-width: 0.8; stroke-linejoin: miter; stroke-linecap: square"/>
   </g>
   <g id="patch_4">
    <path d="M 421.2 246.04 
L 421.2 10.8 
" style="fill: none; stroke: #000000; stroke-width: 0.8; stroke-linejoin: miter; stroke-linecap: square"/>
   </g>
   <g id="patch_5">
    <path d="M 71.984 246.04 
L 421.2 246.04 
" style="fill: none; stroke: #000000; stroke-width: 0.8; stroke-linejoin: miter; stroke-linecap: square"/>
   </g>
   <g id="patch_6">
    <path d="M 71.984 10.8 
L 421.2 10.8 
" style="fill: none; stroke: #000000; stroke-width: 0.8; stroke-linejoin: miter; stroke-linecap: square"/>
   </g>
   <g id="patch_7">
    <path d="M 386.326737 120.4278 
Q 395.340745 104.213664 403.811505 88.976709 
" style="fill: none; stroke: #000000; stroke-linecap: round"/>
    <path d="M 400.119886 91.500982 
L 403.811505 88.976709 
L 403.615952 93.444568 
" style="fill: none; stroke: #000000; stroke-linecap: round"/>
   </g>
   <g id="text_18">
    <!-- Only remote -->
    <g transform="translate(344.29842 131.776186)scale(0.1 -0.1)">
     <defs>
      <path id="DejaVuSans-4f" d="M 2522 4238 
Q 1834 4238 1429 3725 
Q 1025 3213 1025 2328 
Q 1025 1447 1429 934 
Q 1834 422 2522 422 
Q 3209 422 3611 934 
Q 4013 1447 4013 2328 
Q 4013 3213 3611 3725 
Q 3209 4238 2522 4238 
z
M 2522 4750 
Q 3503 4750 4090 4092 
Q 4678 3434 4678 2328 
Q 4678 1225 4090 567 
Q 3503 -91 2522 -91 
Q 1538 -91 948 565 
Q 359 1222 359 2328 
Q 359 3434 948 4092 
Q 1538 4750 2522 4750 
z
" transform="scale(0.015625)"/>
     </defs>
     <use xlink:href="#DejaVuSans-4f"/>
     <use xlink:href="#DejaVuSans-6e" x="78.710938"/>
     <use xlink:href="#DejaVuSans-6c" x="142.089844"/>
     <use xlink:href="#DejaVuSans-79" x="169.873047"/>
     <use xlink:href="#DejaVuSans-20" x="229.052734"/>
     <use xlink:href="#DejaVuSans-72" x="260.839844"/>
     <use xlink:href="#DejaVuSans-65" x="299.703125"/>
     <use xlink:href="#DejaVuSans-6d" x="361.226562"/>
     <use xlink:href="#DejaVuSans-6f" x="458.638672"/>
     <use xlink:href="#DejaVuSans-74" x="519.820312"/>
     <use xlink:href="#DejaVuSans-65" x="559.029297"/>
    </g>
    <!-- predictions -->
    <g transform="translate(347.638264 142.973998)scale(0.1 -0.1)">
     <use xlink:href="#DejaVuSans-70"/>
     <use xlink:href="#DejaVuSans-72" x="63.476562"/>
     <use xlink:href="#DejaVuSans-65" x="102.339844"/>
     <use xlink:href="#DejaVuSans-64" x="163.863281"/>
     <use xlink:href="#DejaVuSans-69" x="227.339844"/>
     <use xlink:href="#DejaVuSans-63" x="255.123047"/>
     <use xlink:href="#DejaVuSans-74" x="310.103516"/>
     <use xlink:href="#DejaVuSans-69" x="349.3125"/>
     <use xlink:href="#DejaVuSans-6f" x="377.095703"/>
     <use xlink:href="#DejaVuSans-6e" x="438.277344"/>
     <use xlink:href="#DejaVuSans-73" x="501.65625"/>
    </g>
    <!-- (100% / 0.308) -->
    <g transform="translate(337.953889 154.171811)scale(0.1 -0.1)">
     <defs>
      <path id="DejaVuSans-2f" d="M 1625 4666 
L 2156 4666 
L 531 -594 
L 0 -594 
L 1625 4666 
z
" transform="scale(0.015625)"/>
     </defs>
     <use xlink:href="#DejaVuSans-28"/>
     <use xlink:href="#DejaVuSans-31" x="39.013672"/>
     <use xlink:href="#DejaVuSans-30" x="102.636719"/>
     <use xlink:href="#DejaVuSans-30" x="166.259766"/>
     <use xlink:href="#DejaVuSans-25" x="229.882812"/>
     <use xlink:href="#DejaVuSans-20" x="324.902344"/>
     <use xlink:href="#DejaVuSans-2f" x="356.689453"/>
     <use xlink:href="#DejaVuSans-20" x="390.380859"/>
     <use xlink:href="#DejaVuSans-30" x="422.167969"/>
     <use xlink:href="#DejaVuSans-2e" x="485.791016"/>
     <use xlink:href="#DejaVuSans-33" x="517.578125"/>
     <use xlink:href="#DejaVuSans-30" x="581.201172"/>
     <use xlink:href="#DejaVuSans-38" x="644.824219"/>
     <use xlink:href="#DejaVuSans-29" x="708.447266"/>
    </g>
   </g>
   <g id="patch_8">
    <path d="M 112.863921 232.831258 
Q 101.354292 233.989294 90.95708 235.035405 
" style="fill: none; stroke: #000000; stroke-linecap: round"/>
    <path d="M 95.137204 236.624922 
L 90.95708 235.035405 
L 94.736768 232.645016 
" style="fill: none; stroke: #000000; stroke-linecap: round"/>
   </g>
   <g id="text_19">
    <!-- Only local -->
    <g transform="translate(123.164486 220.87196)scale(0.1 -0.1)">
     <use xlink:href="#DejaVuSans-4f"/>
     <use xlink:href="#DejaVuSans-6e" x="78.710938"/>
     <use xlink:href="#DejaVuSans-6c" x="142.089844"/>
     <use xlink:href="#DejaVuSans-79" x="169.873047"/>
     <use xlink:href="#DejaVuSans-20" x="229.052734"/>
     <use xlink:href="#DejaVuSans-6c" x="260.839844"/>
     <use xlink:href="#DejaVuSans-6f" x="288.623047"/>
     <use xlink:href="#DejaVuSans-63" x="349.804688"/>
     <use xlink:href="#DejaVuSans-61" x="404.785156"/>
     <use xlink:href="#DejaVuSans-6c" x="466.064453"/>
    </g>
    <!-- predictions -->
    <g transform="translate(120.169173 232.069773)scale(0.1 -0.1)">
     <use xlink:href="#DejaVuSans-70"/>
     <use xlink:href="#DejaVuSans-72" x="63.476562"/>
     <use xlink:href="#DejaVuSans-65" x="102.339844"/>
     <use xlink:href="#DejaVuSans-64" x="163.863281"/>
     <use xlink:href="#DejaVuSans-69" x="227.339844"/>
     <use xlink:href="#DejaVuSans-63" x="255.123047"/>
     <use xlink:href="#DejaVuSans-74" x="310.103516"/>
     <use xlink:href="#DejaVuSans-69" x="349.3125"/>
     <use xlink:href="#DejaVuSans-6f" x="377.095703"/>
     <use xlink:href="#DejaVuSans-6e" x="438.277344"/>
     <use xlink:href="#DejaVuSans-73" x="501.65625"/>
    </g>
    <!-- (0% / 0.280) -->
    <g transform="translate(116.847298 243.267585)scale(0.1 -0.1)">
     <use xlink:href="#DejaVuSans-28"/>
     <use xlink:href="#DejaVuSans-30" x="39.013672"/>
     <use xlink:href="#DejaVuSans-25" x="102.636719"/>
     <use xlink:href="#DejaVuSans-20" x="197.65625"/>
     <use xlink:href="#DejaVuSans-2f" x="229.443359"/>
     <use xlink:href="#DejaVuSans-20" x="263.134766"/>
     <use xlink:href="#DejaVuSans-30" x="294.921875"/>
     <use xlink:href="#DejaVuSans-2e" x="358.544922"/>
     <use xlink:href="#DejaVuSans-32" x="390.332031"/>
     <use xlink:href="#DejaVuSans-38" x="453.955078"/>
     <use xlink:href="#DejaVuSans-30" x="517.578125"/>
     <use xlink:href="#DejaVuSans-29" x="581.201172"/>
    </g>
   </g>
   <g id="text_20">
    <!-- remote-even -->
    <g transform="translate(214.203437 107.973998)scale(0.1 -0.1)">
     <use xlink:href="#DejaVuSans-72"/>
     <use xlink:href="#DejaVuSans-65" x="38.863281"/>
     <use xlink:href="#DejaVuSans-6d" x="100.386719"/>
     <use xlink:href="#DejaVuSans-6f" x="197.798828"/>
     <use xlink:href="#DejaVuSans-74" x="258.980469"/>
     <use xlink:href="#DejaVuSans-65" x="298.189453"/>
     <use xlink:href="#DejaVuSans-2d" x="359.712891"/>
     <use xlink:href="#DejaVuSans-65" x="395.796875"/>
     <use xlink:href="#DejaVuSans-76" x="457.320312"/>
     <use xlink:href="#DejaVuSans-65" x="516.5"/>
     <use xlink:href="#DejaVuSans-6e" x="578.023438"/>
    </g>
    <!-- (50% / 0.308) -->
    <g transform="translate(212.083125 119.171811)scale(0.1 -0.1)">
     <use xlink:href="#DejaVuSans-28"/>
     <use xlink:href="#DejaVuSans-35" x="39.013672"/>
     <use xlink:href="#DejaVuSans-30" x="102.636719"/>
     <use xlink:href="#DejaVuSans-25" x="166.259766"/>
     <use xlink:href="#DejaVuSans-20" x="261.279297"/>
     <use xlink:href="#DejaVuSans-2f" x="293.066406"/>
     <use xlink:href="#DejaVuSans-20" x="326.757812"/>
     <use xlink:href="#DejaVuSans-30" x="358.544922"/>
     <use xlink:href="#DejaVuSans-2e" x="422.167969"/>
     <use xlink:href="#DejaVuSans-33" x="453.955078"/>
     <use xlink:href="#DejaVuSans-30" x="517.578125"/>
     <use xlink:href="#DejaVuSans-38" x="581.201172"/>
     <use xlink:href="#DejaVuSans-29" x="644.824219"/>
    </g>
   </g>
   <g id="text_21">
    <!-- (72% / 0.320) -->
    <g transform="translate(280.973917 39.41304)scale(0.1 -0.1)">
     <defs>
      <path id="DejaVuSans-37" d="M 525 4666 
L 3525 4666 
L 3525 4397 
L 1831 0 
L 1172 0 
L 2766 4134 
L 525 4134 
L 525 4666 
z
" transform="scale(0.015625)"/>
     </defs>
     <use xlink:href="#DejaVuSans-28"/>
     <use xlink:href="#DejaVuSans-37" x="39.013672"/>
     <use xlink:href="#DejaVuSans-32" x="102.636719"/>
     <use xlink:href="#DejaVuSans-25" x="166.259766"/>
     <use xlink:href="#DejaVuSans-20" x="261.279297"/>
     <use xlink:href="#DejaVuSans-2f" x="293.066406"/>
     <use xlink:href="#DejaVuSans-20" x="326.757812"/>
     <use xlink:href="#DejaVuSans-30" x="358.544922"/>
     <use xlink:href="#DejaVuSans-2e" x="422.167969"/>
     <use xlink:href="#DejaVuSans-33" x="453.955078"/>
     <use xlink:href="#DejaVuSans-32" x="517.578125"/>
     <use xlink:href="#DejaVuSans-30" x="581.201172"/>
     <use xlink:href="#DejaVuSans-29" x="644.824219"/>
    </g>
   </g>
   <g id="text_22">
    <!-- AUC-RAC = 0.843 -->
    <g transform="translate(75.47616 20.750838)scale(0.1 -0.1)">
     <defs>
      <path id="DejaVuSans-41" d="M 2188 4044 
L 1331 1722 
L 3047 1722 
L 2188 4044 
z
M 1831 4666 
L 2547 4666 
L 4325 0 
L 3669 0 
L 3244 1197 
L 1141 1197 
L 716 0 
L 50 0 
L 1831 4666 
z
" transform="scale(0.015625)"/>
      <path id="DejaVuSans-55" d="M 556 4666 
L 1191 4666 
L 1191 1831 
Q 1191 1081 1462 751 
Q 1734 422 2344 422 
Q 2950 422 3222 751 
Q 3494 1081 3494 1831 
L 3494 4666 
L 4128 4666 
L 4128 1753 
Q 4128 841 3676 375 
Q 3225 -91 2344 -91 
Q 1459 -91 1007 375 
Q 556 841 556 1753 
L 556 4666 
z
" transform="scale(0.015625)"/>
      <path id="DejaVuSans-43" d="M 4122 4306 
L 4122 3641 
Q 3803 3938 3442 4084 
Q 3081 4231 2675 4231 
Q 1875 4231 1450 3742 
Q 1025 3253 1025 2328 
Q 1025 1406 1450 917 
Q 1875 428 2675 428 
Q 3081 428 3442 575 
Q 3803 722 4122 1019 
L 4122 359 
Q 3791 134 3420 21 
Q 3050 -91 2638 -91 
Q 1578 -91 968 557 
Q 359 1206 359 2328 
Q 359 3453 968 4101 
Q 1578 4750 2638 4750 
Q 3056 4750 3426 4639 
Q 3797 4528 4122 4306 
z
" transform="scale(0.015625)"/>
     </defs>
     <use xlink:href="#DejaVuSans-41"/>
     <use xlink:href="#DejaVuSans-55" x="68.408203"/>
     <use xlink:href="#DejaVuSans-43" x="141.601562"/>
     <use xlink:href="#DejaVuSans-2d" x="211.425781"/>
     <use xlink:href="#DejaVuSans-52" x="247.509766"/>
     <use xlink:href="#DejaVuSans-41" x="312.992188"/>
     <use xlink:href="#DejaVuSans-43" x="379.650391"/>
     <use xlink:href="#DejaVuSans-20" x="449.474609"/>
     <use xlink:href="#DejaVuSans-3d" x="481.261719"/>
     <use xlink:href="#DejaVuSans-20" x="565.050781"/>
     <use xlink:href="#DejaVuSans-30" x="596.837891"/>
     <use xlink:href="#DejaVuSans-2e" x="660.460938"/>
     <use xlink:href="#DejaVuSans-38" x="692.248047"/>
     <use xlink:href="#DejaVuSans-34" x="755.871094"/>
     <use xlink:href="#DejaVuSans-33" x="819.494141"/>
    </g>
   </g>
   <g id="legend_1">
    <g id="patch_9">
     <path d="M 253.009375 241.04 
L 414.2 241.04 
Q 416.2 241.04 416.2 239.04 
L 416.2 210.68375 
Q 416.2 208.68375 414.2 208.68375 
L 253.009375 208.68375 
Q 251.009375 208.68375 251.009375 210.68375 
L 251.009375 239.04 
Q 251.009375 241.04 253.009375 241.04 
z
" style="fill: #ffffff; opacity: 0.8; stroke: #cccccc; stroke-linejoin: miter"/>
    </g>
    <g id="line2d_20">
     <path d="M 255.009375 216.782187 
L 265.009375 216.782187 
L 275.009375 216.782187 
" style="fill: none; stroke: #1f77b4; stroke-width: 1.5; stroke-linecap: square"/>
    </g>
    <g id="text_23">
     <!-- BiSupervised -->
     <g transform="translate(283.009375 220.282187)scale(0.1 -0.1)">
      <defs>
       <path id="DejaVuSans-42" d="M 1259 2228 
L 1259 519 
L 2272 519 
Q 2781 519 3026 730 
Q 3272 941 3272 1375 
Q 3272 1813 3026 2020 
Q 2781 2228 2272 2228 
L 1259 2228 
z
M 1259 4147 
L 1259 2741 
L 2194 2741 
Q 2656 2741 2882 2914 
Q 3109 3088 3109 3444 
Q 3109 3797 2882 3972 
Q 2656 4147 2194 4147 
L 1259 4147 
z
M 628 4666 
L 2241 4666 
Q 2963 4666 3353 4366 
Q 3744 4066 3744 3513 
Q 3744 3084 3544 2831 
Q 3344 2578 2956 2516 
Q 3422 2416 3680 2098 
Q 3938 1781 3938 1306 
Q 3938 681 3513 340 
Q 3088 0 2303 0 
L 628 0 
L 628 4666 
z
" transform="scale(0.015625)"/>
      </defs>
      <use xlink:href="#DejaVuSans-42"/>
      <use xlink:href="#DejaVuSans-69" x="68.603516"/>
      <use xlink:href="#DejaVuSans-53" x="96.386719"/>
      <use xlink:href="#DejaVuSans-75" x="159.863281"/>
      <use xlink:href="#DejaVuSans-70" x="223.242188"/>
      <use xlink:href="#DejaVuSans-65" x="286.71875"/>
      <use xlink:href="#DejaVuSans-72" x="348.242188"/>
      <use xlink:href="#DejaVuSans-76" x="389.355469"/>
      <use xlink:href="#DejaVuSans-69" x="448.535156"/>
      <use xlink:href="#DejaVuSans-73" x="476.318359"/>
      <use xlink:href="#DejaVuSans-65" x="528.417969"/>
      <use xlink:href="#DejaVuSans-64" x="589.941406"/>
     </g>
    </g>
    <g id="line2d_21">
     <path d="M 255.009375 231.460312 
L 265.009375 231.460312 
L 275.009375 231.460312 
" style="fill: none; stroke-dasharray: 5.55,2.4; stroke-dashoffset: 0; stroke: #ff7f0e; stroke-width: 1.5"/>
    </g>
    <g id="text_24">
     <!-- Random (expected value) -->
     <g transform="translate(283.009375 234.960312)scale(0.1 -0.1)">
      <use xlink:href="#DejaVuSans-52"/>
      <use xlink:href="#DejaVuSans-61" x="67.232422"/>
      <use xlink:href="#DejaVuSans-6e" x="128.511719"/>
      <use xlink:href="#DejaVuSans-64" x="191.890625"/>
      <use xlink:href="#DejaVuSans-6f" x="255.367188"/>
      <use xlink:href="#DejaVuSans-6d" x="316.548828"/>
      <use xlink:href="#DejaVuSans-20" x="413.960938"/>
      <use xlink:href="#DejaVuSans-28" x="445.748047"/>
      <use xlink:href="#DejaVuSans-65" x="484.761719"/>
      <use xlink:href="#DejaVuSans-78" x="544.535156"/>
      <use xlink:href="#DejaVuSans-70" x="603.714844"/>
      <use xlink:href="#DejaVuSans-65" x="667.191406"/>
      <use xlink:href="#DejaVuSans-63" x="728.714844"/>
      <use xlink:href="#DejaVuSans-74" x="783.695312"/>
      <use xlink:href="#DejaVuSans-65" x="822.904297"/>
      <use xlink:href="#DejaVuSans-64" x="884.427734"/>
      <use xlink:href="#DejaVuSans-20" x="947.904297"/>
      <use xlink:href="#DejaVuSans-76" x="979.691406"/>
      <use xlink:href="#DejaVuSans-61" x="1038.871094"/>
      <use xlink:href="#DejaVuSans-6c" x="1100.150391"/>
      <use xlink:href="#DejaVuSans-75" x="1127.933594"/>
      <use xlink:href="#DejaVuSans-65" x="1191.3125"/>
      <use xlink:href="#DejaVuSans-29" x="1252.835938"/>
     </g>
    </g>
   </g>
  </g>
 </g>
 <defs>
  <clipPath id="p65761fbc10">
   <rect x="71.984" y="10.8" width="349.216" height="235.24"/>
  </clipPath>
 </defs>
</svg>
