<?xml version="1.0" encoding="utf-8" standalone="no"?>
<!DOCTYPE svg PUBLIC "-//W3C//DTD SVG 1.1//EN"
  "http://www.w3.org/Graphics/SVG/1.1/DTD/svg11.dtd">
<svg xmlns:xlink="http://www.w3.org/1999/xlink" width="432pt" height="288pt" viewBox="0 0 432 288" xmlns="http://www.w3.org/2000/svg" version="1.1">
 <metadata>
  <rdf:RDF xmlns:dc="http://purl.org/dc/elements/1.1/" xmlns:cc="http://creativecommons.org/ns#" xmlns:rdf="http://www.w3.org/1999/02/22-rdf-syntax-ns#">
   <cc:Work>
    <dc:type rdf:resource="http://purl.org/dc/dcmitype/StillImage"/>
    <dc:date>2023-01-19T13:45:47.705538</dc:date>
    <dc:format>image/svg+xml</dc:format>
    <dc:creator>
     <cc:Agent>
      <dc:title>Matplotlib v3.5.2, https://matplotlib.org/</dc:title>
     </cc:Agent>
    </dc:creator>
   </cc:Work>
  </rdf:RDF>
 </metadata>
 <defs>
  <style type="text/css">*{stroke-linejoin: round; stroke-linecap: butt}</style>
 </defs>
 <g id="figure_1">
  <g id="patch_1">
   <path d="M 0 288 
L 432 288 
L 432 0 
L 0 0 
z
" style="fill: #ffffff"/>
  </g>
  <g id="axes_1">
   <g id="patch_2">
    <path d="M 71.984 246.04 
L 421.2 246.04 
L 421.2 10.8 
L 71.984 10.8 
z
" style="fill: #ffffff"/>
   </g>
   <g id="matplotlib.axis_1">
    <g id="xtick_1">
     <g id="line2d_1">
      <defs>
       <path id="m550a7314d7" d="M 0 0 
L 0 3.5 
" style="stroke: #000000; stroke-width: 0.8"/>
      </defs>
      <g>
       <use xlink:href="#m550a7314d7" x="87.857455" y="246.04" style="stroke: #000000; stroke-width: 0.8"/>
      </g>
     </g>
     <g id="text_1">
      <!-- 0% -->
      <g transform="translate(79.925423 260.638438)scale(0.1 -0.1)">
       <defs>
        <path id="DejaVuSans-30" d="M 2034 4250 
Q 1547 4250 1301 3770 
Q 1056 3291 1056 2328 
Q 1056 1369 1301 889 
Q 1547 409 2034 409 
Q 2525 409 2770 889 
Q 3016 1369 3016 2328 
Q 3016 3291 2770 3770 
Q 2525 4250 2034 4250 
z
M 2034 4750 
Q 2819 4750 3233 4129 
Q 3647 3509 3647 2328 
Q 3647 1150 3233 529 
Q 2819 -91 2034 -91 
Q 1250 -91 836 529 
Q 422 1150 422 2328 
Q 422 3509 836 4129 
Q 1250 4750 2034 4750 
z
" transform="scale(0.015625)"/>
        <path id="DejaVuSans-25" d="M 4653 2053 
Q 4381 2053 4226 1822 
Q 4072 1591 4072 1178 
Q 4072 772 4226 539 
Q 4381 306 4653 306 
Q 4919 306 5073 539 
Q 5228 772 5228 1178 
Q 5228 1588 5073 1820 
Q 4919 2053 4653 2053 
z
M 4653 2450 
Q 5147 2450 5437 2106 
Q 5728 1763 5728 1178 
Q 5728 594 5436 251 
Q 5144 -91 4653 -91 
Q 4153 -91 3862 251 
Q 3572 594 3572 1178 
Q 3572 1766 3864 2108 
Q 4156 2450 4653 2450 
z
M 1428 4353 
Q 1159 4353 1004 4120 
Q 850 3888 850 3481 
Q 850 3069 1003 2837 
Q 1156 2606 1428 2606 
Q 1700 2606 1854 2837 
Q 2009 3069 2009 3481 
Q 2009 3884 1853 4118 
Q 1697 4353 1428 4353 
z
M 4250 4750 
L 4750 4750 
L 1831 -91 
L 1331 -91 
L 4250 4750 
z
M 1428 4750 
Q 1922 4750 2215 4408 
Q 2509 4066 2509 3481 
Q 2509 2891 2217 2550 
Q 1925 2209 1428 2209 
Q 931 2209 642 2551 
Q 353 2894 353 3481 
Q 353 4063 643 4406 
Q 934 4750 1428 4750 
z
" transform="scale(0.015625)"/>
       </defs>
       <use xlink:href="#DejaVuSans-30"/>
       <use xlink:href="#DejaVuSans-25" x="63.623047"/>
      </g>
     </g>
    </g>
    <g id="xtick_2">
     <g id="line2d_2">
      <g>
       <use xlink:href="#m550a7314d7" x="151.351273" y="246.04" style="stroke: #000000; stroke-width: 0.8"/>
      </g>
     </g>
     <g id="text_2">
      <!-- 20% -->
      <g transform="translate(140.237991 260.638438)scale(0.1 -0.1)">
       <defs>
        <path id="DejaVuSans-32" d="M 1228 531 
L 3431 531 
L 3431 0 
L 469 0 
L 469 531 
Q 828 903 1448 1529 
Q 2069 2156 2228 2338 
Q 2531 2678 2651 2914 
Q 2772 3150 2772 3378 
Q 2772 3750 2511 3984 
Q 2250 4219 1831 4219 
Q 1534 4219 1204 4116 
Q 875 4013 500 3803 
L 500 4441 
Q 881 4594 1212 4672 
Q 1544 4750 1819 4750 
Q 2544 4750 2975 4387 
Q 3406 4025 3406 3419 
Q 3406 3131 3298 2873 
Q 3191 2616 2906 2266 
Q 2828 2175 2409 1742 
Q 1991 1309 1228 531 
z
" transform="scale(0.015625)"/>
       </defs>
       <use xlink:href="#DejaVuSans-32"/>
       <use xlink:href="#DejaVuSans-30" x="63.623047"/>
       <use xlink:href="#DejaVuSans-25" x="127.246094"/>
      </g>
     </g>
    </g>
    <g id="xtick_3">
     <g id="line2d_3">
      <g>
       <use xlink:href="#m550a7314d7" x="214.845091" y="246.04" style="stroke: #000000; stroke-width: 0.8"/>
      </g>
     </g>
     <g id="text_3">
      <!-- 40% -->
      <g transform="translate(203.73181 260.638438)scale(0.1 -0.1)">
       <defs>
        <path id="DejaVuSans-34" d="M 2419 4116 
L 825 1625 
L 2419 1625 
L 2419 4116 
z
M 2253 4666 
L 3047 4666 
L 3047 1625 
L 3713 1625 
L 3713 1100 
L 3047 1100 
L 3047 0 
L 2419 0 
L 2419 1100 
L 313 1100 
L 313 1709 
L 2253 4666 
z
" transform="scale(0.015625)"/>
       </defs>
       <use xlink:href="#DejaVuSans-34"/>
       <use xlink:href="#DejaVuSans-30" x="63.623047"/>
       <use xlink:href="#DejaVuSans-25" x="127.246094"/>
      </g>
     </g>
    </g>
    <g id="xtick_4">
     <g id="line2d_4">
      <g>
       <use xlink:href="#m550a7314d7" x="278.338909" y="246.04" style="stroke: #000000; stroke-width: 0.8"/>
      </g>
     </g>
     <g id="text_4">
      <!-- 60% -->
      <g transform="translate(267.225628 260.638438)scale(0.1 -0.1)">
       <defs>
        <path id="DejaVuSans-36" d="M 2113 2584 
Q 1688 2584 1439 2293 
Q 1191 2003 1191 1497 
Q 1191 994 1439 701 
Q 1688 409 2113 409 
Q 2538 409 2786 701 
Q 3034 994 3034 1497 
Q 3034 2003 2786 2293 
Q 2538 2584 2113 2584 
z
M 3366 4563 
L 3366 3988 
Q 3128 4100 2886 4159 
Q 2644 4219 2406 4219 
Q 1781 4219 1451 3797 
Q 1122 3375 1075 2522 
Q 1259 2794 1537 2939 
Q 1816 3084 2150 3084 
Q 2853 3084 3261 2657 
Q 3669 2231 3669 1497 
Q 3669 778 3244 343 
Q 2819 -91 2113 -91 
Q 1303 -91 875 529 
Q 447 1150 447 2328 
Q 447 3434 972 4092 
Q 1497 4750 2381 4750 
Q 2619 4750 2861 4703 
Q 3103 4656 3366 4563 
z
" transform="scale(0.015625)"/>
       </defs>
       <use xlink:href="#DejaVuSans-36"/>
       <use xlink:href="#DejaVuSans-30" x="63.623047"/>
       <use xlink:href="#DejaVuSans-25" x="127.246094"/>
      </g>
     </g>
    </g>
    <g id="xtick_5">
     <g id="line2d_5">
      <g>
       <use xlink:href="#m550a7314d7" x="341.832727" y="246.04" style="stroke: #000000; stroke-width: 0.8"/>
      </g>
     </g>
     <g id="text_5">
      <!-- 80% -->
      <g transform="translate(330.719446 260.638438)scale(0.1 -0.1)">
       <defs>
        <path id="DejaVuSans-38" d="M 2034 2216 
Q 1584 2216 1326 1975 
Q 1069 1734 1069 1313 
Q 1069 891 1326 650 
Q 1584 409 2034 409 
Q 2484 409 2743 651 
Q 3003 894 3003 1313 
Q 3003 1734 2745 1975 
Q 2488 2216 2034 2216 
z
M 1403 2484 
Q 997 2584 770 2862 
Q 544 3141 544 3541 
Q 544 4100 942 4425 
Q 1341 4750 2034 4750 
Q 2731 4750 3128 4425 
Q 3525 4100 3525 3541 
Q 3525 3141 3298 2862 
Q 3072 2584 2669 2484 
Q 3125 2378 3379 2068 
Q 3634 1759 3634 1313 
Q 3634 634 3220 271 
Q 2806 -91 2034 -91 
Q 1263 -91 848 271 
Q 434 634 434 1313 
Q 434 1759 690 2068 
Q 947 2378 1403 2484 
z
M 1172 3481 
Q 1172 3119 1398 2916 
Q 1625 2713 2034 2713 
Q 2441 2713 2670 2916 
Q 2900 3119 2900 3481 
Q 2900 3844 2670 4047 
Q 2441 4250 2034 4250 
Q 1625 4250 1398 4047 
Q 1172 3844 1172 3481 
z
" transform="scale(0.015625)"/>
       </defs>
       <use xlink:href="#DejaVuSans-38"/>
       <use xlink:href="#DejaVuSans-30" x="63.623047"/>
       <use xlink:href="#DejaVuSans-25" x="127.246094"/>
      </g>
     </g>
    </g>
    <g id="xtick_6">
     <g id="line2d_6">
      <g>
       <use xlink:href="#m550a7314d7" x="405.326545" y="246.04" style="stroke: #000000; stroke-width: 0.8"/>
      </g>
     </g>
     <g id="text_6">
      <!-- 100% -->
      <g transform="translate(391.032014 260.638438)scale(0.1 -0.1)">
       <defs>
        <path id="DejaVuSans-31" d="M 794 531 
L 1825 531 
L 1825 4091 
L 703 3866 
L 703 4441 
L 1819 4666 
L 2450 4666 
L 2450 531 
L 3481 531 
L 3481 0 
L 794 0 
L 794 531 
z
" transform="scale(0.015625)"/>
       </defs>
       <use xlink:href="#DejaVuSans-31"/>
       <use xlink:href="#DejaVuSans-30" x="63.623047"/>
       <use xlink:href="#DejaVuSans-30" x="127.246094"/>
       <use xlink:href="#DejaVuSans-25" x="190.869141"/>
      </g>
     </g>
    </g>
    <g id="text_7">
     <!-- Percentage of Samples predicted by Remote Model (=cost) -->
     <g transform="translate(98.552156 274.316562)scale(0.1 -0.1)">
      <defs>
       <path id="DejaVuSans-50" d="M 1259 4147 
L 1259 2394 
L 2053 2394 
Q 2494 2394 2734 2622 
Q 2975 2850 2975 3272 
Q 2975 3691 2734 3919 
Q 2494 4147 2053 4147 
L 1259 4147 
z
M 628 4666 
L 2053 4666 
Q 2838 4666 3239 4311 
Q 3641 3956 3641 3272 
Q 3641 2581 3239 2228 
Q 2838 1875 2053 1875 
L 1259 1875 
L 1259 0 
L 628 0 
L 628 4666 
z
" transform="scale(0.015625)"/>
       <path id="DejaVuSans-65" d="M 3597 1894 
L 3597 1613 
L 953 1613 
Q 991 1019 1311 708 
Q 1631 397 2203 397 
Q 2534 397 2845 478 
Q 3156 559 3463 722 
L 3463 178 
Q 3153 47 2828 -22 
Q 2503 -91 2169 -91 
Q 1331 -91 842 396 
Q 353 884 353 1716 
Q 353 2575 817 3079 
Q 1281 3584 2069 3584 
Q 2775 3584 3186 3129 
Q 3597 2675 3597 1894 
z
M 3022 2063 
Q 3016 2534 2758 2815 
Q 2500 3097 2075 3097 
Q 1594 3097 1305 2825 
Q 1016 2553 972 2059 
L 3022 2063 
z
" transform="scale(0.015625)"/>
       <path id="DejaVuSans-72" d="M 2631 2963 
Q 2534 3019 2420 3045 
Q 2306 3072 2169 3072 
Q 1681 3072 1420 2755 
Q 1159 2438 1159 1844 
L 1159 0 
L 581 0 
L 581 3500 
L 1159 3500 
L 1159 2956 
Q 1341 3275 1631 3429 
Q 1922 3584 2338 3584 
Q 2397 3584 2469 3576 
Q 2541 3569 2628 3553 
L 2631 2963 
z
" transform="scale(0.015625)"/>
       <path id="DejaVuSans-63" d="M 3122 3366 
L 3122 2828 
Q 2878 2963 2633 3030 
Q 2388 3097 2138 3097 
Q 1578 3097 1268 2742 
Q 959 2388 959 1747 
Q 959 1106 1268 751 
Q 1578 397 2138 397 
Q 2388 397 2633 464 
Q 2878 531 3122 666 
L 3122 134 
Q 2881 22 2623 -34 
Q 2366 -91 2075 -91 
Q 1284 -91 818 406 
Q 353 903 353 1747 
Q 353 2603 823 3093 
Q 1294 3584 2113 3584 
Q 2378 3584 2631 3529 
Q 2884 3475 3122 3366 
z
" transform="scale(0.015625)"/>
       <path id="DejaVuSans-6e" d="M 3513 2113 
L 3513 0 
L 2938 0 
L 2938 2094 
Q 2938 2591 2744 2837 
Q 2550 3084 2163 3084 
Q 1697 3084 1428 2787 
Q 1159 2491 1159 1978 
L 1159 0 
L 581 0 
L 581 3500 
L 1159 3500 
L 1159 2956 
Q 1366 3272 1645 3428 
Q 1925 3584 2291 3584 
Q 2894 3584 3203 3211 
Q 3513 2838 3513 2113 
z
" transform="scale(0.015625)"/>
       <path id="DejaVuSans-74" d="M 1172 4494 
L 1172 3500 
L 2356 3500 
L 2356 3053 
L 1172 3053 
L 1172 1153 
Q 1172 725 1289 603 
Q 1406 481 1766 481 
L 2356 481 
L 2356 0 
L 1766 0 
Q 1100 0 847 248 
Q 594 497 594 1153 
L 594 3053 
L 172 3053 
L 172 3500 
L 594 3500 
L 594 4494 
L 1172 4494 
z
" transform="scale(0.015625)"/>
       <path id="DejaVuSans-61" d="M 2194 1759 
Q 1497 1759 1228 1600 
Q 959 1441 959 1056 
Q 959 750 1161 570 
Q 1363 391 1709 391 
Q 2188 391 2477 730 
Q 2766 1069 2766 1631 
L 2766 1759 
L 2194 1759 
z
M 3341 1997 
L 3341 0 
L 2766 0 
L 2766 531 
Q 2569 213 2275 61 
Q 1981 -91 1556 -91 
Q 1019 -91 701 211 
Q 384 513 384 1019 
Q 384 1609 779 1909 
Q 1175 2209 1959 2209 
L 2766 2209 
L 2766 2266 
Q 2766 2663 2505 2880 
Q 2244 3097 1772 3097 
Q 1472 3097 1187 3025 
Q 903 2953 641 2809 
L 641 3341 
Q 956 3463 1253 3523 
Q 1550 3584 1831 3584 
Q 2591 3584 2966 3190 
Q 3341 2797 3341 1997 
z
" transform="scale(0.015625)"/>
       <path id="DejaVuSans-67" d="M 2906 1791 
Q 2906 2416 2648 2759 
Q 2391 3103 1925 3103 
Q 1463 3103 1205 2759 
Q 947 2416 947 1791 
Q 947 1169 1205 825 
Q 1463 481 1925 481 
Q 2391 481 2648 825 
Q 2906 1169 2906 1791 
z
M 3481 434 
Q 3481 -459 3084 -895 
Q 2688 -1331 1869 -1331 
Q 1566 -1331 1297 -1286 
Q 1028 -1241 775 -1147 
L 775 -588 
Q 1028 -725 1275 -790 
Q 1522 -856 1778 -856 
Q 2344 -856 2625 -561 
Q 2906 -266 2906 331 
L 2906 616 
Q 2728 306 2450 153 
Q 2172 0 1784 0 
Q 1141 0 747 490 
Q 353 981 353 1791 
Q 353 2603 747 3093 
Q 1141 3584 1784 3584 
Q 2172 3584 2450 3431 
Q 2728 3278 2906 2969 
L 2906 3500 
L 3481 3500 
L 3481 434 
z
" transform="scale(0.015625)"/>
       <path id="DejaVuSans-20" transform="scale(0.015625)"/>
       <path id="DejaVuSans-6f" d="M 1959 3097 
Q 1497 3097 1228 2736 
Q 959 2375 959 1747 
Q 959 1119 1226 758 
Q 1494 397 1959 397 
Q 2419 397 2687 759 
Q 2956 1122 2956 1747 
Q 2956 2369 2687 2733 
Q 2419 3097 1959 3097 
z
M 1959 3584 
Q 2709 3584 3137 3096 
Q 3566 2609 3566 1747 
Q 3566 888 3137 398 
Q 2709 -91 1959 -91 
Q 1206 -91 779 398 
Q 353 888 353 1747 
Q 353 2609 779 3096 
Q 1206 3584 1959 3584 
z
" transform="scale(0.015625)"/>
       <path id="DejaVuSans-66" d="M 2375 4863 
L 2375 4384 
L 1825 4384 
Q 1516 4384 1395 4259 
Q 1275 4134 1275 3809 
L 1275 3500 
L 2222 3500 
L 2222 3053 
L 1275 3053 
L 1275 0 
L 697 0 
L 697 3053 
L 147 3053 
L 147 3500 
L 697 3500 
L 697 3744 
Q 697 4328 969 4595 
Q 1241 4863 1831 4863 
L 2375 4863 
z
" transform="scale(0.015625)"/>
       <path id="DejaVuSans-53" d="M 3425 4513 
L 3425 3897 
Q 3066 4069 2747 4153 
Q 2428 4238 2131 4238 
Q 1616 4238 1336 4038 
Q 1056 3838 1056 3469 
Q 1056 3159 1242 3001 
Q 1428 2844 1947 2747 
L 2328 2669 
Q 3034 2534 3370 2195 
Q 3706 1856 3706 1288 
Q 3706 609 3251 259 
Q 2797 -91 1919 -91 
Q 1588 -91 1214 -16 
Q 841 59 441 206 
L 441 856 
Q 825 641 1194 531 
Q 1563 422 1919 422 
Q 2459 422 2753 634 
Q 3047 847 3047 1241 
Q 3047 1584 2836 1778 
Q 2625 1972 2144 2069 
L 1759 2144 
Q 1053 2284 737 2584 
Q 422 2884 422 3419 
Q 422 4038 858 4394 
Q 1294 4750 2059 4750 
Q 2388 4750 2728 4690 
Q 3069 4631 3425 4513 
z
" transform="scale(0.015625)"/>
       <path id="DejaVuSans-6d" d="M 3328 2828 
Q 3544 3216 3844 3400 
Q 4144 3584 4550 3584 
Q 5097 3584 5394 3201 
Q 5691 2819 5691 2113 
L 5691 0 
L 5113 0 
L 5113 2094 
Q 5113 2597 4934 2840 
Q 4756 3084 4391 3084 
Q 3944 3084 3684 2787 
Q 3425 2491 3425 1978 
L 3425 0 
L 2847 0 
L 2847 2094 
Q 2847 2600 2669 2842 
Q 2491 3084 2119 3084 
Q 1678 3084 1418 2786 
Q 1159 2488 1159 1978 
L 1159 0 
L 581 0 
L 581 3500 
L 1159 3500 
L 1159 2956 
Q 1356 3278 1631 3431 
Q 1906 3584 2284 3584 
Q 2666 3584 2933 3390 
Q 3200 3197 3328 2828 
z
" transform="scale(0.015625)"/>
       <path id="DejaVuSans-70" d="M 1159 525 
L 1159 -1331 
L 581 -1331 
L 581 3500 
L 1159 3500 
L 1159 2969 
Q 1341 3281 1617 3432 
Q 1894 3584 2278 3584 
Q 2916 3584 3314 3078 
Q 3713 2572 3713 1747 
Q 3713 922 3314 415 
Q 2916 -91 2278 -91 
Q 1894 -91 1617 61 
Q 1341 213 1159 525 
z
M 3116 1747 
Q 3116 2381 2855 2742 
Q 2594 3103 2138 3103 
Q 1681 3103 1420 2742 
Q 1159 2381 1159 1747 
Q 1159 1113 1420 752 
Q 1681 391 2138 391 
Q 2594 391 2855 752 
Q 3116 1113 3116 1747 
z
" transform="scale(0.015625)"/>
       <path id="DejaVuSans-6c" d="M 603 4863 
L 1178 4863 
L 1178 0 
L 603 0 
L 603 4863 
z
" transform="scale(0.015625)"/>
       <path id="DejaVuSans-73" d="M 2834 3397 
L 2834 2853 
Q 2591 2978 2328 3040 
Q 2066 3103 1784 3103 
Q 1356 3103 1142 2972 
Q 928 2841 928 2578 
Q 928 2378 1081 2264 
Q 1234 2150 1697 2047 
L 1894 2003 
Q 2506 1872 2764 1633 
Q 3022 1394 3022 966 
Q 3022 478 2636 193 
Q 2250 -91 1575 -91 
Q 1294 -91 989 -36 
Q 684 19 347 128 
L 347 722 
Q 666 556 975 473 
Q 1284 391 1588 391 
Q 1994 391 2212 530 
Q 2431 669 2431 922 
Q 2431 1156 2273 1281 
Q 2116 1406 1581 1522 
L 1381 1569 
Q 847 1681 609 1914 
Q 372 2147 372 2553 
Q 372 3047 722 3315 
Q 1072 3584 1716 3584 
Q 2034 3584 2315 3537 
Q 2597 3491 2834 3397 
z
" transform="scale(0.015625)"/>
       <path id="DejaVuSans-64" d="M 2906 2969 
L 2906 4863 
L 3481 4863 
L 3481 0 
L 2906 0 
L 2906 525 
Q 2725 213 2448 61 
Q 2172 -91 1784 -91 
Q 1150 -91 751 415 
Q 353 922 353 1747 
Q 353 2572 751 3078 
Q 1150 3584 1784 3584 
Q 2172 3584 2448 3432 
Q 2725 3281 2906 2969 
z
M 947 1747 
Q 947 1113 1208 752 
Q 1469 391 1925 391 
Q 2381 391 2643 752 
Q 2906 1113 2906 1747 
Q 2906 2381 2643 2742 
Q 2381 3103 1925 3103 
Q 1469 3103 1208 2742 
Q 947 2381 947 1747 
z
" transform="scale(0.015625)"/>
       <path id="DejaVuSans-69" d="M 603 3500 
L 1178 3500 
L 1178 0 
L 603 0 
L 603 3500 
z
M 603 4863 
L 1178 4863 
L 1178 4134 
L 603 4134 
L 603 4863 
z
" transform="scale(0.015625)"/>
       <path id="DejaVuSans-62" d="M 3116 1747 
Q 3116 2381 2855 2742 
Q 2594 3103 2138 3103 
Q 1681 3103 1420 2742 
Q 1159 2381 1159 1747 
Q 1159 1113 1420 752 
Q 1681 391 2138 391 
Q 2594 391 2855 752 
Q 3116 1113 3116 1747 
z
M 1159 2969 
Q 1341 3281 1617 3432 
Q 1894 3584 2278 3584 
Q 2916 3584 3314 3078 
Q 3713 2572 3713 1747 
Q 3713 922 3314 415 
Q 2916 -91 2278 -91 
Q 1894 -91 1617 61 
Q 1341 213 1159 525 
L 1159 0 
L 581 0 
L 581 4863 
L 1159 4863 
L 1159 2969 
z
" transform="scale(0.015625)"/>
       <path id="DejaVuSans-79" d="M 2059 -325 
Q 1816 -950 1584 -1140 
Q 1353 -1331 966 -1331 
L 506 -1331 
L 506 -850 
L 844 -850 
Q 1081 -850 1212 -737 
Q 1344 -625 1503 -206 
L 1606 56 
L 191 3500 
L 800 3500 
L 1894 763 
L 2988 3500 
L 3597 3500 
L 2059 -325 
z
" transform="scale(0.015625)"/>
       <path id="DejaVuSans-52" d="M 2841 2188 
Q 3044 2119 3236 1894 
Q 3428 1669 3622 1275 
L 4263 0 
L 3584 0 
L 2988 1197 
Q 2756 1666 2539 1819 
Q 2322 1972 1947 1972 
L 1259 1972 
L 1259 0 
L 628 0 
L 628 4666 
L 2053 4666 
Q 2853 4666 3247 4331 
Q 3641 3997 3641 3322 
Q 3641 2881 3436 2590 
Q 3231 2300 2841 2188 
z
M 1259 4147 
L 1259 2491 
L 2053 2491 
Q 2509 2491 2742 2702 
Q 2975 2913 2975 3322 
Q 2975 3731 2742 3939 
Q 2509 4147 2053 4147 
L 1259 4147 
z
" transform="scale(0.015625)"/>
       <path id="DejaVuSans-4d" d="M 628 4666 
L 1569 4666 
L 2759 1491 
L 3956 4666 
L 4897 4666 
L 4897 0 
L 4281 0 
L 4281 4097 
L 3078 897 
L 2444 897 
L 1241 4097 
L 1241 0 
L 628 0 
L 628 4666 
z
" transform="scale(0.015625)"/>
       <path id="DejaVuSans-28" d="M 1984 4856 
Q 1566 4138 1362 3434 
Q 1159 2731 1159 2009 
Q 1159 1288 1364 580 
Q 1569 -128 1984 -844 
L 1484 -844 
Q 1016 -109 783 600 
Q 550 1309 550 2009 
Q 550 2706 781 3412 
Q 1013 4119 1484 4856 
L 1984 4856 
z
" transform="scale(0.015625)"/>
       <path id="DejaVuSans-3d" d="M 678 2906 
L 4684 2906 
L 4684 2381 
L 678 2381 
L 678 2906 
z
M 678 1631 
L 4684 1631 
L 4684 1100 
L 678 1100 
L 678 1631 
z
" transform="scale(0.015625)"/>
       <path id="DejaVuSans-29" d="M 513 4856 
L 1013 4856 
Q 1481 4119 1714 3412 
Q 1947 2706 1947 2009 
Q 1947 1309 1714 600 
Q 1481 -109 1013 -844 
L 513 -844 
Q 928 -128 1133 580 
Q 1338 1288 1338 2009 
Q 1338 2731 1133 3434 
Q 928 4138 513 4856 
z
" transform="scale(0.015625)"/>
      </defs>
      <use xlink:href="#DejaVuSans-50"/>
      <use xlink:href="#DejaVuSans-65" x="56.677734"/>
      <use xlink:href="#DejaVuSans-72" x="118.201172"/>
      <use xlink:href="#DejaVuSans-63" x="157.064453"/>
      <use xlink:href="#DejaVuSans-65" x="212.044922"/>
      <use xlink:href="#DejaVuSans-6e" x="273.568359"/>
      <use xlink:href="#DejaVuSans-74" x="336.947266"/>
      <use xlink:href="#DejaVuSans-61" x="376.15625"/>
      <use xlink:href="#DejaVuSans-67" x="437.435547"/>
      <use xlink:href="#DejaVuSans-65" x="500.912109"/>
      <use xlink:href="#DejaVuSans-20" x="562.435547"/>
      <use xlink:href="#DejaVuSans-6f" x="594.222656"/>
      <use xlink:href="#DejaVuSans-66" x="655.404297"/>
      <use xlink:href="#DejaVuSans-20" x="690.609375"/>
      <use xlink:href="#DejaVuSans-53" x="722.396484"/>
      <use xlink:href="#DejaVuSans-61" x="785.873047"/>
      <use xlink:href="#DejaVuSans-6d" x="847.152344"/>
      <use xlink:href="#DejaVuSans-70" x="944.564453"/>
      <use xlink:href="#DejaVuSans-6c" x="1008.041016"/>
      <use xlink:href="#DejaVuSans-65" x="1035.824219"/>
      <use xlink:href="#DejaVuSans-73" x="1097.347656"/>
      <use xlink:href="#DejaVuSans-20" x="1149.447266"/>
      <use xlink:href="#DejaVuSans-70" x="1181.234375"/>
      <use xlink:href="#DejaVuSans-72" x="1244.710938"/>
      <use xlink:href="#DejaVuSans-65" x="1283.574219"/>
      <use xlink:href="#DejaVuSans-64" x="1345.097656"/>
      <use xlink:href="#DejaVuSans-69" x="1408.574219"/>
      <use xlink:href="#DejaVuSans-63" x="1436.357422"/>
      <use xlink:href="#DejaVuSans-74" x="1491.337891"/>
      <use xlink:href="#DejaVuSans-65" x="1530.546875"/>
      <use xlink:href="#DejaVuSans-64" x="1592.070312"/>
      <use xlink:href="#DejaVuSans-20" x="1655.546875"/>
      <use xlink:href="#DejaVuSans-62" x="1687.333984"/>
      <use xlink:href="#DejaVuSans-79" x="1750.810547"/>
      <use xlink:href="#DejaVuSans-20" x="1809.990234"/>
      <use xlink:href="#DejaVuSans-52" x="1841.777344"/>
      <use xlink:href="#DejaVuSans-65" x="1906.759766"/>
      <use xlink:href="#DejaVuSans-6d" x="1968.283203"/>
      <use xlink:href="#DejaVuSans-6f" x="2065.695312"/>
      <use xlink:href="#DejaVuSans-74" x="2126.876953"/>
      <use xlink:href="#DejaVuSans-65" x="2166.085938"/>
      <use xlink:href="#DejaVuSans-20" x="2227.609375"/>
      <use xlink:href="#DejaVuSans-4d" x="2259.396484"/>
      <use xlink:href="#DejaVuSans-6f" x="2345.675781"/>
      <use xlink:href="#DejaVuSans-64" x="2406.857422"/>
      <use xlink:href="#DejaVuSans-65" x="2470.333984"/>
      <use xlink:href="#DejaVuSans-6c" x="2531.857422"/>
      <use xlink:href="#DejaVuSans-20" x="2559.640625"/>
      <use xlink:href="#DejaVuSans-28" x="2591.427734"/>
      <use xlink:href="#DejaVuSans-3d" x="2630.441406"/>
      <use xlink:href="#DejaVuSans-63" x="2714.230469"/>
      <use xlink:href="#DejaVuSans-6f" x="2769.210938"/>
      <use xlink:href="#DejaVuSans-73" x="2830.392578"/>
      <use xlink:href="#DejaVuSans-74" x="2882.492188"/>
      <use xlink:href="#DejaVuSans-29" x="2921.701172"/>
     </g>
    </g>
   </g>
   <g id="matplotlib.axis_2">
    <g id="ytick_1">
     <g id="line2d_7">
      <defs>
       <path id="m58f3584392" d="M 0 0 
L -3.5 0 
" style="stroke: #000000; stroke-width: 0.8"/>
      </defs>
      <g>
       <use xlink:href="#m58f3584392" x="71.984" y="239.401271" style="stroke: #000000; stroke-width: 0.8"/>
      </g>
     </g>
     <g id="text_8">
      <!-- 0.675 -->
      <g transform="translate(36.355875 243.20049)scale(0.1 -0.1)">
       <defs>
        <path id="DejaVuSans-2e" d="M 684 794 
L 1344 794 
L 1344 0 
L 684 0 
L 684 794 
z
" transform="scale(0.015625)"/>
        <path id="DejaVuSans-37" d="M 525 4666 
L 3525 4666 
L 3525 4397 
L 1831 0 
L 1172 0 
L 2766 4134 
L 525 4134 
L 525 4666 
z
" transform="scale(0.015625)"/>
        <path id="DejaVuSans-35" d="M 691 4666 
L 3169 4666 
L 3169 4134 
L 1269 4134 
L 1269 2991 
Q 1406 3038 1543 3061 
Q 1681 3084 1819 3084 
Q 2600 3084 3056 2656 
Q 3513 2228 3513 1497 
Q 3513 744 3044 326 
Q 2575 -91 1722 -91 
Q 1428 -91 1123 -41 
Q 819 9 494 109 
L 494 744 
Q 775 591 1075 516 
Q 1375 441 1709 441 
Q 2250 441 2565 725 
Q 2881 1009 2881 1497 
Q 2881 1984 2565 2268 
Q 2250 2553 1709 2553 
Q 1456 2553 1204 2497 
Q 953 2441 691 2322 
L 691 4666 
z
" transform="scale(0.015625)"/>
       </defs>
       <use xlink:href="#DejaVuSans-30"/>
       <use xlink:href="#DejaVuSans-2e" x="63.623047"/>
       <use xlink:href="#DejaVuSans-36" x="95.410156"/>
       <use xlink:href="#DejaVuSans-37" x="159.033203"/>
       <use xlink:href="#DejaVuSans-35" x="222.65625"/>
      </g>
     </g>
    </g>
    <g id="ytick_2">
     <g id="line2d_8">
      <g>
       <use xlink:href="#m58f3584392" x="71.984" y="208.689164" style="stroke: #000000; stroke-width: 0.8"/>
      </g>
     </g>
     <g id="text_9">
      <!-- 0.700 -->
      <g transform="translate(36.355875 212.488382)scale(0.1 -0.1)">
       <use xlink:href="#DejaVuSans-30"/>
       <use xlink:href="#DejaVuSans-2e" x="63.623047"/>
       <use xlink:href="#DejaVuSans-37" x="95.410156"/>
       <use xlink:href="#DejaVuSans-30" x="159.033203"/>
       <use xlink:href="#DejaVuSans-30" x="222.65625"/>
      </g>
     </g>
    </g>
    <g id="ytick_3">
     <g id="line2d_9">
      <g>
       <use xlink:href="#m58f3584392" x="71.984" y="177.977056" style="stroke: #000000; stroke-width: 0.8"/>
      </g>
     </g>
     <g id="text_10">
      <!-- 0.725 -->
      <g transform="translate(36.355875 181.776275)scale(0.1 -0.1)">
       <use xlink:href="#DejaVuSans-30"/>
       <use xlink:href="#DejaVuSans-2e" x="63.623047"/>
       <use xlink:href="#DejaVuSans-37" x="95.410156"/>
       <use xlink:href="#DejaVuSans-32" x="159.033203"/>
       <use xlink:href="#DejaVuSans-35" x="222.65625"/>
      </g>
     </g>
    </g>
    <g id="ytick_4">
     <g id="line2d_10">
      <g>
       <use xlink:href="#m58f3584392" x="71.984" y="147.264949" style="stroke: #000000; stroke-width: 0.8"/>
      </g>
     </g>
     <g id="text_11">
      <!-- 0.750 -->
      <g transform="translate(36.355875 151.064168)scale(0.1 -0.1)">
       <use xlink:href="#DejaVuSans-30"/>
       <use xlink:href="#DejaVuSans-2e" x="63.623047"/>
       <use xlink:href="#DejaVuSans-37" x="95.410156"/>
       <use xlink:href="#DejaVuSans-35" x="159.033203"/>
       <use xlink:href="#DejaVuSans-30" x="222.65625"/>
      </g>
     </g>
    </g>
    <g id="ytick_5">
     <g id="line2d_11">
      <g>
       <use xlink:href="#m58f3584392" x="71.984" y="116.552842" style="stroke: #000000; stroke-width: 0.8"/>
      </g>
     </g>
     <g id="text_12">
      <!-- 0.775 -->
      <g transform="translate(36.355875 120.35206)scale(0.1 -0.1)">
       <use xlink:href="#DejaVuSans-30"/>
       <use xlink:href="#DejaVuSans-2e" x="63.623047"/>
       <use xlink:href="#DejaVuSans-37" x="95.410156"/>
       <use xlink:href="#DejaVuSans-37" x="159.033203"/>
       <use xlink:href="#DejaVuSans-35" x="222.65625"/>
      </g>
     </g>
    </g>
    <g id="ytick_6">
     <g id="line2d_12">
      <g>
       <use xlink:href="#m58f3584392" x="71.984" y="85.840734" style="stroke: #000000; stroke-width: 0.8"/>
      </g>
     </g>
     <g id="text_13">
      <!-- 0.800 -->
      <g transform="translate(36.355875 89.639953)scale(0.1 -0.1)">
       <use xlink:href="#DejaVuSans-30"/>
       <use xlink:href="#DejaVuSans-2e" x="63.623047"/>
       <use xlink:href="#DejaVuSans-38" x="95.410156"/>
       <use xlink:href="#DejaVuSans-30" x="159.033203"/>
       <use xlink:href="#DejaVuSans-30" x="222.65625"/>
      </g>
     </g>
    </g>
    <g id="ytick_7">
     <g id="line2d_13">
      <g>
       <use xlink:href="#m58f3584392" x="71.984" y="55.128627" style="stroke: #000000; stroke-width: 0.8"/>
      </g>
     </g>
     <g id="text_14">
      <!-- 0.825 -->
      <g transform="translate(36.355875 58.927846)scale(0.1 -0.1)">
       <use xlink:href="#DejaVuSans-30"/>
       <use xlink:href="#DejaVuSans-2e" x="63.623047"/>
       <use xlink:href="#DejaVuSans-38" x="95.410156"/>
       <use xlink:href="#DejaVuSans-32" x="159.033203"/>
       <use xlink:href="#DejaVuSans-35" x="222.65625"/>
      </g>
     </g>
    </g>
    <g id="ytick_8">
     <g id="line2d_14">
      <g>
       <use xlink:href="#m58f3584392" x="71.984" y="24.41652" style="stroke: #000000; stroke-width: 0.8"/>
      </g>
     </g>
     <g id="text_15">
      <!-- 0.850 -->
      <g transform="translate(36.355875 28.215739)scale(0.1 -0.1)">
       <use xlink:href="#DejaVuSans-30"/>
       <use xlink:href="#DejaVuSans-2e" x="63.623047"/>
       <use xlink:href="#DejaVuSans-38" x="95.410156"/>
       <use xlink:href="#DejaVuSans-35" x="159.033203"/>
       <use xlink:href="#DejaVuSans-30" x="222.65625"/>
      </g>
     </g>
    </g>
    <g id="text_16">
     <!-- System-level top-1 accuracy, -->
     <g transform="translate(19.078375 201.265313)rotate(-90)scale(0.1 -0.1)">
      <defs>
       <path id="DejaVuSans-2d" d="M 313 2009 
L 1997 2009 
L 1997 1497 
L 313 1497 
L 313 2009 
z
" transform="scale(0.015625)"/>
       <path id="DejaVuSans-76" d="M 191 3500 
L 800 3500 
L 1894 563 
L 2988 3500 
L 3597 3500 
L 2284 0 
L 1503 0 
L 191 3500 
z
" transform="scale(0.015625)"/>
       <path id="DejaVuSans-75" d="M 544 1381 
L 544 3500 
L 1119 3500 
L 1119 1403 
Q 1119 906 1312 657 
Q 1506 409 1894 409 
Q 2359 409 2629 706 
Q 2900 1003 2900 1516 
L 2900 3500 
L 3475 3500 
L 3475 0 
L 2900 0 
L 2900 538 
Q 2691 219 2414 64 
Q 2138 -91 1772 -91 
Q 1169 -91 856 284 
Q 544 659 544 1381 
z
M 1991 3584 
L 1991 3584 
z
" transform="scale(0.015625)"/>
       <path id="DejaVuSans-2c" d="M 750 794 
L 1409 794 
L 1409 256 
L 897 -744 
L 494 -744 
L 750 256 
L 750 794 
z
" transform="scale(0.015625)"/>
      </defs>
      <use xlink:href="#DejaVuSans-53"/>
      <use xlink:href="#DejaVuSans-79" x="63.476562"/>
      <use xlink:href="#DejaVuSans-73" x="122.65625"/>
      <use xlink:href="#DejaVuSans-74" x="174.755859"/>
      <use xlink:href="#DejaVuSans-65" x="213.964844"/>
      <use xlink:href="#DejaVuSans-6d" x="275.488281"/>
      <use xlink:href="#DejaVuSans-2d" x="372.900391"/>
      <use xlink:href="#DejaVuSans-6c" x="408.984375"/>
      <use xlink:href="#DejaVuSans-65" x="436.767578"/>
      <use xlink:href="#DejaVuSans-76" x="498.291016"/>
      <use xlink:href="#DejaVuSans-65" x="557.470703"/>
      <use xlink:href="#DejaVuSans-6c" x="618.994141"/>
      <use xlink:href="#DejaVuSans-20" x="646.777344"/>
      <use xlink:href="#DejaVuSans-74" x="678.564453"/>
      <use xlink:href="#DejaVuSans-6f" x="717.773438"/>
      <use xlink:href="#DejaVuSans-70" x="778.955078"/>
      <use xlink:href="#DejaVuSans-2d" x="842.431641"/>
      <use xlink:href="#DejaVuSans-31" x="878.515625"/>
      <use xlink:href="#DejaVuSans-20" x="942.138672"/>
      <use xlink:href="#DejaVuSans-61" x="973.925781"/>
      <use xlink:href="#DejaVuSans-63" x="1035.205078"/>
      <use xlink:href="#DejaVuSans-63" x="1090.185547"/>
      <use xlink:href="#DejaVuSans-75" x="1145.166016"/>
      <use xlink:href="#DejaVuSans-72" x="1208.544922"/>
      <use xlink:href="#DejaVuSans-61" x="1249.658203"/>
      <use xlink:href="#DejaVuSans-63" x="1310.9375"/>
      <use xlink:href="#DejaVuSans-79" x="1365.917969"/>
      <use xlink:href="#DejaVuSans-2c" x="1425.097656"/>
     </g>
     <!--  without 2nd-level supervision -->
     <g transform="translate(30.276188 203.85125)rotate(-90)scale(0.1 -0.1)">
      <defs>
       <path id="DejaVuSans-77" d="M 269 3500 
L 844 3500 
L 1563 769 
L 2278 3500 
L 2956 3500 
L 3675 769 
L 4391 3500 
L 4966 3500 
L 4050 0 
L 3372 0 
L 2619 2869 
L 1863 0 
L 1184 0 
L 269 3500 
z
" transform="scale(0.015625)"/>
       <path id="DejaVuSans-68" d="M 3513 2113 
L 3513 0 
L 2938 0 
L 2938 2094 
Q 2938 2591 2744 2837 
Q 2550 3084 2163 3084 
Q 1697 3084 1428 2787 
Q 1159 2491 1159 1978 
L 1159 0 
L 581 0 
L 581 4863 
L 1159 4863 
L 1159 2956 
Q 1366 3272 1645 3428 
Q 1925 3584 2291 3584 
Q 2894 3584 3203 3211 
Q 3513 2838 3513 2113 
z
" transform="scale(0.015625)"/>
      </defs>
      <use xlink:href="#DejaVuSans-20"/>
      <use xlink:href="#DejaVuSans-77" x="31.787109"/>
      <use xlink:href="#DejaVuSans-69" x="113.574219"/>
      <use xlink:href="#DejaVuSans-74" x="141.357422"/>
      <use xlink:href="#DejaVuSans-68" x="180.566406"/>
      <use xlink:href="#DejaVuSans-6f" x="243.945312"/>
      <use xlink:href="#DejaVuSans-75" x="305.126953"/>
      <use xlink:href="#DejaVuSans-74" x="368.505859"/>
      <use xlink:href="#DejaVuSans-20" x="407.714844"/>
      <use xlink:href="#DejaVuSans-32" x="439.501953"/>
      <use xlink:href="#DejaVuSans-6e" x="503.125"/>
      <use xlink:href="#DejaVuSans-64" x="566.503906"/>
      <use xlink:href="#DejaVuSans-2d" x="629.980469"/>
      <use xlink:href="#DejaVuSans-6c" x="666.064453"/>
      <use xlink:href="#DejaVuSans-65" x="693.847656"/>
      <use xlink:href="#DejaVuSans-76" x="755.371094"/>
      <use xlink:href="#DejaVuSans-65" x="814.550781"/>
      <use xlink:href="#DejaVuSans-6c" x="876.074219"/>
      <use xlink:href="#DejaVuSans-20" x="903.857422"/>
      <use xlink:href="#DejaVuSans-73" x="935.644531"/>
      <use xlink:href="#DejaVuSans-75" x="987.744141"/>
      <use xlink:href="#DejaVuSans-70" x="1051.123047"/>
      <use xlink:href="#DejaVuSans-65" x="1114.599609"/>
      <use xlink:href="#DejaVuSans-72" x="1176.123047"/>
      <use xlink:href="#DejaVuSans-76" x="1217.236328"/>
      <use xlink:href="#DejaVuSans-69" x="1276.416016"/>
      <use xlink:href="#DejaVuSans-73" x="1304.199219"/>
      <use xlink:href="#DejaVuSans-69" x="1356.298828"/>
      <use xlink:href="#DejaVuSans-6f" x="1384.082031"/>
      <use xlink:href="#DejaVuSans-6e" x="1445.263672"/>
     </g>
    </g>
   </g>
   <g id="line2d_15">
    <path d="M 87.857455 235.347273 
L 88.809862 232.939444 
L 90.079738 230.040221 
L 98.333935 212.988859 
L 98.968873 211.686665 
L 101.826095 206.133916 
L 103.095971 203.750657 
L 105.000785 199.745798 
L 109.127884 191.834359 
L 109.445353 191.465814 
L 113.254982 184.463453 
L 113.88992 183.259539 
L 116.429673 178.296462 
L 117.064611 177.362814 
L 118.017018 175.446379 
L 120.556771 171.097544 
L 120.87424 170.704429 
L 121.509178 169.623363 
L 122.461585 168.124612 
L 124.048931 165.077971 
L 125.636276 162.8667 
L 128.493498 158.17389 
L 129.445905 156.724278 
L 130.080844 155.397515 
L 130.398313 155.0044 
L 131.35072 153.235383 
L 132.938065 150.483578 
L 134.84288 147.068392 
L 135.795287 146.036465 
L 137.065164 143.776054 
L 137.700102 143.063533 
L 138.652509 141.441933 
L 139.922385 139.40265 
L 141.192262 137.265087 
L 143.097076 134.734409 
L 143.732015 133.948179 
L 144.049484 133.284798 
L 144.684422 132.449428 
L 145.954298 130.238157 
L 146.271767 129.943321 
L 146.589236 129.427357 
L 146.906705 129.255369 
L 147.224175 128.567418 
L 148.176582 127.65834 
L 151.351273 122.670694 
L 151.986211 121.859894 
L 152.30368 121.270221 
L 152.621149 120.999955 
L 154.208495 119.05895 
L 154.525964 118.714974 
L 155.79584 116.847678 
L 156.430778 115.987739 
L 157.700655 114.267861 
L 158.018124 113.629049 
L 158.653062 112.79368 
L 159.605469 111.614335 
L 159.922938 111.368638 
L 160.875345 109.943596 
L 162.145222 108.248288 
L 163.097629 107.216361 
L 163.732567 106.52841 
L 164.367505 105.791319 
L 165.954851 103.801175 
L 166.589789 102.744678 
L 168.812073 100.214001 
L 169.129542 99.968304 
L 170.081949 98.71525 
L 170.716887 97.830741 
L 171.351825 96.847954 
L 171.669295 96.651396 
L 171.986764 96.282851 
L 172.621702 95.201785 
L 173.891578 93.653895 
L 174.526516 92.523689 
L 175.478924 91.442623 
L 176.113862 90.410696 
L 177.383738 89.010224 
L 177.701207 88.862806 
L 180.558429 85.914444 
L 181.193367 85.128214 
L 181.510836 84.980795 
L 182.145775 84.366553 
L 183.73312 82.523827 
L 184.050589 82.499257 
L 185.637935 80.926797 
L 186.590342 79.89487 
L 187.542749 78.690956 
L 188.812625 77.58532 
L 189.130095 77.388763 
L 190.082502 76.061999 
L 190.399971 75.914581 
L 190.71744 75.398618 
L 194.527069 72.10628 
L 195.162007 71.467468 
L 195.796945 71.049784 
L 196.749353 69.895008 
L 197.066822 69.74759 
L 198.019229 68.813942 
L 198.336698 68.691094 
L 198.971636 68.052282 
L 200.241513 67.167773 
L 201.19392 66.307834 
L 201.511389 66.111277 
L 202.463796 65.202198 
L 203.416204 64.415968 
L 205.955956 62.130988 
L 206.590895 61.737873 
L 207.225833 61.295618 
L 209.765585 59.256334 
L 211.035462 58.543814 
L 211.352931 58.519244 
L 214.527622 55.472603 
L 215.480029 54.784652 
L 215.797498 54.710943 
L 216.749905 54.0967 
L 219.924596 52.032847 
L 223.734225 49.182763 
L 224.369164 48.863357 
L 225.63904 48.543951 
L 226.273978 48.101697 
L 226.591447 47.978849 
L 227.226385 47.512025 
L 228.178793 46.922352 
L 228.813731 46.627516 
L 229.766138 46.111552 
L 230.401076 45.718438 
L 231.036015 45.374462 
L 231.988422 44.858498 
L 233.258298 44.391674 
L 234.210705 43.826572 
L 234.845644 43.21233 
L 235.163113 43.089481 
L 235.798051 42.647227 
L 238.655273 41.541591 
L 239.290211 41.050197 
L 239.925149 40.755361 
L 240.242618 40.558803 
L 240.560087 40.534234 
L 244.687185 38.716077 
L 245.639593 38.322962 
L 246.909469 37.73329 
L 248.814284 36.873351 
L 249.131753 36.848781 
L 249.449222 36.652223 
L 249.766691 36.627654 
L 250.08416 36.381957 
L 251.036567 36.185399 
L 251.671505 35.915133 
L 252.306444 35.865993 
L 253.57632 35.3746 
L 254.211258 35.300891 
L 257.385949 33.851279 
L 258.338356 33.753001 
L 259.608233 33.261607 
L 260.56064 32.721074 
L 261.830516 32.327959 
L 262.465455 32.057692 
L 263.417862 31.664577 
L 265.640145 31.296032 
L 266.592553 30.902917 
L 271.672058 29.379596 
L 271.989527 29.355027 
L 272.624465 29.060191 
L 273.894342 28.863633 
L 274.846749 28.691645 
L 275.164218 28.617936 
L 276.116625 28.101973 
L 276.751564 28.101973 
L 277.386502 27.782567 
L 278.656378 27.684288 
L 279.608785 27.414022 
L 281.196131 27.242034 
L 281.831069 27.045476 
L 282.783476 27.070046 
L 284.370822 26.75064 
L 285.323229 26.652361 
L 285.958167 26.357525 
L 287.228044 26.332955 
L 288.180451 26.308386 
L 291.037673 25.96441 
L 292.307549 25.890701 
L 293.259956 25.546725 
L 294.212364 25.571295 
L 296.752116 25.22732 
L 297.069585 25.251889 
L 297.704524 25.104471 
L 298.656931 24.883344 
L 300.244276 24.686786 
L 300.879215 24.711356 
L 301.514153 24.539368 
L 305.641251 24.293671 
L 306.911127 24.342811 
L 311.990633 23.65486 
L 313.895447 23.581151 
L 315.165324 23.458302 
L 317.705076 23.384593 
L 319.292422 23.237175 
L 320.562298 23.286314 
L 322.149644 23.138896 
L 323.102051 23.065187 
L 324.054458 23.016048 
L 325.006865 22.991478 
L 325.959273 22.917769 
L 326.594211 22.84406 
L 327.229149 22.81949 
L 328.499025 22.81949 
L 331.038778 22.721212 
L 333.261062 22.622933 
L 339.610444 22.229818 
L 342.785135 22.131539 
L 345.642356 22.008691 
L 347.229702 22.03326 
L 349.769455 21.934982 
L 355.801367 21.836703 
L 357.706182 21.787564 
L 375.80192 21.689285 
L 377.706735 21.640145 
L 382.468771 21.541867 
L 384.373585 21.492727 
L 405.326545 21.566436 
L 405.326545 21.566436 
" clip-path="url(#pd7e485732a)" style="fill: none; stroke: #1f77b4; stroke-width: 1.5; stroke-linecap: square"/>
   </g>
   <g id="line2d_16">
    <path d="M 87.857455 235.347273 
L 405.326545 21.566436 
" clip-path="url(#pd7e485732a)" style="fill: none; stroke-dasharray: 5.55,2.4; stroke-dashoffset: 0; stroke: #ff7f0e; stroke-width: 1.5"/>
   </g>
   <g id="line2d_17">
    <defs>
     <path id="me7550773a9" d="M 0 3 
C 0.795609 3 1.55874 2.683901 2.12132 2.12132 
C 2.683901 1.55874 3 0.795609 3 0 
C 3 -0.795609 2.683901 -1.55874 2.12132 -2.12132 
C 1.55874 -2.683901 0.795609 -3 0 -3 
C -0.795609 -3 -1.55874 -2.683901 -2.12132 -2.12132 
C -2.683901 -1.55874 -3 -0.795609 -3 0 
C -3 0.795609 -2.683901 1.55874 -2.12132 2.12132 
C -1.55874 2.683901 -0.795609 3 0 3 
z
" style="stroke: #ff0000"/>
    </defs>
    <g clip-path="url(#pd7e485732a)">
     <use xlink:href="#me7550773a9" x="183.098182" y="83.260917" style="fill: #ff0000; stroke: #ff0000"/>
    </g>
   </g>
   <g id="line2d_18">
    <g clip-path="url(#pd7e485732a)">
     <use xlink:href="#me7550773a9" x="246.592" y="37.856138" style="fill: #ff0000; stroke: #ff0000"/>
    </g>
   </g>
   <g id="line2d_19">
    <g clip-path="url(#pd7e485732a)">
     <use xlink:href="#me7550773a9" x="310.085818" y="23.925126" style="fill: #ff0000; stroke: #ff0000"/>
    </g>
   </g>
   <g id="patch_3">
    <path d="M 71.984 246.04 
L 71.984 10.8 
" style="fill: none; stroke: #000000; stroke-width: 0.8; stroke-linejoin: miter; stroke-linecap: square"/>
   </g>
   <g id="patch_4">
    <path d="M 421.2 246.04 
L 421.2 10.8 
" style="fill: none; stroke: #000000; stroke-width: 0.8; stroke-linejoin: miter; stroke-linecap: square"/>
   </g>
   <g id="patch_5">
    <path d="M 71.984 246.04 
L 421.2 246.04 
" style="fill: none; stroke: #000000; stroke-width: 0.8; stroke-linejoin: miter; stroke-linecap: square"/>
   </g>
   <g id="patch_6">
    <path d="M 71.984 10.8 
L 421.2 10.8 
" style="fill: none; stroke: #000000; stroke-width: 0.8; stroke-linejoin: miter; stroke-linecap: square"/>
   </g>
   <g id="patch_7">
    <path d="M 386.326737 55.742738 
Q 395.340745 39.528603 403.811505 24.291647 
" style="fill: none; stroke: #000000; stroke-linecap: round"/>
    <path d="M 400.119886 26.81592 
L 403.811505 24.291647 
L 403.615952 28.759506 
" style="fill: none; stroke: #000000; stroke-linecap: round"/>
   </g>
   <g id="text_17">
    <!-- Only remote -->
    <g transform="translate(344.29842 67.091124)scale(0.1 -0.1)">
     <defs>
      <path id="DejaVuSans-4f" d="M 2522 4238 
Q 1834 4238 1429 3725 
Q 1025 3213 1025 2328 
Q 1025 1447 1429 934 
Q 1834 422 2522 422 
Q 3209 422 3611 934 
Q 4013 1447 4013 2328 
Q 4013 3213 3611 3725 
Q 3209 4238 2522 4238 
z
M 2522 4750 
Q 3503 4750 4090 4092 
Q 4678 3434 4678 2328 
Q 4678 1225 4090 567 
Q 3503 -91 2522 -91 
Q 1538 -91 948 565 
Q 359 1222 359 2328 
Q 359 3434 948 4092 
Q 1538 4750 2522 4750 
z
" transform="scale(0.015625)"/>
     </defs>
     <use xlink:href="#DejaVuSans-4f"/>
     <use xlink:href="#DejaVuSans-6e" x="78.710938"/>
     <use xlink:href="#DejaVuSans-6c" x="142.089844"/>
     <use xlink:href="#DejaVuSans-79" x="169.873047"/>
     <use xlink:href="#DejaVuSans-20" x="229.052734"/>
     <use xlink:href="#DejaVuSans-72" x="260.839844"/>
     <use xlink:href="#DejaVuSans-65" x="299.703125"/>
     <use xlink:href="#DejaVuSans-6d" x="361.226562"/>
     <use xlink:href="#DejaVuSans-6f" x="458.638672"/>
     <use xlink:href="#DejaVuSans-74" x="519.820312"/>
     <use xlink:href="#DejaVuSans-65" x="559.029297"/>
    </g>
    <!-- predictions -->
    <g transform="translate(347.638264 78.288936)scale(0.1 -0.1)">
     <use xlink:href="#DejaVuSans-70"/>
     <use xlink:href="#DejaVuSans-72" x="63.476562"/>
     <use xlink:href="#DejaVuSans-65" x="102.339844"/>
     <use xlink:href="#DejaVuSans-64" x="163.863281"/>
     <use xlink:href="#DejaVuSans-69" x="227.339844"/>
     <use xlink:href="#DejaVuSans-63" x="255.123047"/>
     <use xlink:href="#DejaVuSans-74" x="310.103516"/>
     <use xlink:href="#DejaVuSans-69" x="349.3125"/>
     <use xlink:href="#DejaVuSans-6f" x="377.095703"/>
     <use xlink:href="#DejaVuSans-6e" x="438.277344"/>
     <use xlink:href="#DejaVuSans-73" x="501.65625"/>
    </g>
    <!-- (100% / 0.852) -->
    <g transform="translate(337.953889 89.486749)scale(0.1 -0.1)">
     <defs>
      <path id="DejaVuSans-2f" d="M 1625 4666 
L 2156 4666 
L 531 -594 
L 0 -594 
L 1625 4666 
z
" transform="scale(0.015625)"/>
     </defs>
     <use xlink:href="#DejaVuSans-28"/>
     <use xlink:href="#DejaVuSans-31" x="39.013672"/>
     <use xlink:href="#DejaVuSans-30" x="102.636719"/>
     <use xlink:href="#DejaVuSans-30" x="166.259766"/>
     <use xlink:href="#DejaVuSans-25" x="229.882812"/>
     <use xlink:href="#DejaVuSans-20" x="324.902344"/>
     <use xlink:href="#DejaVuSans-2f" x="356.689453"/>
     <use xlink:href="#DejaVuSans-20" x="390.380859"/>
     <use xlink:href="#DejaVuSans-30" x="422.167969"/>
     <use xlink:href="#DejaVuSans-2e" x="485.791016"/>
     <use xlink:href="#DejaVuSans-38" x="517.578125"/>
     <use xlink:href="#DejaVuSans-35" x="581.201172"/>
     <use xlink:href="#DejaVuSans-32" x="644.824219"/>
     <use xlink:href="#DejaVuSans-29" x="708.447266"/>
    </g>
   </g>
   <g id="patch_8">
    <path d="M 112.863921 232.831258 
Q 101.354292 233.989294 90.95708 235.035405 
" style="fill: none; stroke: #000000; stroke-linecap: round"/>
    <path d="M 95.137204 236.624922 
L 90.95708 235.035405 
L 94.736768 232.645016 
" style="fill: none; stroke: #000000; stroke-linecap: round"/>
   </g>
   <g id="text_18">
    <!-- Only local -->
    <g transform="translate(123.164486 220.87196)scale(0.1 -0.1)">
     <use xlink:href="#DejaVuSans-4f"/>
     <use xlink:href="#DejaVuSans-6e" x="78.710938"/>
     <use xlink:href="#DejaVuSans-6c" x="142.089844"/>
     <use xlink:href="#DejaVuSans-79" x="169.873047"/>
     <use xlink:href="#DejaVuSans-20" x="229.052734"/>
     <use xlink:href="#DejaVuSans-6c" x="260.839844"/>
     <use xlink:href="#DejaVuSans-6f" x="288.623047"/>
     <use xlink:href="#DejaVuSans-63" x="349.804688"/>
     <use xlink:href="#DejaVuSans-61" x="404.785156"/>
     <use xlink:href="#DejaVuSans-6c" x="466.064453"/>
    </g>
    <!-- predictions -->
    <g transform="translate(120.169173 232.069773)scale(0.1 -0.1)">
     <use xlink:href="#DejaVuSans-70"/>
     <use xlink:href="#DejaVuSans-72" x="63.476562"/>
     <use xlink:href="#DejaVuSans-65" x="102.339844"/>
     <use xlink:href="#DejaVuSans-64" x="163.863281"/>
     <use xlink:href="#DejaVuSans-69" x="227.339844"/>
     <use xlink:href="#DejaVuSans-63" x="255.123047"/>
     <use xlink:href="#DejaVuSans-74" x="310.103516"/>
     <use xlink:href="#DejaVuSans-69" x="349.3125"/>
     <use xlink:href="#DejaVuSans-6f" x="377.095703"/>
     <use xlink:href="#DejaVuSans-6e" x="438.277344"/>
     <use xlink:href="#DejaVuSans-73" x="501.65625"/>
    </g>
    <!-- (0% / 0.678) -->
    <g transform="translate(116.847298 243.267585)scale(0.1 -0.1)">
     <use xlink:href="#DejaVuSans-28"/>
     <use xlink:href="#DejaVuSans-30" x="39.013672"/>
     <use xlink:href="#DejaVuSans-25" x="102.636719"/>
     <use xlink:href="#DejaVuSans-20" x="197.65625"/>
     <use xlink:href="#DejaVuSans-2f" x="229.443359"/>
     <use xlink:href="#DejaVuSans-20" x="263.134766"/>
     <use xlink:href="#DejaVuSans-30" x="294.921875"/>
     <use xlink:href="#DejaVuSans-2e" x="358.544922"/>
     <use xlink:href="#DejaVuSans-36" x="390.332031"/>
     <use xlink:href="#DejaVuSans-37" x="453.955078"/>
     <use xlink:href="#DejaVuSans-38" x="517.578125"/>
     <use xlink:href="#DejaVuSans-29" x="581.201172"/>
    </g>
   </g>
   <g id="text_19">
    <!-- (30% / 0.802) -->
    <g transform="translate(148.906776 101.18123)scale(0.1 -0.1)">
     <defs>
      <path id="DejaVuSans-33" d="M 2597 2516 
Q 3050 2419 3304 2112 
Q 3559 1806 3559 1356 
Q 3559 666 3084 287 
Q 2609 -91 1734 -91 
Q 1441 -91 1130 -33 
Q 819 25 488 141 
L 488 750 
Q 750 597 1062 519 
Q 1375 441 1716 441 
Q 2309 441 2620 675 
Q 2931 909 2931 1356 
Q 2931 1769 2642 2001 
Q 2353 2234 1838 2234 
L 1294 2234 
L 1294 2753 
L 1863 2753 
Q 2328 2753 2575 2939 
Q 2822 3125 2822 3475 
Q 2822 3834 2567 4026 
Q 2313 4219 1838 4219 
Q 1578 4219 1281 4162 
Q 984 4106 628 3988 
L 628 4550 
Q 988 4650 1302 4700 
Q 1616 4750 1894 4750 
Q 2613 4750 3031 4423 
Q 3450 4097 3450 3541 
Q 3450 3153 3228 2886 
Q 3006 2619 2597 2516 
z
" transform="scale(0.015625)"/>
     </defs>
     <use xlink:href="#DejaVuSans-28"/>
     <use xlink:href="#DejaVuSans-33" x="39.013672"/>
     <use xlink:href="#DejaVuSans-30" x="102.636719"/>
     <use xlink:href="#DejaVuSans-25" x="166.259766"/>
     <use xlink:href="#DejaVuSans-20" x="261.279297"/>
     <use xlink:href="#DejaVuSans-2f" x="293.066406"/>
     <use xlink:href="#DejaVuSans-20" x="326.757812"/>
     <use xlink:href="#DejaVuSans-30" x="358.544922"/>
     <use xlink:href="#DejaVuSans-2e" x="422.167969"/>
     <use xlink:href="#DejaVuSans-38" x="453.955078"/>
     <use xlink:href="#DejaVuSans-30" x="517.578125"/>
     <use xlink:href="#DejaVuSans-32" x="581.201172"/>
     <use xlink:href="#DejaVuSans-29" x="644.824219"/>
    </g>
   </g>
   <g id="text_20">
    <!-- (50% / 0.839) -->
    <g transform="translate(212.400594 55.776451)scale(0.1 -0.1)">
     <defs>
      <path id="DejaVuSans-39" d="M 703 97 
L 703 672 
Q 941 559 1184 500 
Q 1428 441 1663 441 
Q 2288 441 2617 861 
Q 2947 1281 2994 2138 
Q 2813 1869 2534 1725 
Q 2256 1581 1919 1581 
Q 1219 1581 811 2004 
Q 403 2428 403 3163 
Q 403 3881 828 4315 
Q 1253 4750 1959 4750 
Q 2769 4750 3195 4129 
Q 3622 3509 3622 2328 
Q 3622 1225 3098 567 
Q 2575 -91 1691 -91 
Q 1453 -91 1209 -44 
Q 966 3 703 97 
z
M 1959 2075 
Q 2384 2075 2632 2365 
Q 2881 2656 2881 3163 
Q 2881 3666 2632 3958 
Q 2384 4250 1959 4250 
Q 1534 4250 1286 3958 
Q 1038 3666 1038 3163 
Q 1038 2656 1286 2365 
Q 1534 2075 1959 2075 
z
" transform="scale(0.015625)"/>
     </defs>
     <use xlink:href="#DejaVuSans-28"/>
     <use xlink:href="#DejaVuSans-35" x="39.013672"/>
     <use xlink:href="#DejaVuSans-30" x="102.636719"/>
     <use xlink:href="#DejaVuSans-25" x="166.259766"/>
     <use xlink:href="#DejaVuSans-20" x="261.279297"/>
     <use xlink:href="#DejaVuSans-2f" x="293.066406"/>
     <use xlink:href="#DejaVuSans-20" x="326.757812"/>
     <use xlink:href="#DejaVuSans-30" x="358.544922"/>
     <use xlink:href="#DejaVuSans-2e" x="422.167969"/>
     <use xlink:href="#DejaVuSans-38" x="453.955078"/>
     <use xlink:href="#DejaVuSans-33" x="517.578125"/>
     <use xlink:href="#DejaVuSans-39" x="581.201172"/>
     <use xlink:href="#DejaVuSans-29" x="644.824219"/>
    </g>
   </g>
   <g id="text_21">
    <!-- (70% / 0.850) -->
    <g transform="translate(275.894412 41.845439)scale(0.1 -0.1)">
     <use xlink:href="#DejaVuSans-28"/>
     <use xlink:href="#DejaVuSans-37" x="39.013672"/>
     <use xlink:href="#DejaVuSans-30" x="102.636719"/>
     <use xlink:href="#DejaVuSans-25" x="166.259766"/>
     <use xlink:href="#DejaVuSans-20" x="261.279297"/>
     <use xlink:href="#DejaVuSans-2f" x="293.066406"/>
     <use xlink:href="#DejaVuSans-20" x="326.757812"/>
     <use xlink:href="#DejaVuSans-30" x="358.544922"/>
     <use xlink:href="#DejaVuSans-2e" x="422.167969"/>
     <use xlink:href="#DejaVuSans-38" x="453.955078"/>
     <use xlink:href="#DejaVuSans-35" x="517.578125"/>
     <use xlink:href="#DejaVuSans-30" x="581.201172"/>
     <use xlink:href="#DejaVuSans-29" x="644.824219"/>
    </g>
   </g>
   <g id="text_22">
    <!-- AUC-RAC = 0.777 -->
    <g transform="translate(75.47616 20.750837)scale(0.1 -0.1)">
     <defs>
      <path id="DejaVuSans-41" d="M 2188 4044 
L 1331 1722 
L 3047 1722 
L 2188 4044 
z
M 1831 4666 
L 2547 4666 
L 4325 0 
L 3669 0 
L 3244 1197 
L 1141 1197 
L 716 0 
L 50 0 
L 1831 4666 
z
" transform="scale(0.015625)"/>
      <path id="DejaVuSans-55" d="M 556 4666 
L 1191 4666 
L 1191 1831 
Q 1191 1081 1462 751 
Q 1734 422 2344 422 
Q 2950 422 3222 751 
Q 3494 1081 3494 1831 
L 3494 4666 
L 4128 4666 
L 4128 1753 
Q 4128 841 3676 375 
Q 3225 -91 2344 -91 
Q 1459 -91 1007 375 
Q 556 841 556 1753 
L 556 4666 
z
" transform="scale(0.015625)"/>
      <path id="DejaVuSans-43" d="M 4122 4306 
L 4122 3641 
Q 3803 3938 3442 4084 
Q 3081 4231 2675 4231 
Q 1875 4231 1450 3742 
Q 1025 3253 1025 2328 
Q 1025 1406 1450 917 
Q 1875 428 2675 428 
Q 3081 428 3442 575 
Q 3803 722 4122 1019 
L 4122 359 
Q 3791 134 3420 21 
Q 3050 -91 2638 -91 
Q 1578 -91 968 557 
Q 359 1206 359 2328 
Q 359 3453 968 4101 
Q 1578 4750 2638 4750 
Q 3056 4750 3426 4639 
Q 3797 4528 4122 4306 
z
" transform="scale(0.015625)"/>
     </defs>
     <use xlink:href="#DejaVuSans-41"/>
     <use xlink:href="#DejaVuSans-55" x="68.408203"/>
     <use xlink:href="#DejaVuSans-43" x="141.601562"/>
     <use xlink:href="#DejaVuSans-2d" x="211.425781"/>
     <use xlink:href="#DejaVuSans-52" x="247.509766"/>
     <use xlink:href="#DejaVuSans-41" x="312.992188"/>
     <use xlink:href="#DejaVuSans-43" x="379.650391"/>
     <use xlink:href="#DejaVuSans-20" x="449.474609"/>
     <use xlink:href="#DejaVuSans-3d" x="481.261719"/>
     <use xlink:href="#DejaVuSans-20" x="565.050781"/>
     <use xlink:href="#DejaVuSans-30" x="596.837891"/>
     <use xlink:href="#DejaVuSans-2e" x="660.460938"/>
     <use xlink:href="#DejaVuSans-37" x="692.248047"/>
     <use xlink:href="#DejaVuSans-37" x="755.871094"/>
     <use xlink:href="#DejaVuSans-37" x="819.494141"/>
    </g>
   </g>
   <g id="legend_1">
    <g id="patch_9">
     <path d="M 253.009375 241.04 
L 414.2 241.04 
Q 416.2 241.04 416.2 239.04 
L 416.2 210.68375 
Q 416.2 208.68375 414.2 208.68375 
L 253.009375 208.68375 
Q 251.009375 208.68375 251.009375 210.68375 
L 251.009375 239.04 
Q 251.009375 241.04 253.009375 241.04 
z
" style="fill: #ffffff; opacity: 0.8; stroke: #cccccc; stroke-linejoin: miter"/>
    </g>
    <g id="line2d_20">
     <path d="M 255.009375 216.782187 
L 265.009375 216.782187 
L 275.009375 216.782187 
" style="fill: none; stroke: #1f77b4; stroke-width: 1.5; stroke-linecap: square"/>
    </g>
    <g id="text_23">
     <!-- BiSupervised -->
     <g transform="translate(283.009375 220.282187)scale(0.1 -0.1)">
      <defs>
       <path id="DejaVuSans-42" d="M 1259 2228 
L 1259 519 
L 2272 519 
Q 2781 519 3026 730 
Q 3272 941 3272 1375 
Q 3272 1813 3026 2020 
Q 2781 2228 2272 2228 
L 1259 2228 
z
M 1259 4147 
L 1259 2741 
L 2194 2741 
Q 2656 2741 2882 2914 
Q 3109 3088 3109 3444 
Q 3109 3797 2882 3972 
Q 2656 4147 2194 4147 
L 1259 4147 
z
M 628 4666 
L 2241 4666 
Q 2963 4666 3353 4366 
Q 3744 4066 3744 3513 
Q 3744 3084 3544 2831 
Q 3344 2578 2956 2516 
Q 3422 2416 3680 2098 
Q 3938 1781 3938 1306 
Q 3938 681 3513 340 
Q 3088 0 2303 0 
L 628 0 
L 628 4666 
z
" transform="scale(0.015625)"/>
      </defs>
      <use xlink:href="#DejaVuSans-42"/>
      <use xlink:href="#DejaVuSans-69" x="68.603516"/>
      <use xlink:href="#DejaVuSans-53" x="96.386719"/>
      <use xlink:href="#DejaVuSans-75" x="159.863281"/>
      <use xlink:href="#DejaVuSans-70" x="223.242188"/>
      <use xlink:href="#DejaVuSans-65" x="286.71875"/>
      <use xlink:href="#DejaVuSans-72" x="348.242188"/>
      <use xlink:href="#DejaVuSans-76" x="389.355469"/>
      <use xlink:href="#DejaVuSans-69" x="448.535156"/>
      <use xlink:href="#DejaVuSans-73" x="476.318359"/>
      <use xlink:href="#DejaVuSans-65" x="528.417969"/>
      <use xlink:href="#DejaVuSans-64" x="589.941406"/>
     </g>
    </g>
    <g id="line2d_21">
     <path d="M 255.009375 231.460312 
L 265.009375 231.460312 
L 275.009375 231.460312 
" style="fill: none; stroke-dasharray: 5.55,2.4; stroke-dashoffset: 0; stroke: #ff7f0e; stroke-width: 1.5"/>
    </g>
    <g id="text_24">
     <!-- Random (expected value) -->
     <g transform="translate(283.009375 234.960312)scale(0.1 -0.1)">
      <defs>
       <path id="DejaVuSans-78" d="M 3513 3500 
L 2247 1797 
L 3578 0 
L 2900 0 
L 1881 1375 
L 863 0 
L 184 0 
L 1544 1831 
L 300 3500 
L 978 3500 
L 1906 2253 
L 2834 3500 
L 3513 3500 
z
" transform="scale(0.015625)"/>
      </defs>
      <use xlink:href="#DejaVuSans-52"/>
      <use xlink:href="#DejaVuSans-61" x="67.232422"/>
      <use xlink:href="#DejaVuSans-6e" x="128.511719"/>
      <use xlink:href="#DejaVuSans-64" x="191.890625"/>
      <use xlink:href="#DejaVuSans-6f" x="255.367188"/>
      <use xlink:href="#DejaVuSans-6d" x="316.548828"/>
      <use xlink:href="#DejaVuSans-20" x="413.960938"/>
      <use xlink:href="#DejaVuSans-28" x="445.748047"/>
      <use xlink:href="#DejaVuSans-65" x="484.761719"/>
      <use xlink:href="#DejaVuSans-78" x="544.535156"/>
      <use xlink:href="#DejaVuSans-70" x="603.714844"/>
      <use xlink:href="#DejaVuSans-65" x="667.191406"/>
      <use xlink:href="#DejaVuSans-63" x="728.714844"/>
      <use xlink:href="#DejaVuSans-74" x="783.695312"/>
      <use xlink:href="#DejaVuSans-65" x="822.904297"/>
      <use xlink:href="#DejaVuSans-64" x="884.427734"/>
      <use xlink:href="#DejaVuSans-20" x="947.904297"/>
      <use xlink:href="#DejaVuSans-76" x="979.691406"/>
      <use xlink:href="#DejaVuSans-61" x="1038.871094"/>
      <use xlink:href="#DejaVuSans-6c" x="1100.150391"/>
      <use xlink:href="#DejaVuSans-75" x="1127.933594"/>
      <use xlink:href="#DejaVuSans-65" x="1191.3125"/>
      <use xlink:href="#DejaVuSans-29" x="1252.835938"/>
     </g>
    </g>
   </g>
  </g>
 </g>
 <defs>
  <clipPath id="pd7e485732a">
   <rect x="71.984" y="10.8" width="349.216" height="235.24"/>
  </clipPath>
 </defs>
</svg>
